{
  "accessors": [
    {
      "bufferView": 2,
      "componentType": 5126,
      "count": 7352,
      "max": [
        0.1086931973695755,
        0.05058061331510544,
        0.008885209448635578
      ],
      "min": [
        -0.10870706290006638,
        -0.05002029240131378,
        -0.009502489119768143
      ],
      "type": "VEC3"
    },
    {
      "bufferView": 2,
      "byteOffset": 88224,
      "componentType": 5126,
      "count": 7352,
      "max": [
        1.0,
        1.0,
        1.0
      ],
      "min": [
        -1.0,
        -1.0,
        -1.0
      ],
      "type": "VEC3"
    },
    {
      "bufferView": 3,
      "componentType": 5126,
      "count": 7352,
      "max": [
        1.0,
        1.0,
        1.0,
        1.0
      ],
      "min": [
        -1.0,
        -1.0,
        -1.0,
        -1.0
      ],
      "type": "VEC4"
    },
    {
      "bufferView": 1,
      "componentType": 5126,
      "count": 7352,
      "max": [
        0.9604267477989197,
        0.9995377063751221
      ],
      "min": [
        0.0004623115819413215,
        0.00046230852603912354
      ],
      "type": "VEC2"
    },
    {
      "bufferView": 1,
      "byteOffset": 58816,
      "componentType": 5126,
      "count": 7352,
      "max": [
        0.9604267477989197,
        0.9995377063751221
      ],
      "min": [
        0.0004623115819413215,
        0.00046230852603912354
      ],
      "type": "VEC2"
    },
    {
      "bufferView": 1,
      "byteOffset": 117632,
      "componentType": 5126,
      "count": 7352,
      "max": [
        0.9604267477989197,
        0.9995377063751221
      ],
      "min": [
        0.0004623115819413215,
        0.00046230852603912354
      ],
      "type": "VEC2"
    },
    {
      "bufferView": 0,
      "componentType": 5125,
      "count": 26289,
      "type": "SCALAR"
    }
  ],
  "asset": {
    "extras": {
      "author": "Smoggybeard (https://sketchfab.com/Smoggybeard)",
      "license": "CC-BY-NC-SA-4.0 (http://creativecommons.org/licenses/by-nc-sa/4.0/)",
      "source": "https://sketchfab.com/3d-models/nintendo-switch-b30e0a74899b4f9baf030d02f45ab599",
      "title": "Nintendo Switch"
    },
    "generator": "Sketchfab-12.68.0",
    "version": "2.0"
  },
  "bufferViews": [
    {
      "buffer": 0,
      "byteLength": 105156,
      "name": "floatBufferViews",
      "target": 34963
    },
    {
      "buffer": 0,
      "byteLength": 176448,
      "byteOffset": 105156,
      "byteStride": 8,
      "name": "floatBufferViews",
      "target": 34962
    },
    {
      "buffer": 0,
      "byteLength": 176448,
      "byteOffset": 281604,
      "byteStride": 12,
      "name": "floatBufferViews",
      "target": 34962
    },
    {
      "buffer": 0,
      "byteLength": 117632,
      "byteOffset": 458052,
      "byteStride": 16,
      "name": "floatBufferViews",
      "target": 34962
    }
  ],
  "buffers": [
    {
      "byteLength": 575684,
      "uri": "scene.bin"
    }
  ],
  "images": [
    {
      "uri": "textures/Nintendo_Switch_Material_baseColor.jpeg"
    },
    {
      "uri": "textures/Nintendo_Switch_Material_metallicRoughness.png"
    },
    {
      "uri": "textures/Nintendo_Switch_Material_normal.png"
    }
  ],
  "materials": [
    {
      "doubleSided": true,
      "name": "Nintendo_Switch_Material",
      "normalTexture": {
        "index": 2
      },
      "occlusionTexture": {
        "index": 1
      },
      "pbrMetallicRoughness": {
        "baseColorTexture": {
          "index": 0
        },
        "metallicRoughnessTexture": {
          "index": 1
        },
        "roughnessFactor": 0.5671661528920344
      }
    }
  ],
  "meshes": [
    {
      "name": "Nintendo Switch_Nintendo Switch Material_0",
      "primitives": [
        {
          "attributes": {
            "NORMAL": 1,
            "POSITION": 0,
            "TANGENT": 2,
            "TEXCOORD_0": 3,
            "TEXCOORD_1": 4,
            "TEXCOORD_2": 5
          },
          "indices": 6,
          "material": 0,
          "mode": 4
        }
      ]
    }
  ],
  "nodes": [
    {
      "children": [
        1
      ],
      "matrix": [
        0.015418962575495243,
        0.0,
        0.0,
        0.0,
        0.0,
        3.4236974534296845e-18,
        -0.015418962575495243,
        0.0,
        0.0,
        0.015418962575495243,
        3.4236974534296845e-18,
        0.0,
        0.0,
        0.0,
        0.0,
        1.0
      ],
      "name": "Sketchfab_model"
    },
    {
      "children": [
        2
      ],
      "matrix": [
        1.0,
        0.0,
        0.0,
        0.0,
        0.0,
        0.0,
        1.0,
        0.0,
        0.0,
        -1.0,
        0.0,
        0.0,
        0.0,
        0.0,
        0.0,
        1.0
      ],
      "name": "499cc06b5be649ff9f1e0c69f4db712f.fbx"
    },
    {
      "children": [
        3
      ],
      "name": "RootNode"
    },
    {
      "children": [
        4
      ],
      "matrix": [
        100.0,
        0.0,
        0.0,
        0.0,
        0.0,
        -1.629206793918314e-05,
        -99.99999999999868,
        0.0,
        0.0,
        99.99999999999868,
        -1.629206793918314e-05,
        0.0,
        0.0,
        -0.45498135685920715,
        0.0,
        1.0
      ],
      "name": "Nintendo Switch"
    },
    {
      "mesh": 0,
      "name": "Nintendo Switch_Nintendo Switch Material_0"
    }
  ],
  "samplers": [
    {
      "magFilter": 9729,
      "minFilter": 9987,
      "wrapS": 10497,
      "wrapT": 10497
    }
  ],
  "scene": 0,
  "scenes": [
    {
      "name": "Sketchfab_Scene",
      "nodes": [
        0
      ]
    }
  ],
  "textures": [
    {
      "sampler": 0,
      "source": 0
    },
    {
      "sampler": 0,
      "source": 1
    },
    {
      "sampler": 0,
      "source": 2
    }
  ]
}
