{
  "accessors": [
    {
      "bufferView": 2,
      "componentType": 5126,
      "count": 1086,
      "max": [
        100.0,
        212.7165985107422,
        48.4673957824707
      ],
      "min": [
        -100.0,
        -133.05210876464844,
        -33.69879913330078
      ],
      "type": "VEC3"
    },
    {
      "bufferView": 2,
      "byteOffset": 13032,
      "componentType": 5126,
      "count": 1086,
      "max": [
        1.0,
        1.0,
        1.0
      ],
      "min": [
        -1.0,
        -1.0,
        -1.0
      ],
      "type": "VEC3"
    },
    {
      "bufferView": 1,
      "componentType": 5126,
      "count": 1086,
      "max": [
        0.9318395256996155,
        0.931864857673645
      ],
      "min": [
        0.007499027531594038,
        0.007853593677282333
      ],
      "type": "VEC2"
    },
    {
      "bufferView": 0,
      "componentType": 5125,
      "count": 3480,
      "type": "SCALAR"
    },
    {
      "bufferView": 2,
      "byteOffset": 26064,
      "componentType": 5126,
      "count": 317,
      "max": [
        87.56489562988281,
        -0.3472065329551697,
        51.121097564697266
      ],
      "min": [
        -80.3583984375,
        -43.15940856933594,
        43.974613189697266
      ],
      "type": "VEC3"
    },
    {
      "bufferView": 2,
      "byteOffset": 29868,
      "componentType": 5126,
      "count": 317,
      "max": [
        1.0,
        1.0,
        1.0
      ],
      "min": [
        -1.0,
        -1.0,
        -0.0001637656387174502
      ],
      "type": "VEC3"
    },
    {
      "bufferView": 1,
      "byteOffset": 8688,
      "componentType": 5126,
      "count": 317,
      "max": [
        0.9317875504493713,
        0.620429515838623
      ],
      "min": [
        0.20818555355072021,
        0.007496379315853119
      ],
      "type": "VEC2"
    },
    {
      "bufferView": 0,
      "byteOffset": 13920,
      "componentType": 5125,
      "count": 1368,
      "type": "SCALAR"
    }
  ],
  "asset": {
    "extras": {
      "author": "Rika Mardjaja (https://sketchfab.com/Rika.Mardjaja)",
      "license": "CC-BY-4.0 (http://creativecommons.org/licenses/by/4.0/)",
      "source": "https://sketchfab.com/3d-models/gameboy-challenge-1c7378f4de9b4ff99e58d01ca132ad89",
      "title": "Gameboy Challenge"
    },
    "generator": "Sketchfab-12.68.0",
    "version": "2.0"
  },
  "bufferViews": [
    {
      "buffer": 0,
      "byteLength": 19392,
      "name": "floatBufferViews",
      "target": 34963
    },
    {
      "buffer": 0,
      "byteLength": 11224,
      "byteOffset": 19392,
      "byteStride": 8,
      "name": "floatBufferViews",
      "target": 34962
    },
    {
      "buffer": 0,
      "byteLength": 33672,
      "byteOffset": 30616,
      "byteStride": 12,
      "name": "floatBufferViews",
      "target": 34962
    }
  ],
  "buffers": [
    {
      "byteLength": 64288,
      "uri": "scene.bin"
    }
  ],
  "extensionsUsed": [
    "KHR_materials_unlit"
  ],
  "images": [
    {
      "uri": "textures/gembBOI_baseColor.png"
    },
    {
      "uri": "textures/BUTT_ON_baseColor.png"
    }
  ],
  "materials": [
    {
      "doubleSided": true,
      "extensions": {
        "KHR_materials_unlit": {}
      },
      "name": "gembBOI",
      "pbrMetallicRoughness": {
        "baseColorTexture": {
          "index": 0
        },
        "metallicFactor": 0.0
      }
    },
    {
      "doubleSided": true,
      "extensions": {
        "KHR_materials_unlit": {}
      },
      "name": "BUTT_ON",
      "pbrMetallicRoughness": {
        "baseColorTexture": {
          "index": 1
        },
        "metallicFactor": 0.0
      }
    }
  ],
  "meshes": [
    {
      "name": "pCube3_gembBOI__0",
      "primitives": [
        {
          "attributes": {
            "NORMAL": 1,
            "POSITION": 0,
            "TEXCOORD_0": 2
          },
          "indices": 3,
          "material": 0,
          "mode": 4
        }
      ]
    },
    {
      "name": "pCube3_BUTT_ON_0",
      "primitives": [
        {
          "attributes": {
            "NORMAL": 5,
            "POSITION": 4,
            "TEXCOORD_0": 6
          },
          "indices": 7,
          "material": 1,
          "mode": 4
        }
      ]
    }
  ],
  "nodes": [
    {
      "children": [
        1
      ],
      "matrix": [
        0.005590572487562895,
        0.0,
        0.0,
        0.0,
        0.0,
        1.2413564593056525e-18,
        -0.005590572487562895,
        0.0,
        0.0,
        0.005590572487562895,
        1.2413564593056525e-18,
        0.0,
        0.0,
        0.0,
        0.0,
        1.0
      ],
      "name": "Sketchfab_model"
    },
    {
      "children": [
        2
      ],
      "matrix": [
        1.0,
        0.0,
        0.0,
        0.0,
        0.0,
        0.0,
        1.0,
        0.0,
        0.0,
        -1.0,
        0.0,
        0.0,
        0.0,
        0.0,
        0.0,
        1.0
      ],
      "name": "4f5dc5e002fc4f9f932d93473d125df8.fbx"
    },
    {
      "children": [
        3,
        6,
        9
      ],
      "name": "RootNode"
    },
    {
      "children": [
        4,
        5
      ],
      "matrix": [
        1.0,
        0.0,
        0.0,
        0.0,
        0.0,
        0.9999999999999867,
        1.6292067073209113e-07,
        0.0,
        0.0,
        -1.6292067073209113e-07,
        0.9999999999999867,
        0.0,
        0.0,
        0.0,
        0.0,
        1.0
      ],
      "name": "pCube3"
    },
    {
      "mesh": 0,
      "name": "pCube3_gembBOI__0"
    },
    {
      "mesh": 1,
      "name": "pCube3_BUTT_ON_0"
    },
    {
      "children": [
        7
      ],
      "matrix": [
        -29.08647719990347,
        -5.518906457566863,
        -95.51711910171437,
        0.0,
        56.63930913109449,
        79.46723428563203,
        -21.83912397841966,
        0.0,
        77.11008775993375,
        -60.45246356562044,
        -19.98834696773717,
        0.0,
        407.6245422363281,
        590.38623046875,
        -100.54539489746094,
        1.0
      ],
      "name": "Lamp"
    },
    {
      "children": [
        8
      ],
      "matrix": [
        1.0,
        0.0,
        0.0,
        0.0,
        0.0,
        2.220446049250313e-16,
        1.0,
        0.0,
        0.0,
        -1.0,
        2.220446049250313e-16,
        0.0,
        0.0,
        0.0,
        0.0,
        1.0
      ],
      "name": "Object_7"
    },
    {
      "name": "Object_8"
    },
    {
      "children": [
        10
      ],
      "matrix": [
        -65.15583280329096,
        -44.52713576570858,
        -61.41703047373549,
        0.0,
        -32.40134137821245,
        89.53957451233616,
        -30.542088974418615,
        0.0,
        68.59205472129975,
        -1.0718647115348782e-05,
        -72.7676336239627,
        0.0,
        748.1131591796875,
        534.3665161132813,
        650.7639770507813,
        1.0
      ],
      "name": "Camera"
    },
    {
      "name": "Object_10"
    }
  ],
  "samplers": [
    {
      "magFilter": 9729,
      "minFilter": 9987,
      "wrapS": 10497,
      "wrapT": 10497
    }
  ],
  "scene": 0,
  "scenes": [
    {
      "name": "Sketchfab_Scene",
      "nodes": [
        0
      ]
    }
  ],
  "textures": [
    {
      "sampler": 0,
      "source": 0
    },
    {
      "sampler": 0,
      "source": 1
    }
  ]
}
