<?xml version="1.0" encoding="UTF-8"?>
<svg version="1.1" xmlns="http://www.w3.org/2000/svg" width="1200" height="1200">
<path d="M0 0 C0.00238835 0.98913958 0.00477671 1.97827915 0.00723743 2.99739265 C0.06601657 27.05878288 0.14188959 51.12007283 0.23571491 75.18135262 C0.28069177 86.8171816 0.32010211 98.45297985 0.34643555 110.08886719 C0.36940028 120.23000572 0.40278129 130.37104715 0.44870156 140.51210868 C0.47265427 145.882356 0.49136966 151.25250702 0.49761391 156.62280655 C0.50365544 161.67727536 0.52362176 166.73149769 0.55427551 171.78587532 C0.56307065 173.64100369 0.56677527 175.49616426 0.56500816 177.35131264 C0.56335672 179.88497585 0.58004335 182.41788654 0.60127258 184.95144653 C0.59642501 185.68492251 0.59157743 186.41839848 0.58658296 187.174101 C0.65143779 191.86676585 1.6922049 194.94692767 4 199 C4.73046875 201.78125 4.73046875 201.78125 5.1875 204.5 C5.42533203 205.84578125 5.42533203 205.84578125 5.66796875 207.21875 C6 210 6 210 6 216 C9.96 216 13.92 216 18 216 C18 218.64 18 221.28 18 224 C16.68 224 15.36 224 14 224 C13.67 231.59 13.34 239.18 13 247 C14.98 247.66 16.96 248.32 19 249 C28.95734856 255.7224739 35.20035823 265.97056981 38.33984375 277.4140625 C41.12652126 292.55116284 38.70524485 306.74357569 29.90234375 319.56640625 C24.03485445 327.0724552 16.733867 331.33177586 8 335 C7.34 335 6.68 335 6 335 C6.33 336.98 6.66 338.96 7 341 C9.97 341 12.94 341 16 341 C16 345.62 16 350.24 16 355 C13.03 355 10.06 355 7 355 C7.06341552 355.85046685 7.12683104 356.7009337 7.19216824 357.57717228 C7.95949616 368.38772753 8.38683083 379.19651777 8.75610352 390.02709961 C8.82501552 391.99660939 8.89413359 393.96611197 8.96343994 395.93560791 C9.14944285 401.23873236 9.33249026 406.54195493 9.51489758 411.84520411 C9.70685636 417.41350426 9.90132463 422.98171684 10.09544373 428.54994202 C10.42065845 437.88943947 10.7440071 447.22900005 11.06616211 456.56860352 C11.43824882 467.35529601 11.81300013 478.14189336 12.18923432 488.92844194 C12.55204156 499.33107412 12.91326427 509.73376068 13.27366447 520.13647652 C13.42671029 524.55375327 13.58025489 528.97101226 13.7341938 533.38825798 C13.91525402 538.58641078 14.09490745 543.78461039 14.27348328 548.98284912 C14.33911814 550.88717344 14.40522042 552.79148171 14.47183037 554.69577217 C14.56283647 557.29986006 14.65212265 559.90400155 14.74098206 562.50816345 C14.76753657 563.25670953 14.79409109 564.00525561 14.82145029 564.77648491 C14.84521736 565.48332532 14.86898443 566.19016574 14.89347172 566.91842556 C14.92455512 567.81755772 14.92455512 567.81755772 14.95626646 568.73485416 C15.02231836 572.15596292 15 575.57825367 15 579 C23.91 579 32.82 579 42 579 C42 568.44 42 557.88 42 547 C41.34 547 40.68 547 40 547 C39.731875 546.05125 39.46375 545.1025 39.1875 544.125 C38.25013412 540.74732727 38.25013412 540.74732727 35 539 C35 538.01 35 537.02 35 536 C35.99 536 36.98 536 38 536 C38.78835317 526.70309086 38.78835317 526.70309086 35.77490234 518.17724609 C33.73587654 515.93293599 31.59139088 513.95697379 29.21777344 512.07128906 C27.58984375 510.74609375 27.58984375 510.74609375 25 508 C25 505.69 25 503.38 25 501 C29.62 501 34.24 501 39 501 C39 500.01 39 499.02 39 498 C40.98 498 42.96 498 45 498 C44.91284983 496.06166004 44.80467036 494.1242571 44.6875 492.1875 C44.60048828 490.56908203 44.60048828 490.56908203 44.51171875 488.91796875 C43.96160132 485.7810396 43.50315486 484.86509578 41 483 C38.90010348 481.82425289 38.90010348 481.82425289 37 481 C37 479.68 37 478.36 37 477 C64.72 477 92.44 477 121 477 C121 474.03 121 471.06 121 468 C121.99 468 122.98 468 124 468 C124 467.01 124 466.02 124 465 C127.63 465 131.26 465 135 465 C134.814375 463.55625 134.62875 462.1125 134.4375 460.625 C133.875 456.25 133.875 456.25 135 454 C135.34022786 452.00116131 135.67329097 450.00109278 136 448 C136.33 447.01 136.66 446.02 137 445 C136.01 444.67 135.02 444.34 134 444 C133.67 441.03 133.34 438.06 133 435 C135.25 434.25 135.25 434.25 138 434 C140.25 435.5 140.25 435.5 142 438 C142.33333333 440.33333333 142.66666667 442.66666667 143 445 C144.79191032 447.29215045 144.79191032 447.29215045 147 449 C149.6538868 451.29507048 150.62090555 453.2136795 151.625 456.5625 C152.62886369 459.85410081 152.62886369 459.85410081 154 463 C153.90460937 462.19175781 153.80921875 461.38351562 153.7109375 460.55078125 C153.54464844 458.94783203 153.54464844 458.94783203 153.375 457.3125 C153.25898437 456.25675781 153.14296875 455.20101563 153.0234375 454.11328125 C152.99824213 450.76649564 153.71462471 449.04817568 155 446 C155.43887039 443.38574118 155.81817728 440.81561267 156.125 438.1875 C156.21136719 437.49462891 156.29773438 436.80175781 156.38671875 436.08789062 C156.59716081 434.39266294 156.79941672 432.69642245 157 431 C158.65 431 160.3 431 162 431 C162 434.63 162 438.26 162 442 C162.66 442 163.32 442 164 442 C164.12375 441.21625 164.2475 440.4325 164.375 439.625 C165 437 165 437 167 435 C166.7947354 431.30523711 166.64843935 428.81655325 164.3125 425.875 C163.879375 425.25625 163.44625 424.6375 163 424 C163.875 421.4375 163.875 421.4375 165 419 C164.67 418.01 164.34 417.02 164 416 C163.01 415.67 162.02 415.34 161 415 C159.8125 411.9375 159.8125 411.9375 159 409 C159.763125 409.165 160.52625 409.33 161.3125 409.5 C166.55163557 410.4747229 170.56380098 409.95746601 175 407 C174.24489796 414.55102041 174.24489796 414.55102041 172.875 417.0625 C171.70060404 419.18862415 171.70060404 419.18862415 172.5625 422.5 C173 426 173 426 171.5625 428.0625 C171.046875 428.701875 170.53125 429.34125 170 430 C169.74913276 433.16732421 169.74913276 433.16732421 170 436 C171.32 436.33 172.64 436.66 174 437 C173.67 438.65 173.34 440.3 173 442 C174.32 441.67 175.64 441.34 177 441 C177.66 442.32 178.32 443.64 179 445 C179.33 440.38 179.66 435.76 180 431 C181.65 431 183.3 431 185 431 C185.12117187 432.00160156 185.24234375 433.00320313 185.3671875 434.03515625 C185.53617151 435.3776403 185.70545858 436.72008623 185.875 438.0625 C185.95363281 438.71927734 186.03226563 439.37605469 186.11328125 440.05273438 C186.54367591 443.41312343 187.12434225 446.41921101 188.09375 449.6875 C188.95654335 452.84115847 189.11477986 454.75393088 188.625 457.9375 C188.45871094 459.09572266 188.45871094 459.09572266 188.2890625 460.27734375 C188.19367187 460.84582031 188.09828125 461.41429687 188 462 C189.83540239 459.24689641 190.47723568 457.54796283 191.3125 454.4375 C192.078125 451.9921875 192.078125 451.9921875 193 450 C193.845625 449.690625 194.69125 449.38125 195.5625 449.0625 C196.366875 448.711875 197.17125 448.36125 198 448 C198.7537413 445.50685571 199.12908886 443.091591 199.4453125 440.5078125 C200.07041583 437.68164109 201.1293779 436.17396623 203 434 C204.98 434.33 206.96 434.66 209 435 C208.67 437.97 208.34 440.94 208 444 C207.01 444.33 206.02 444.66 205 445 C205.33 445.721875 205.66 446.44375 206 447.1875 C207.01265749 450.03559919 207.08066462 452.01540923 207 455 C207.33 455.66 207.66 456.32 208 457 C207.83219837 459.69565202 207.38844355 462.32405554 207 465 C210.63 465 214.26 465 218 465 C218 465.99 218 466.98 218 468 C218.99 468 219.98 468 221 468 C221 470.97 221 473.94 221 477 C249.05 477 277.1 477 306 477 C305 482 305 482 302.5 483.75 C301.675 484.1625 300.85 484.575 300 485 C298.18884044 486.81115956 298.61800552 489.61278227 298.4375 492.0625 C298.35371094 493.16722656 298.26992188 494.27195312 298.18359375 495.41015625 C298.12300781 496.26480469 298.06242188 497.11945313 298 498 C299.98 498 301.96 498 304 498 C304 498.99 304 499.98 304 501 C308.62 501 313.24 501 318 501 C318 508 318 508 316.82250977 509.75 C316.28424561 510.1625 315.74598145 510.575 315.19140625 511 C314.6089917 511.48766846 314.02657715 511.97533691 313.42651367 512.4777832 C312.81138916 512.98011475 312.19626465 513.48244629 311.5625 514 C307.02286634 518.03436106 304.2790379 521.07424433 303.72827148 527.26367188 C303.66997824 530.19299485 303.75371291 533.08089231 304 536 C305.32 536 306.64 536 308 536 C307.625 537.9375 307.625 537.9375 307 540 C306.34 540.33 305.68 540.66 305 541 C304.27306096 542.97888961 303.60183749 544.97954558 303 547 C302.34 547 301.68 547 301 547 C301 557.56 301 568.12 301 579 C306.61 579 312.22 579 318 579 C318 564.15 318 549.3 318 534 C329.88 534 341.76 534 354 534 C353.89002686 528.26753906 353.78005371 522.53507813 353.66674805 516.62890625 C353.31837107 497.66274244 353.08559088 478.6964504 352.91194439 459.72792053 C352.80387564 448.2297095 352.65669498 436.7345394 352.41577148 425.23828125 C352.20575658 415.21208063 352.07081986 405.1880824 352.02414161 395.15974331 C351.99686956 389.85348584 351.93332293 384.55352543 351.77966881 379.2492981 C350.80887026 344.40712944 350.80887026 344.40712944 358.53359985 335.96435547 C362.80372325 332.30830624 367.32677043 329.65564519 372.41195107 327.29318237 C375.76310971 325.61869344 378.54134138 323.47178664 381.43690014 321.11378479 C383 320 383 320 385 320 C385 312.08 385 304.16 385 296 C386.98 296 388.96 296 391 296 C391 301.94 391 307.88 391 314 C392.629375 312.845 394.25875 311.69 395.9375 310.5 C400.875 307 400.875 307 402 307 C402 313.27 402 319.54 402 326 C405.3 326 408.6 326 412 326 C412 409.49 412 492.98 412 579 C416.29 579 420.58 579 425 579 C424.97113205 577.31838776 424.9422641 575.63677551 424.91252136 573.90420532 C424.64879831 558.04364217 424.45324398 542.1837615 424.32644176 526.32152748 C424.2595145 518.16674136 424.16834345 510.01359591 424.01928711 501.85986328 C423.88937015 494.74968636 423.80576579 487.64069773 423.77684957 480.52936685 C423.75995352 476.76606258 423.72050964 473.00615629 423.62550926 469.24394608 C423.0242222 444.5108542 423.0242222 444.5108542 427.91030884 438.88104248 C431.27275952 435.90118613 435.36044918 433 440 433 C440 431.68 440 430.36 440 429 C439.08476563 429.5775 438.16953125 430.155 437.2265625 430.75 C436.02618795 431.5002341 434.82565908 432.25022133 433.625 433 C433.02171875 433.3815625 432.4184375 433.763125 431.796875 434.15625 C427.2265625 437 427.2265625 437 425 437 C424.10096359 433.38848621 423.93740737 430.59049564 425 427 C428.55256355 422.84348669 433.3576831 419.8044845 438 417 C438.66 417 439.32 417 440 417 C440 415.68 440 414.36 440 413 C438.75283203 413.86625 438.75283203 413.86625 437.48046875 414.75 C436.39378906 415.4925 435.30710937 416.235 434.1875 417 C433.10855469 417.7425 432.02960937 418.485 430.91796875 419.25 C428 421 428 421 425 421 C424.02440996 417.36089431 423.83395511 414.61081969 425 411 C428.17358702 407.75085138 432.09737371 405.50026002 435.9375 403.12890625 C436.948125 402.42636719 437.95875 401.72382812 439 401 C439 400.01 439 399.02 439 398 C438.24074219 398.5053125 437.48148438 399.010625 436.69921875 399.53125 C435.70535156 400.1809375 434.71148438 400.830625 433.6875 401.5 C432.70136719 402.1496875 431.71523438 402.799375 430.69921875 403.46875 C428 405 428 405 425 405 C424.02498333 401.36303304 423.84226849 398.6105525 425 395 C428.10371378 391.78334176 431.96570097 389.5631846 435.7421875 387.2265625 C438.70930724 385.1986749 439.91902175 384.33428503 441 381 C439.39318359 381.97453125 439.39318359 381.97453125 437.75390625 382.96875 C436.35684044 383.81261525 434.95970124 384.656359 433.5625 385.5 C432.50192383 386.14388672 432.50192383 386.14388672 431.41992188 386.80078125 C426.11328125 390 426.11328125 390 425 390 C424.14557602 385.7497884 423.91709062 382.22285209 425 378 C428.4365127 373.71751421 433.30209496 370.72937413 438 368 C438.66 368 439.32 368 440 368 C440 366.68 440 365.36 440 364 C439.08476563 364.5775 438.16953125 365.155 437.2265625 365.75 C436.02618795 366.5002341 434.82565908 367.25022133 433.625 368 C433.02171875 368.3815625 432.4184375 368.763125 431.796875 369.15625 C427.2265625 372 427.2265625 372 425 372 C424.10096359 368.38848621 423.93740737 365.59049564 425 362 C428.55256355 357.84348669 433.3576831 354.8044845 438 352 C438.66 352 439.32 352 440 352 C440 350.68 440 349.36 440 348 C439.08476563 348.5775 438.16953125 349.155 437.2265625 349.75 C436.02618795 350.5002341 434.82565908 351.25022133 433.625 352 C433.02171875 352.3815625 432.4184375 352.763125 431.796875 353.15625 C427.2265625 356 427.2265625 356 425 356 C424.02440996 352.36089431 423.83395511 349.61081969 425 346 C428.17358702 342.75085138 432.09737371 340.50026002 435.9375 338.12890625 C436.948125 337.42636719 437.95875 336.72382812 439 336 C439 335.01 439 334.02 439 333 C438.24074219 333.5053125 437.48148438 334.010625 436.69921875 334.53125 C435.70535156 335.1809375 434.71148438 335.830625 433.6875 336.5 C432.70136719 337.1496875 431.71523438 337.799375 430.69921875 338.46875 C428 340 428 340 425 340 C424.02498333 336.36303304 423.84226849 333.6105525 425 330 C428.10371378 326.78334176 431.96570097 324.5631846 435.7421875 322.2265625 C438.70930724 320.1986749 439.91902175 319.33428503 441 316 C439.39318359 316.97453125 439.39318359 316.97453125 437.75390625 317.96875 C436.35684044 318.81261525 434.95970124 319.656359 433.5625 320.5 C432.50192383 321.14388672 432.50192383 321.14388672 431.41992188 321.80078125 C426.11328125 325 426.11328125 325 425 325 C424.92494288 321.05315009 424.87097785 317.10658573 424.83520508 313.15917969 C424.81298521 311.16847095 424.77483405 309.17796032 424.73632812 307.1875 C424.63923724 294.37150281 426.91526791 284.7618277 435.67578125 275.1640625 C447.21435343 264.24318691 467.90205692 253.89111003 484 253.875 C484.99 253.91625 485.98 253.9575 487 254 C487 256.97 487 259.94 487 263 C489.64 263 492.28 263 495 263 C495 268.61 495 274.22 495 280 C498.63 280 502.26 280 506 280 C506.33 368.11 506.66 456.22 507 547 C508.65975811 539.64330011 508.65975811 539.64330011 509.78125 532.29296875 C509.95950317 530.80216797 509.95950317 530.80216797 510.14135742 529.28125 C510.25970947 528.2603125 510.37806152 527.239375 510.5 526.1875 C511.47283961 518.08318328 512.50374529 510.02696642 514 502 C514.99 501.67 515.98 501.34 517 501 C520.89320822 508.78641644 520.43190431 520.58846215 521.21459961 529.24975586 C521.57470325 532.97345627 522.06488359 536.51276965 523.0234375 540.1328125 C523.95529055 543.82295057 524.38809373 547.20949968 524.625 551 C524.69976563 552.134375 524.77453125 553.26875 524.8515625 554.4375 C524.90054687 555.283125 524.94953125 556.12875 525 557 C529.57656412 551.98054258 529.43486683 547.30744982 529.72265625 540.6953125 C530.16925347 534.74487637 531.30869317 528.38261365 534 523 C534.18363843 521.59845422 534.31997917 520.19051142 534.4296875 518.78125 C534.53700195 517.51390015 534.53700195 517.51390015 534.64648438 516.22094727 C534.72189453 515.32303467 534.79730469 514.42512207 534.875 513.5 C535.44835691 507.196963 536.14940758 501.38118009 538.26953125 495.38671875 C539.79570556 490.40012781 540.31280582 485.15799868 541 480 C542.65 480.33 544.3 480.66 546 481 C546.02578125 481.69222656 546.0515625 482.38445312 546.078125 483.09765625 C546.42321895 489.05052697 547.28550884 494.45159018 548.9375 500.1875 C550.72301982 506.44966482 551.63973143 512.47030332 552.27880859 518.93969727 C552.79694572 523.93062743 553.87524402 528.41500037 555.359375 533.1875 C556.15731512 536.69065175 556.21280675 540.03604285 556.3125 543.625 C556.58601073 549.87758248 557.7586413 553.42311322 561.8203125 558.16796875 C563 560 563 560 562.71484375 561.75390625 C562.36099609 562.86572266 562.36099609 562.86572266 562 564 C561.77711499 566.58656673 561.58685615 569.15952778 561.4375 571.75 C561.39431641 572.44738281 561.35113281 573.14476562 561.30664062 573.86328125 C561.20110404 575.57531922 561.1001009 577.28763561 561 579 C562.98 579 564.96 579 567 579 C567 576.69 567 574.38 567 572 C567.90878906 571.57589844 568.81757812 571.15179687 569.75390625 570.71484375 C570.35436768 570.43455322 570.9548291 570.1542627 571.57348633 569.86547852 C572.91033091 569.24177086 574.24741165 568.61856915 575.5847168 567.99584961 C579.15067928 566.33445897 582.71222517 564.6646735 586.265625 562.9765625 C586.94423584 562.6556665 587.62284668 562.33477051 588.32202148 562.00415039 C589.63288554 561.38401024 590.94233682 560.76087347 592.25024414 560.13452148 C596.77513519 558 596.77513519 558 599 558 C598.91359253 557.01773437 598.91359253 557.01773437 598.82543945 556.015625 C597.38685929 537.2627642 597.38685929 537.2627642 601.30859375 531.76171875 C604.14873707 529.75890852 606.78607028 528.30622004 610 527 C610.71542969 526.61972656 611.43085937 526.23945312 612.16796875 525.84765625 C614.85810792 524.60296499 617.07956865 524.75145265 620 525 C623 527 623 527 624 530 C624.07079087 532.82851693 624.08878662 535.63690205 624.0703125 538.46484375 C624.07889466 540.16863002 624.0893698 541.87240762 624.1015625 543.57617188 C624.1182807 546.26067183 624.12494593 548.94322912 624.09960938 551.62768555 C624.0786635 554.22045223 624.10185223 556.80974369 624.1328125 559.40234375 C624.11542023 560.20349106 624.09802795 561.00463837 624.08010864 561.83006287 C624.06106025 564.40006965 624.06106025 564.40006965 625 568 C627.31 569.32 629.62 570.64 632 572 C632 600.71 632 629.42 632 659 C236 659 -160 659 -568 659 C-568 632.6 -568 606.2 -568 579 C-565.36 579 -562.72 579 -560 579 C-560 577.35 -560 575.7 -560 574 C-562.31 574 -564.62 574 -567 574 C-567 573.34 -567 572.68 -567 572 C-566.20335937 571.74605469 -565.40671875 571.49210938 -564.5859375 571.23046875 C-558.05306384 569.16034626 -558.05306384 569.16034626 -551.875 566.25 C-547.63121741 564.40487713 -543.56129958 564.7566105 -539 565 C-536.74890704 550.72850774 -536.38938248 536.4229802 -536 522 C-536.99 521.67 -537.98 521.34 -539 521 C-539 519.68 -539 518.36 -539 517 C-533.24882466 511.84377383 -523.38856288 511.67161943 -516 512 C-516.0825 510.989375 -516.165 509.97875 -516.25 508.9375 C-516 505 -516 505 -514.01573181 502.03575134 C-510.93316166 496.86018609 -511.44979385 491.35204325 -511.49829102 485.49047852 C-511.49288803 484.24409607 -511.48748505 482.99771362 -511.48191833 481.71356201 C-511.4715835 478.31030027 -511.47909918 474.90801727 -511.49562955 471.50484204 C-511.50953487 467.93315107 -511.50301364 464.36148798 -511.49949646 460.78977966 C-511.49679829 454.79198063 -511.51023465 448.79438216 -511.53344727 442.79663086 C-511.56004251 435.87728183 -511.56180655 428.95826827 -511.5500589 422.03888565 C-511.53925204 415.36518948 -511.54549171 408.69161381 -511.55961418 402.01792717 C-511.56535007 399.18597478 -511.56531027 396.35411128 -511.56054878 393.52215767 C-511.55485815 389.56094964 -511.57416563 385.60007255 -511.59594727 381.63891602 C-511.59144562 380.47243027 -511.58694397 379.30594452 -511.58230591 378.10411072 C-511.64129728 371.63413341 -512.42930903 366.9297919 -515 361 C-515.1875 357.5 -515.1875 357.5 -515 355 C-512.69 354.34 -510.38 353.68 -508 353 C-508 350.69 -508 348.38 -508 346 C-507.01 346 -506.02 346 -505 346 C-505 344.68 -505 343.36 -505 342 C-506.98567708 342.03255208 -508.97135417 342.06510417 -510.95703125 342.09765625 C-513 342 -513 342 -516 341 C-515.363829 336.41956882 -515.363829 336.41956882 -513.59765625 334.3828125 C-511.25056102 330.88225482 -510.62098613 327.20939707 -509.75 323.125 C-509.564375 322.33480469 -509.37875 321.54460937 -509.1875 320.73046875 C-508.18506166 316.16633662 -507.83953802 312.6269702 -509 308 C-511.64 307.67 -514.28 307.34 -517 307 C-517 306.34 -517 305.68 -517 305 C-517.99 305 -518.98 305 -520 305 C-520 304.34 -520 303.68 -520 303 C-520.66 303 -521.32 303 -522 303 C-522.33 301.68 -522.66 300.36 -523 299 C-517.25 297 -517.25 297 -515 297 C-515.144375 295.700625 -515.28875 294.40125 -515.4375 293.0625 C-515.51871094 292.33160156 -515.59992187 291.60070312 -515.68359375 290.84765625 C-515.81886614 288.98859771 -515.81886614 288.98859771 -517 288 C-517.04080783 286.00041636 -517.04254356 283.99954746 -517 282 C-514.625 281.375 -514.625 281.375 -512 281 C-511.34 281.66 -510.68 282.32 -510 283 C-510.12890625 284.953125 -510.12890625 284.953125 -510.5625 287.25 C-511.15881383 291.71157694 -510.73828358 294.25767911 -508 298 C-505.44278263 299.42557356 -505.44278263 299.42557356 -503 300 C-502.34 298.02 -501.68 296.04 -501 294 C-498.03 294 -495.06 294 -492 294 C-492 294.99 -492 295.98 -492 297 C-492.66 297.33 -493.32 297.66 -494 298 C-494.33 298.99 -494.66 299.98 -495 301 C-494.071875 300.505 -493.14375 300.01 -492.1875 299.5 C-487.29259354 297.37352424 -482.2463985 297.54757426 -477 298 C-476.34 298.33 -475.68 298.66 -475 299 C-475.75 301.4375 -475.75 301.4375 -477 304 C-479.125 304.8125 -479.125 304.8125 -481 305 C-481 305.66 -481 306.32 -481 307 C-482.5778125 307.4021875 -482.5778125 307.4021875 -484.1875 307.8125 C-487.59905077 308.87511417 -490.01088471 310.11566998 -493 312 C-492.74310796 314.85603503 -492.46996134 317.70897318 -492.1875 320.5625 C-492.11724609 321.36236328 -492.04699219 322.16222656 -491.97460938 322.98632812 C-491.57627423 326.89001251 -491.05618395 330.25027401 -489.42578125 333.83984375 C-488 337 -488 337 -488 341 C-490.97 341.33 -493.94 341.66 -497 342 C-497 343.32 -497 344.64 -497 346 C-496.01 346 -495.02 346 -494 346 C-494 348.31 -494 350.62 -494 353 C-491.69 353.66 -489.38 354.32 -487 355 C-486.74523358 361.36916047 -486.74523358 361.36916047 -487.99064636 364.45298767 C-489.51687812 369.81638329 -489.28615866 375.07745623 -489.2746582 380.62719727 C-489.2823246 382.53304092 -489.2823246 382.53304092 -489.29014587 384.47738647 C-489.30349697 387.95042609 -489.30411913 391.42335664 -489.30158257 394.8964169 C-489.30051068 397.79911893 -489.30540158 400.70179909 -489.310188 403.60449642 C-489.32126872 410.45208663 -489.32172802 417.29962197 -489.31567383 424.1472168 C-489.30962813 431.20688687 -489.32196333 438.26635794 -489.3432439 445.32599407 C-489.36086165 451.39409643 -489.36686118 457.46213543 -489.36360615 463.53026241 C-489.36179415 467.15158852 -489.3644215 470.7727725 -489.37832069 474.39407539 C-489.39323414 478.43024758 -489.3839275 482.46601427 -489.37231445 486.50219727 C-489.37995819 487.69974136 -489.38760193 488.89728546 -489.39547729 490.13111877 C-489.38846298 491.23157532 -489.38144867 492.33203186 -489.3742218 493.46583557 C-489.37447341 494.89629133 -489.37447341 494.89629133 -489.37473011 496.35564518 C-488.92986369 499.49493027 -487.71641898 501.3660977 -486 504 C-485.64024582 506.74852193 -485.85815892 509.2104588 -486 512 C-484.60587891 512.05607422 -484.60587891 512.05607422 -483.18359375 512.11328125 C-470.93106104 512.76487579 -470.93106104 512.76487579 -465 516 C-464.34 516.33 -463.68 516.66 -463 517 C-463.875 521.875 -463.875 521.875 -465 523 C-465.26053661 526.4495923 -465.1896997 529.91680421 -465.1875 533.375 C-465.1884668 534.91522827 -465.1884668 534.91522827 -465.18945312 536.48657227 C-465.12433318 546.08214411 -464.24241545 555.49330321 -463 565 C-459.37 565 -455.74 565 -452 565 C-452.08731537 561.79040748 -452.19424593 558.58347844 -452.3125 555.375 C-452.33505859 554.47136719 -452.35761719 553.56773437 -452.38085938 552.63671875 C-452.59383546 547.3316782 -453.21398896 543.65528838 -456 539 C-456.495 537.515 -456.495 537.515 -457 536 C-457.99 536 -458.98 536 -460 536 C-460 534.35 -460 532.7 -460 531 C-458.02 531 -456.04 531 -454 531 C-454.02320313 530.24976563 -454.04640625 529.49953125 -454.0703125 528.7265625 C-454.19119636 521.87072063 -453.64936127 515.65635083 -452 509 C-450.68 509 -449.36 509 -448 509 C-448 509.99 -448 510.98 -448 512 C-446.02 512.33 -444.04 512.66 -442 513 C-442.08679142 510.53991222 -442.19360955 508.08356483 -442.3125 505.625 C-442.33505859 504.92632813 -442.35761719 504.22765625 -442.38085938 503.5078125 C-442.46984296 501.22711059 -442.46984296 501.22711059 -443 498 C-443.99 497.34 -444.98 496.68 -446 496 C-445.8203125 493.67578125 -445.8203125 493.67578125 -445 491 C-436.77097043 485.06982744 -427.60499778 485.55532418 -418 486 C-418 477.42 -418 468.84 -418 460 C-417.01 460 -416.02 460 -415 460 C-414.67 460.66 -414.34 461.32 -414 462 C-411.65613191 462.91031272 -411.65613191 462.91031272 -408.9375 463.625 C-406.4934375 464.305625 -406.4934375 464.305625 -404 465 C-404.99 468.96 -405.98 472.92 -407 477 C-408.65 476.34 -410.3 475.68 -412 475 C-412.99 474.67 -413.98 474.34 -415 474 C-415 477.96 -415 481.92 -415 486 C-414.05640625 485.94199219 -413.1128125 485.88398437 -412.140625 485.82421875 C-403.51681488 485.52117321 -395.32461998 485.72158168 -388 491 C-387.1796875 493.67578125 -387.1796875 493.67578125 -387 496 C-388.65 496.66 -390.3 497.32 -392 498 C-392 503.28 -392 508.56 -392 514 C-387.71 514 -383.42 514 -379 514 C-379 508.06 -379 502.12 -379 496 C-374.545 497.485 -374.545 497.485 -370 499 C-370.33 501.97 -370.66 504.94 -371 508 C-372.98 507.34 -374.96 506.68 -377 506 C-377 508.64 -377 511.28 -377 514 C-375.78763672 513.93039062 -375.78763672 513.93039062 -374.55078125 513.859375 C-365.83761903 513.56508243 -365.83761903 513.56508243 -361.75 515.6875 C-360 518 -360 518 -359.6875 520.75 C-359.790625 521.4925 -359.89375 522.235 -360 523 C-357.03 523 -354.06 523 -351 523 C-351 521.68 -351 520.36 -351 519 C-350.34 518.67 -349.68 518.34 -349 518 C-348.67 517.01 -348.34 516.02 -348 515 C-346.35 515 -344.7 515 -343 515 C-343 517.64 -343 520.28 -343 523 C-335.74 523 -328.48 523 -321 523 C-320.67 521.68 -320.34 520.36 -320 519 C-319.34 519 -318.68 519 -318 519 C-318 517.68 -318 516.36 -318 515 C-316.35 515 -314.7 515 -313 515 C-313 516.32 -313 517.64 -313 519 C-312.01 519.33 -311.02 519.66 -310 520 C-310 520.99 -310 521.98 -310 523 C-307.36 523 -304.72 523 -302 523 C-302.02320313 522.24074219 -302.04640625 521.48148438 -302.0703125 520.69921875 C-302.08835937 519.70535156 -302.10640625 518.71148438 -302.125 517.6875 C-302.15980469 516.20830078 -302.15980469 516.20830078 -302.1953125 514.69921875 C-302 512 -302 512 -300 509 C-299.60986284 507.0103005 -299.26797351 505.00980131 -299 503 C-297.68 503 -296.36 503 -295 503 C-295.32960216 497.98464948 -295.32960216 497.98464948 -298 494 C-298.51124478 489.398797 -297.81720317 486.68403491 -295 483 C-294.34 483 -293.68 483 -293 483 C-293 481.68 -293 480.36 -293 479 C-292.34 479 -291.68 479 -291 479 C-290.525625 480.134375 -290.05125 481.26875 -289.5625 482.4375 C-288.36377917 485.75740166 -288.36377917 485.75740166 -287 487 C-286.85884839 489.67058851 -286.95752893 492.32432238 -287 495 C-286.36771484 493.89978516 -286.36771484 493.89978516 -285.72265625 492.77734375 C-279.28366943 482.3961201 -270.2005557 475.30133541 -258.2421875 472.47265625 C-244.00579172 470.39722988 -230.34303721 471.43543368 -218.125 479.625 C-211.74966447 484.5949696 -207.47217944 490.75660174 -204 498 C-203.67 497.01 -203.34 496.02 -203 495 C-203.66 495 -204.32 495 -205 495 C-205.40909091 486.81818182 -205.40909091 486.81818182 -202 483 C-201.29485154 480.85266073 -201.29485154 480.85266073 -201 479 C-200.34 479 -199.68 479 -199 479 C-199 480.32 -199 481.64 -199 483 C-198.34 483 -197.68 483 -197 483 C-194.18279683 486.68403491 -193.48875522 489.398797 -194 494 C-194.66 494.66 -195.32 495.32 -196 496 C-196.40047444 498.32275177 -196.7397104 500.65739357 -197 503 C-195.68 503 -194.36 503 -193 503 C-190.53745274 509.61809577 -190.81064528 516.00439516 -191 523 C-188.03 523 -185.06 523 -182 523 C-181.67 521.68 -181.34 520.36 -181 519 C-180.34 519 -179.68 519 -179 519 C-179 517.68 -179 516.36 -179 515 C-177.68 515 -176.36 515 -175 515 C-174.67 515.99 -174.34 516.98 -174 518 C-173.34 518.33 -172.68 518.66 -172 519 C-172 520.32 -172 521.64 -172 523 C-166.39 523 -160.78 523 -155 523 C-155 520.36 -155 517.72 -155 515 C-153.35 515 -151.7 515 -150 515 C-149.67 515.99 -149.34 516.98 -149 518 C-148.34 518.33 -147.68 518.66 -147 519 C-147 520.32 -147 521.64 -147 523 C-144.03 523 -141.06 523 -138 523 C-138.103125 522.2575 -138.20625 521.515 -138.3125 520.75 C-138 518 -138 518 -135.9375 515.6875 C-133 514 -133 514 -126 514 C-126 508.06 -126 502.12 -126 496 C-122.5879008 496.8530248 -119.32514673 497.86642725 -116 499 C-116.66 501.97 -117.32 504.94 -118 508 C-119.65 507.34 -121.3 506.68 -123 506 C-123 508.64 -123 511.28 -123 514 C-117.39 514 -111.78 514 -106 514 C-106 508.72 -106 503.44 -106 498 C-107.65 497.34 -109.3 496.68 -111 496 C-110.82421875 493.67578125 -110.82421875 493.67578125 -110 491 C-102.09017444 485.38970341 -93.30140361 485.53492982 -84 486 C-84 477.42 -84 468.84 -84 460 C-83.01 460 -82.02 460 -81 460 C-80.67 460.66 -80.34 461.32 -80 462 C-77.65613191 462.91031272 -77.65613191 462.91031272 -74.9375 463.625 C-73.308125 464.07875 -71.67875 464.5325 -70 465 C-70.99 468.96 -71.98 472.92 -73 477 C-74.65 476.34 -76.3 475.68 -78 475 C-78.99 474.67 -79.98 474.34 -81 474 C-81 477.96 -81 481.92 -81 486 C-79.98421875 485.94199219 -78.9684375 485.88398437 -77.921875 485.82421875 C-69.11036311 485.47527987 -60.4528286 485.54178014 -53 491 C-52.18359375 493.67578125 -52.18359375 493.67578125 -52 496 C-52.99 496.66 -53.98 497.32 -55 498 C-55.38411275 500.609621 -55.60293197 503.0058074 -55.6875 505.625 C-55.72166016 506.33140625 -55.75582031 507.0378125 -55.79101562 507.765625 C-55.87351308 509.50985688 -55.93843335 511.25490395 -56 513 C-54.35 512.67 -52.7 512.34 -51 512 C-51 511.01 -51 510.02 -51 509 C-49.68 509 -48.36 509 -47 509 C-46.51171875 511.01822917 -46.0234375 513.03645833 -45.53515625 515.0546875 C-45.05153008 517.0585657 -45.05153008 517.0585657 -44 519 C-43.92934383 521.04055005 -43.91578024 523.08334257 -43.9375 525.125 C-43.94652344 526.22070312 -43.95554687 527.31640625 -43.96484375 528.4453125 C-43.98224609 529.70988281 -43.98224609 529.70988281 -44 531 C-42.02 531 -40.04 531 -38 531 C-38 532.65 -38 534.3 -38 536 C-38.99 536 -39.98 536 -41 536 C-43.98180678 541.75062737 -45.30926669 546.41277178 -45.4140625 552.92578125 C-45.43342865 553.67337204 -45.4527948 554.42096283 -45.4727478 555.19120789 C-45.53223918 557.56485806 -45.57880592 559.93855754 -45.625 562.3125 C-45.66320789 563.92775482 -45.70226125 565.54298987 -45.7421875 567.15820312 C-45.83949805 571.10536238 -45.91930522 575.05232655 -46 579 C-40.72 579 -35.44 579 -30 579 C-29.94376465 576.58943298 -29.8875293 574.17886597 -29.82958984 571.69525146 C-29.26773473 547.99387166 -28.5494743 524.30102575 -27.71996307 500.60761738 C-27.58998179 496.88871748 -27.46120637 493.16977614 -27.33238411 489.45083594 C-27.02871958 480.68558542 -26.72304404 471.92040673 -26.41601562 463.15527344 C-26.10117968 454.16615817 -25.78998038 445.17692189 -25.4804554 436.18762231 C-25.21161198 428.38364673 -24.94050866 420.57975184 -24.66761589 412.77591681 C-24.5058969 408.15060438 -24.34500725 403.52526717 -24.18634033 398.89984894 C-24.03790235 394.57534052 -23.88662384 390.25094036 -23.73322296 385.92660522 C-23.67780416 384.35134089 -23.62335525 382.77604205 -23.56999969 381.20070648 C-23.27265973 372.44087581 -22.80743225 363.72977134 -22 355 C-25.3 355 -28.6 355 -32 355 C-32 350.38 -32 345.76 -32 341 C-28.7 341 -25.4 341 -22 341 C-22 338.36 -22 335.72 -22 333 C-22.73605469 332.896875 -23.47210937 332.79375 -24.23046875 332.6875 C-32.26398376 330.69328471 -39.28002044 322.47193704 -44 316 C-50.96956149 303.75904428 -52.90080458 290.67911437 -49.875 276.875 C-46.68279681 265.69493352 -40.84107488 257.51000973 -32 250 C-31.14325684 249.57162842 -30.28651367 249.14325684 -29.40380859 248.7019043 C-26.79497633 247.22237964 -26.79497633 247.22237964 -26.2487793 244.5480957 C-26.19117432 243.60023193 -26.13356934 242.65236816 -26.07421875 241.67578125 C-25.96303711 240.13374023 -25.96303711 240.13374023 -25.84960938 238.56054688 C-25.79611328 237.48869141 -25.74261719 236.41683594 -25.6875 235.3125 C-25.61466797 234.22904297 -25.54183594 233.14558594 -25.46679688 232.02929688 C-25.28997996 229.3534676 -25.13528811 226.67819774 -25 224 C-26.32 224 -27.64 224 -29 224 C-29 221.36 -29 218.72 -29 216 C-24.71 216 -20.42 216 -16 216 C-15.896875 214.040625 -15.79375 212.08125 -15.6875 210.0625 C-14.67819149 196.67819149 -14.67819149 196.67819149 -11 193 C-10.88989101 190.50886337 -10.84504023 188.04485175 -10.84178162 185.55271912 C-10.83437465 184.36924907 -10.83437465 184.36924907 -10.82681805 183.16187054 C-10.81136602 180.49780851 -10.80306171 177.83377072 -10.79467773 175.16967773 C-10.78510525 173.26807438 -10.77509556 171.36647318 -10.76467896 169.46487427 C-10.73755551 164.28536034 -10.71658636 159.10583723 -10.69667697 153.92629123 C-10.67486313 148.51969638 -10.64745201 143.11313008 -10.62062073 137.70655823 C-10.5706314 127.46076778 -10.5257158 117.21496154 -10.48259836 106.96914011 C-10.4332792 95.30789311 -10.3783414 83.64667473 -10.32291877 71.98545539 C-10.20900297 47.99033028 -10.10218494 23.99517773 -10 0 C-6.22996568 -2.61002376 -4.07631429 -1.66758312 0 0 Z M-11 265 C-11.46751788 267.35599235 -11.46751788 267.35599235 -11.625 270.0625 C-11.74875 271.691875 -11.8725 273.32125 -12 275 C-8.04 275 -4.08 275 0 275 C-0.144375 273.370625 -0.28875 271.74125 -0.4375 270.0625 C-0.51871094 269.14597656 -0.59992187 268.22945312 -0.68359375 267.28515625 C-0.76044976 265.03840268 -0.76044976 265.03840268 -2 264 C-6.65088715 263.69476038 -6.65088715 263.69476038 -11 265 Z M3 265 C3 268.3 3 271.6 3 275 C9.93 275.495 9.93 275.495 17 276 C16.97873538 272.59385054 16.97873538 272.59385054 16 269 C11.93447362 266.09605259 7.90939982 265.49093998 3 265 Z M-27 268 C-28.93809039 270.98167752 -29 272.46915596 -29 276 C-24.38 275.67 -19.76 275.34 -15 275 C-14.67 271.7 -14.34 268.4 -14 265 C-18.5929796 265 -22.79791339 266.15749062 -27 268 Z M20 271 C20.33 273.31 20.66 275.62 21 278 C26.445 279.485 26.445 279.485 32 281 C27.54237619 275.41459544 27.54237619 275.41459544 22 271 C21.34 271 20.68 271 20 271 Z M-36.9375 273.75 C-37.64777344 274.26046875 -38.35804688 274.7709375 -39.08984375 275.296875 C-41.36558315 277.11453641 -41.36558315 277.11453641 -43 281 C-38.05 279.515 -38.05 279.515 -33 278 C-32.67 275.69 -32.34 273.38 -32 271 C-33.91897315 271 -35.45067141 272.66378164 -36.9375 273.75 Z M-30 281 C-30.33 283.31 -30.66 285.62 -31 288 C-25.72 288 -20.44 288 -15 288 C-15 285.03 -15 282.06 -15 279 C-20.27203646 278.72963916 -24.92523206 279.73694665 -30 281 Z M-12 279 C-12 281.97 -12 284.94 -12 288 C-8.04 288 -4.08 288 0 288 C0 285.03 0 282.06 0 279 C-3.96 279 -7.92 279 -12 279 Z M4 279 C4 281.97 4 284.94 4 288 C8.95 288 13.9 288 19 288 C19 285.69 19 283.38 19 281 C17.43883181 280.66048381 15.87598662 280.32867456 14.3125 280 C13.44238281 279.814375 12.57226562 279.62875 11.67578125 279.4375 C9.06287036 279.01027953 6.64186962 278.92383799 4 279 Z M22 282 C22 283.98 22 285.96 22 288 C25.63 288 29.26 288 33 288 C30.2574043 285.2574043 29.25588615 284.49792802 25.8125 283.3125 C25.09707031 283.06113281 24.38164063 282.80976562 23.64453125 282.55078125 C23.10183594 282.36902344 22.55914063 282.18726563 22 282 Z M-40.0625 284.5 C-40.98160156 284.9640625 -41.90070312 285.428125 -42.84765625 285.90625 C-43.55792969 286.2671875 -44.26820313 286.628125 -45 287 C-45 287.33 -45 287.66 -45 288 C-41.37 288 -37.74 288 -34 288 C-34 286.02 -34 284.04 -34 282 C-36.10295783 282 -38.24209422 283.57827556 -40.0625 284.5 Z M-45 292 C-42.05321567 294.94678433 -39.75906182 296.32041919 -36 298 C-35.34 298 -34.68 298 -34 298 C-34 296.02 -34 294.04 -34 292 C-37.63 292 -41.26 292 -45 292 Z M-31 292 C-30.67 294.31 -30.34 296.62 -30 299 C-24.75614911 300.7479503 -20.52677733 301.19392201 -15 301 C-15 298.03 -15 295.06 -15 292 C-20.28 292 -25.56 292 -31 292 Z M-12 292 C-12 295.3 -12 298.6 -12 302 C-8.04 302 -4.08 302 0 302 C0 298.7 0 295.4 0 292 C-3.96 292 -7.92 292 -12 292 Z M4 292 C4 294.97 4 297.94 4 301 C6.12563103 300.88623383 8.2505261 300.75864369 10.375 300.625 C11.55835938 300.55539062 12.74171875 300.48578125 13.9609375 300.4140625 C17.10562319 300.29782654 17.10562319 300.29782654 19 298 C19 296.02 19 294.04 19 292 C14.05 292 9.1 292 4 292 Z M22 292 C22 293.98 22 295.96 22 298 C23.46224799 297.57576756 24.91973412 297.13509755 26.375 296.6875 C27.18710937 296.44386719 27.99921875 296.20023438 28.8359375 295.94921875 C31.33184629 295.08631815 31.33184629 295.08631815 33 292 C29.37 292 25.74 292 22 292 Z M167 439 C168 441 168 441 168 441 Z M204 460 C205 462 205 462 205 462 Z M137 461 C137.26676204 462.98491642 137.26676204 462.98491642 138 465 C138.99 465.33 139.98 465.66 141 466 C141 465.01 141 464.02 141 463 C139.68 462.34 138.36 461.68 137 461 Z M186 463 C187 465 187 465 187 465 Z M203 462 C202.01 462.99 201.02 463.98 200 465 C200.99 465.495 200.99 465.495 202 466 C202.66 465.67 203.32 465.34 204 465 C203.67 464.01 203.34 463.02 203 462 Z M71 528 C70.70768461 530.26427374 70.70768461 530.26427374 70.77294922 532.90869141 C70.77310028 533.92959869 70.77325134 534.95050598 70.77340698 536.00234985 C70.78372955 537.10759003 70.79405212 538.2128302 70.8046875 539.3515625 C70.8075174 540.4807309 70.81034729 541.60989929 70.81326294 542.77328491 C70.82448538 546.39062971 70.84959378 550.00772966 70.875 553.625 C70.88502713 556.0729131 70.89415344 558.52083007 70.90234375 560.96875 C70.92443147 566.97926145 70.95897546 572.98958917 71 579 C77.6 579 84.2 579 91 579 C91 561.84 91 544.68 91 527 C87.84044583 525.42022292 84.46536183 525.81552916 81 525.8125 C80.26265625 525.80025391 79.5253125 525.78800781 78.765625 525.77539062 C74.41641929 525.59891654 74.41641929 525.59891654 71 528 Z M247 527 C246.90659566 528.62674778 246.88254829 530.25754051 246.88647461 531.88696289 C246.88655014 532.92796646 246.88662567 533.96897003 246.88670349 535.04151917 C246.89186478 536.1737944 246.89702606 537.30606964 246.90234375 538.47265625 C246.9037587 539.62543564 246.90517365 540.77821503 246.90663147 541.96592712 C246.91224995 545.66481064 246.92480558 549.36363464 246.9375 553.0625 C246.94251262 555.56315017 246.94707594 558.06380129 246.95117188 560.56445312 C246.96222538 566.70965851 246.9795024 572.85481915 247 579 C253.6 579 260.2 579 267 579 C267.04932541 571.77344772 267.08568408 564.54699276 267.10986328 557.3203125 C267.11993983 554.86033421 267.13360131 552.40036794 267.15087891 549.94042969 C267.17505461 546.41077715 267.1864664 542.88128253 267.1953125 539.3515625 C267.20563507 538.24632233 267.21595764 537.14108215 267.22659302 536.00234985 C267.22674408 534.98144257 267.22689514 533.96053528 267.22705078 532.90869141 C267.23371262 531.55633896 267.23371262 531.55633896 267.24050903 530.17666626 C267.20631138 527.78953084 267.20631138 527.78953084 265 526 C262.10867823 525.82820948 259.32557935 525.7677053 256.4375 525.8125 C255.64408203 525.81314453 254.85066406 525.81378906 254.03320312 525.81445312 C250.20760201 525.47900542 250.20760201 525.47900542 247 527 Z M-528 528 C-529.50606515 531.01213029 -529.12160331 534.11282622 -529.09765625 537.4140625 C-529.0962413 538.14370209 -529.09482635 538.87334167 -529.09336853 539.62509155 C-529.08776531 541.95843585 -529.07521235 544.29168464 -529.0625 546.625 C-529.05748541 548.20572778 -529.05292243 549.78645707 -529.04882812 551.3671875 C-529.03779484 555.24482854 -529.02052811 559.12239807 -529 563 C-528.34 563.33 -527.68 563.66 -527 564 C-524.74784574 559.49569147 -525.81415553 553.30143789 -525.81469727 548.28710938 C-525.81250857 546.00892523 -525.79434196 543.73122357 -525.77539062 541.453125 C-525.77245707 540.01041833 -525.77047202 538.56770935 -525.76953125 537.125 C-525.76542236 535.80757812 -525.76131348 534.49015625 -525.75708008 533.1328125 C-525.6661298 529.90032005 -525.6661298 529.90032005 -528 528 Z M-485 528 C-487.25215426 532.50430853 -486.18584447 538.69856211 -486.18530273 543.71289062 C-486.18749143 545.99107477 -486.20565804 548.26877643 -486.22460938 550.546875 C-486.22754293 551.98958167 -486.22952798 553.43229065 -486.23046875 554.875 C-486.23457764 556.19242188 -486.23868652 557.50984375 -486.24291992 558.8671875 C-486.3338702 562.09967995 -486.3338702 562.09967995 -484 564 C-482.05956258 562.05956258 -482.83617827 558.40126265 -482.83203125 555.75390625 C-482.82870285 555.02759506 -482.82537445 554.30128387 -482.82194519 553.55296326 C-482.81687325 552.01374954 -482.81453695 550.4745248 -482.81469727 548.93530273 C-482.81251234 546.57582529 -482.79436435 544.21681639 -482.77539062 541.85742188 C-482.77245648 540.36458494 -482.77047183 538.87174577 -482.76953125 537.37890625 C-482.76234573 536.67053116 -482.75516022 535.96215607 -482.74775696 535.23231506 C-482.64722957 531.16590368 -482.64722957 531.16590368 -485 528 Z M-518 529 C-518 540.55 -518 552.1 -518 564 C-517.34 564 -516.68 564 -516 564 C-516 552.45 -516 540.9 -516 529 C-516.66 529 -517.32 529 -518 529 Z M-475 529 C-475 540.55 -475 552.1 -475 564 C-474.34 564 -473.68 564 -473 564 C-473 552.45 -473 540.9 -473 529 C-473.66 529 -474.32 529 -475 529 Z M109 530 C108.90680551 531.5348297 108.882542 533.07392082 108.88647461 534.61157227 C108.88655014 535.59251358 108.88662567 536.5734549 108.88670349 537.5841217 C108.89186478 538.6507756 108.89702606 539.7174295 108.90234375 540.81640625 C108.9037587 541.9025975 108.90517365 542.98878876 108.90663147 544.1078949 C108.91224952 547.59279075 108.92480508 551.07762342 108.9375 554.5625 C108.94251267 556.91861887 108.94707598 559.27473874 108.95117188 561.63085938 C108.96137589 567.42061711 108.98094776 573.21023745 109 579 C116.92 579 124.84 579 133 579 C133.02291919 572.20064177 133.04284345 565.40141683 133.05493164 558.60205078 C133.05996943 556.28759304 133.06679981 553.9731385 133.07543945 551.65869141 C133.08752924 548.3375571 133.09323375 545.01646475 133.09765625 541.6953125 C133.10281754 540.65569366 133.10797882 539.61607483 133.11329651 538.54495239 C133.11337204 537.58410736 133.11344757 536.62326233 133.11352539 535.63330078 C133.115746 534.78502716 133.11796661 533.93675354 133.12025452 533.06277466 C133.13232184 530.93597607 133.13232184 530.93597607 132 529 C128.35418313 528.97112488 124.70839537 528.95324415 121.0625 528.9375 C120.02158203 528.92912109 118.98066406 528.92074219 117.90820312 528.91210938 C116.91884766 528.90888672 115.92949219 528.90566406 114.91015625 528.90234375 C113.99371338 528.89710693 113.07727051 528.89187012 112.13305664 528.88647461 C110.01636977 528.76078789 110.01636977 528.76078789 109 530 Z M147 530 C146.90680551 531.5348297 146.882542 533.07392082 146.88647461 534.61157227 C146.88655014 535.59251358 146.88662567 536.5734549 146.88670349 537.5841217 C146.89186478 538.6507756 146.89702606 539.7174295 146.90234375 540.81640625 C146.9037587 541.9025975 146.90517365 542.98878876 146.90663147 544.1078949 C146.91224952 547.59279075 146.92480508 551.07762342 146.9375 554.5625 C146.94251267 556.91861887 146.94707598 559.27473874 146.95117188 561.63085938 C146.96137589 567.42061711 146.98094776 573.21023745 147 579 C160.53 579 174.06 579 188 579 C188.02290338 572.03991698 188.04283219 565.07996367 188.05493164 558.11987305 C188.05997341 555.75007688 188.06680665 553.38028385 188.07543945 551.01049805 C188.0875119 547.61245961 188.09322971 544.21446215 188.09765625 540.81640625 C188.10281754 539.74975235 188.10797882 538.68309845 188.11329651 537.5841217 C188.11337204 536.60318039 188.11344757 535.62223907 188.11352539 534.61157227 C188.115746 533.74331314 188.11796661 532.87505402 188.12025452 531.98048401 C188.21954667 529.99856319 188.21954667 529.99856319 187 529 C184.12735944 528.89893126 181.27926372 528.86030328 178.40625 528.8671875 C177.54439087 528.86623077 176.68253174 528.86527405 175.79455566 528.86428833 C173.96866788 528.8636065 172.14277769 528.86546096 170.31689453 528.86962891 C167.51198922 528.87497714 164.70724405 528.86968401 161.90234375 528.86328125 C160.13281214 528.86394203 158.36328064 528.86522319 156.59375 528.8671875 C155.74897095 528.86516327 154.90419189 528.86313904 154.03381348 528.86105347 C150.2081314 528.50075489 150.2081314 528.50075489 147 530 Z M203 530 C203 546.17 203 562.34 203 579 C211.25 579 219.5 579 228 579 C228 562.83 228 546.66 228 530 C225.57108818 528.78554409 223.99280557 528.87075802 221.28125 528.8671875 C219.88326172 528.86525391 219.88326172 528.86525391 218.45703125 528.86328125 C216.99330078 528.86908203 216.99330078 528.86908203 215.5 528.875 C214.52417969 528.87113281 213.54835938 528.86726562 212.54296875 528.86328125 C211.61097656 528.86457031 210.67898438 528.86585938 209.71875 528.8671875 C208.86216797 528.86831543 208.00558594 528.86944336 207.12304688 528.87060547 C204.94508466 528.86413554 204.94508466 528.86413554 203 530 Z M-425 537 C-425.33 538.32 -425.66 539.64 -426 541 C-419.4 541 -412.8 541 -406 541 C-406.52763234 536.11249172 -406.52763234 536.11249172 -409.125 533.6875 C-415.78905048 529.77599211 -420.13252946 531.90074515 -425 537 Z M-86 536 C-86.33 537.65 -86.66 539.3 -87 541 C-80.4 541 -73.8 541 -67 541 C-68.44041222 535.40425736 -68.44041222 535.40425736 -70.625 533.125 C-76.51798094 530.33358798 -81.71025629 531.19028735 -86 536 Z M-358 536 C-358.99 536.495 -358.99 536.495 -360 537 C-360 550.86 -360 564.72 -360 579 C-358.02 579 -356.04 579 -354 579 C-354 565.47 -354 551.94 -354 538 C-355.32 537.34 -356.64 536.68 -358 536 Z M-340 536 C-342.44429467 538.00042836 -342.44429467 538.00042836 -342.22705078 541.99072266 C-342.22673337 543.71520169 -342.21539124 545.43970033 -342.1953125 547.1640625 C-342.1924826 548.07127045 -342.18965271 548.97847839 -342.18673706 549.91317749 C-342.17552153 552.81725123 -342.15041463 555.72101912 -342.125 558.625 C-342.11497197 560.59114139 -342.10584581 562.5572876 -342.09765625 564.5234375 C-342.07557772 569.34907659 -342.04103865 574.1744864 -342 579 C-340.02 579 -338.04 579 -336 579 C-336 565.14 -336 551.28 -336 537 C-337.32 536.67 -338.64 536.34 -340 536 Z M-322 536 C-323.4612027 537.23233585 -323.4612027 537.23233585 -323.11352539 540.96899414 C-323.1133662 542.74105607 -323.10766785 544.5131226 -323.09765625 546.28515625 C-323.0962413 547.21597519 -323.09482635 548.14679413 -323.09336853 549.1058197 C-323.08775172 552.09141191 -323.0751964 555.07693029 -323.0625 558.0625 C-323.05748716 560.08137913 -323.05292388 562.10025943 -323.04882812 564.11914062 C-323.03777683 569.07945572 -323.02050095 574.03971532 -323 579 C-321.35 579 -319.7 579 -318 579 C-318 565.14 -318 551.28 -318 537 C-319.32 536.67 -320.64 536.34 -322 536 Z M-173 536 C-175.44429467 538.00042836 -175.44429467 538.00042836 -175.22705078 541.99072266 C-175.22673337 543.71520169 -175.21539124 545.43970033 -175.1953125 547.1640625 C-175.1924826 548.07127045 -175.18965271 548.97847839 -175.18673706 549.91317749 C-175.17552153 552.81725123 -175.15041463 555.72101912 -175.125 558.625 C-175.11497197 560.59114139 -175.10584581 562.5572876 -175.09765625 564.5234375 C-175.07557772 569.34907659 -175.04103865 574.1744864 -175 579 C-173.02 579 -171.04 579 -169 579 C-169 565.14 -169 551.28 -169 537 C-170.32 536.67 -171.64 536.34 -173 536 Z M-155 536 C-156.4612027 537.23233585 -156.4612027 537.23233585 -156.11352539 540.96899414 C-156.1133662 542.74105607 -156.10766785 544.5131226 -156.09765625 546.28515625 C-156.0962413 547.21597519 -156.09482635 548.14679413 -156.09336853 549.1058197 C-156.08775172 552.09141191 -156.0751964 555.07693029 -156.0625 558.0625 C-156.05748716 560.08137913 -156.05292388 562.10025943 -156.04882812 564.11914062 C-156.03777683 569.07945572 -156.02050095 574.03971532 -156 579 C-154.35 579 -152.7 579 -151 579 C-151 565.14 -151 551.28 -151 537 C-152.32 536.67 -153.64 536.34 -155 536 Z M-136 536 C-136.99 536.495 -136.99 536.495 -138 537 C-138 550.86 -138 564.72 -138 579 C-136.02 579 -134.04 579 -132 579 C-132 565.47 -132 551.94 -132 538 C-133.32 537.34 -134.64 536.68 -136 536 Z M-275 554 C-275 562.25 -275 570.5 -275 579 C-270.71 579 -266.42 579 -262 579 C-262 570.75 -262 562.5 -262 554 C-268.26569749 551.49372101 -268.73430251 551.49372101 -275 554 Z M-253 554 C-253 562.25 -253 570.5 -253 579 C-248.71 579 -244.42 579 -240 579 C-240 570.75 -240 562.5 -240 554 C-246.26569749 551.49372101 -246.73430251 551.49372101 -253 554 Z M-231 554 C-231 562.25 -231 570.5 -231 579 C-226.71 579 -222.42 579 -218 579 C-218 570.75 -218 562.5 -218 554 C-224.26569749 551.49372101 -224.73430251 551.49372101 -231 554 Z M-87 555 C-87 562.92 -87 570.84 -87 579 C-80.4 579 -73.8 579 -67 579 C-67 571.08 -67 563.16 -67 555 C-73.6 555 -80.2 555 -87 555 Z M-426 556 C-426 563.59 -426 571.18 -426 579 C-419.4 579 -412.8 579 -406 579 C-406 571.41 -406 563.82 -406 556 C-412.6 556 -419.2 556 -426 556 Z M-156 597 C-156 613.17 -156 629.34 -156 646 C-145.8215625 646.0928125 -145.8215625 646.0928125 -135.4375 646.1875 C-132.24404907 646.22846802 -132.24404907 646.22846802 -128.98608398 646.27026367 C-127.28109299 646.27903315 -125.57609568 646.28667599 -123.87109375 646.29296875 C-122.5645282 646.3159906 -122.5645282 646.3159906 -121.23156738 646.33947754 C-115.70890487 646.34182794 -111.89009329 645.62169406 -107 643 C-104.07576241 639.88710192 -103.77831391 637.12721035 -103.625 633 C-103.75930202 628.89768368 -104.21573751 626.18201427 -107 623 C-109.06700655 621.67206394 -109.06700655 621.67206394 -111 621 C-110.01 620.46375 -109.02 619.9275 -108 619.375 C-105.37209392 617.23167235 -105.01713126 616.11248202 -104.49609375 612.69140625 C-104.20447086 605.90158166 -104.20447086 605.90158166 -106.34765625 599.62890625 C-109.10192951 596.9137007 -111.79801898 596.87618493 -115.47143555 596.88647461 C-116.38469604 596.88659546 -117.29795654 596.88671631 -118.2388916 596.88684082 C-119.67331604 596.89451477 -119.67331604 596.89451477 -121.13671875 596.90234375 C-122.01831665 596.90335083 -122.89991455 596.90435791 -123.80822754 596.90539551 C-127.10133159 596.91062737 -130.3944171 596.92458864 -133.6875 596.9375 C-141.050625 596.958125 -148.41375 596.97875 -156 597 Z M-82 597 C-82 613.17 -82 629.34 -82 646 C-65.83 646 -49.66 646 -33 646 C-33 643.03 -33 640.06 -33 637 C-45.54 637 -58.08 637 -71 637 C-71 632.71 -71 628.42 -71 624 C-63.74 624 -56.48 624 -49 624 C-49 621.69 -49 619.38 -49 617 C-56.26 617 -63.52 617 -71 617 C-71 612.71 -71 608.42 -71 604 C-58.46 604 -45.92 604 -33 604 C-33 601.69 -33 599.38 -33 597 C-49.17 597 -65.34 597 -82 597 Z M-11 597 C-11 613.17 -11 629.34 -11 646 C-7.7 646 -4.4 646 -1 646 C-1 639.73 -1 633.46 -1 627 C5.60471708 626.5107617 9.84951134 626.74730787 14.99609375 631.04296875 C19.58827143 635.23000332 24.05491159 639.61458646 27.984375 644.43359375 C31.01120278 646.78583782 33.490587 646.38923752 37.25 646.25 C38.51328125 646.21390625 39.7765625 646.1778125 41.078125 646.140625 C42.52445313 646.07101562 42.52445313 646.07101562 44 646 C39.93512864 641.80884137 35.61623098 637.98900401 31.1875 634.1875 C30.49462891 633.59001953 29.80175781 632.99253906 29.08789062 632.37695312 C27.39342817 630.91620963 25.69744286 629.45727785 24 628 C24.71655762 627.95407715 25.43311523 627.9081543 26.17138672 627.86083984 C31.1304532 627.51920029 34.99608939 627.22896017 39 624 C40.81464705 620.3707059 40.22758249 616.12092113 40.25 612.125 C40.270625 611.21363281 40.29125 610.30226563 40.3125 609.36328125 C40.31765625 608.48285156 40.3228125 607.60242188 40.328125 606.6953125 C40.3374707 605.89109863 40.34681641 605.08688477 40.35644531 604.25830078 C39.90876415 601.42196467 38.95685604 600.07665185 37 598 C34.16987873 597.05662624 32.45700082 596.87827171 29.52856445 596.88647461 C28.61530396 596.88659546 27.70204346 596.88671631 26.7611084 596.88684082 C25.32668396 596.89451477 25.32668396 596.89451477 23.86328125 596.90234375 C22.98168335 596.90335083 22.10008545 596.90435791 21.19177246 596.90539551 C17.89866841 596.91062737 14.6055829 596.92458864 11.3125 596.9375 C3.949375 596.958125 -3.41375 596.97875 -11 597 Z M64 597 C64 613.17 64 629.34 64 646 C79.51 646 95.02 646 111 646 C111 643.03 111 640.06 111 637 C98.79 637 86.58 637 74 637 C74 623.8 74 610.6 74 597 C70.7 597 67.4 597 64 597 Z M128 597 C128 613.17 128 629.34 128 646 C131.3 646 134.6 646 138 646 C138 629.83 138 613.66 138 597 C134.7 597 131.4 597 128 597 Z M164 597 C164 613.17 164 629.34 164 646 C166.97 646 169.94 646 173 646 C173.33 634.78 173.66 623.56 174 612 C175.918125 613.794375 177.83625 615.58875 179.8125 617.4375 C184.79546142 622.06632328 189.9148819 626.43974011 195.22265625 630.6953125 C198.95005289 633.78837019 202.49654831 637.05940395 206.02954102 640.37133789 C211.19054337 645.18914891 212.3791592 646 220 646 C220 629.83 220 613.66 220 597 C217.03 597 214.06 597 211 597 C210.67 608.22 210.34 619.44 210 631 C207.69 628.69 205.38 626.38 203 624 C201.27541351 622.53210774 199.52718205 621.09125576 197.75 619.6875 C193.85542377 616.55479026 190.11178173 613.32594652 186.4375 609.9375 C181.14159074 605.10229382 181.14159074 605.10229382 175.75 600.375 C175.00234375 599.72273437 174.2546875 599.07046875 173.484375 598.3984375 C170.45848607 596.427725 170.45848607 596.427725 164 597 Z " fill="#000000" transform="translate(568,271)"/>
<path d="M0 0 C3.93274531 -0.02296866 7.86531945 -0.04287826 11.7980957 -0.05493164 C13.79314768 -0.06242729 15.78817786 -0.07513345 17.78320312 -0.08789062 C19.03681641 -0.09111328 20.29042969 -0.09433594 21.58203125 -0.09765625 C22.73936768 -0.10289307 23.8967041 -0.10812988 25.08911133 -0.11352539 C28 0 28 0 31 1 C31.02685938 3.14576637 31.04633088 5.29162645 31.0625 7.4375 C31.07410156 8.63246094 31.08570313 9.82742188 31.09765625 11.05859375 C31 14 31 14 30 15 C27.78144736 15.08783542 25.56011504 15.10694609 23.33984375 15.09765625 C22.34314415 15.09553383 22.34314415 15.09553383 21.3263092 15.09336853 C19.19666101 15.08775518 17.06711661 15.07520054 14.9375 15.0625 C13.49674631 15.05748671 12.05599097 15.05292351 10.61523438 15.04882812 C7.07675042 15.03863076 3.53849187 15.0190583 0 15 C0 10.05 0 5.1 0 0 Z " fill="#000000" transform="translate(567,875)"/>
<path d="M0 0 C4.23610959 -0.04587844 8.47135957 -0.08571186 12.70751953 -0.10986328 C14.14895547 -0.11992963 15.59037095 -0.1335838 17.03173828 -0.15087891 C19.10193934 -0.17510012 21.17187076 -0.18647641 23.2421875 -0.1953125 C25.11173096 -0.21102295 25.11173096 -0.21102295 27.01904297 -0.22705078 C30 0 30 0 32 2 C32.265625 4.3125 32.265625 4.3125 32.25 7 C32.25773437 8.3303125 32.25773437 8.3303125 32.265625 9.6875 C32 12 32 12 30 14 C27.01904297 14.22705078 27.01904297 14.22705078 23.2421875 14.1953125 C22.57913605 14.1924826 21.91608459 14.18965271 21.23294067 14.18673706 C19.11344417 14.17553435 16.99436896 14.15043051 14.875 14.125 C13.43880818 14.11497028 12.00260975 14.10584441 10.56640625 14.09765625 C7.04397762 14.07729539 3.52246083 14.0381494 0 14 C0 9.38 0 4.76 0 0 Z " fill="#000000" transform="translate(422,895)"/>
<path d="M0 0 C4.23610959 -0.04587844 8.47135957 -0.08571186 12.70751953 -0.10986328 C14.14895547 -0.11992963 15.59037095 -0.1335838 17.03173828 -0.15087891 C19.10193934 -0.17510012 21.17187076 -0.18647641 23.2421875 -0.1953125 C25.11173096 -0.21102295 25.11173096 -0.21102295 27.01904297 -0.22705078 C30 0 30 0 32 2 C32.265625 4.09375 32.265625 4.09375 32.25 6.5 C32.25773437 7.69109375 32.25773437 7.69109375 32.265625 8.90625 C32 11 32 11 30 13 C27.01904297 13.22705078 27.01904297 13.22705078 23.2421875 13.1953125 C22.57913605 13.1924826 21.91608459 13.18965271 21.23294067 13.18673706 C19.11344417 13.17553435 16.99436896 13.15043051 14.875 13.125 C13.43880818 13.11497028 12.00260975 13.10584441 10.56640625 13.09765625 C7.04397762 13.07729539 3.52246083 13.0381494 0 13 C0 8.71 0 4.42 0 0 Z " fill="#000000" transform="translate(422,875)"/>
</svg>
