<?xml version="1.0" standalone="no"?>
<!DOCTYPE svg PUBLIC "-//W3C//DTD SVG 20010904//EN"
 "http://www.w3.org/TR/2001/REC-SVG-20010904/DTD/svg10.dtd">
<svg version="1.0" xmlns="http://www.w3.org/2000/svg"
 width="225.000000pt" height="225.000000pt" viewBox="0 0 225.000000 225.000000"
 preserveAspectRatio="xMidYMid meet">
<metadata>
Created by potrace 1.10, written by Peter Selinger 2001-2011
</metadata>
<g transform="translate(0.000000,225.000000) scale(0.100000,-0.100000)"
fill="#000000" stroke="none">
<path d="M375 2240 c-65 -7 -136 -42 -176 -88 -48 -54 -145 -263 -169 -362
-21 -90 -27 -200 -10 -200 6 0 10 -11 10 -25 0 -14 -4 -25 -10 -25 -18 0 -11
-121 12 -215 31 -128 138 -339 193 -380 l40 -30 -33 -65 c-44 -87 -58 -172
-42 -253 23 -119 48 -154 260 -359 117 -113 212 -197 238 -210 33 -15 62 -20
121 -20 92 0 130 16 210 88 l53 47 -188 188 -187 188 137 398 c75 219 142 403
149 410 9 10 20 9 52 -2 51 -18 129 -18 180 0 31 11 43 12 52 2 7 -7 74 -191
149 -410 l137 -398 -187 -188 -188 -188 53 -47 c80 -72 118 -88 210 -88 59 0
88 5 121 21 25 12 122 97 238 209 212 205 237 240 260 359 16 81 2 166 -42
253 l-33 65 40 30 c50 38 132 189 175 323 34 106 56 283 33 275 -8 -3 -13 3
-13 17 0 17 3 20 13 12 17 -14 5 148 -18 238 -25 99 -128 307 -174 350 -62 59
-120 81 -213 81 -70 0 -89 -4 -142 -30 -52 -26 -86 -58 -235 -220 -95 -105
-179 -195 -186 -201 -8 -7 -23 -5 -48 5 -47 19 -137 19 -184 0 -19 -8 -37 -15
-38 -15 -1 0 -76 80 -165 178 -90 97 -177 190 -194 205 -68 62 -156 88 -261
77z m156 -88 c28 -14 75 -56 129 -115 47 -52 130 -142 184 -201 67 -72 96
-110 89 -117 -12 -12 -578 93 -621 115 -61 32 -92 87 -92 163 0 79 53 147 138
174 43 13 124 5 173 -19z m1412 -5 c25 -15 52 -42 66 -67 46 -83 13 -203 -69
-245 -44 -23 -611 -128 -623 -116 -7 7 21 44 85 113 52 57 133 145 181 197 47
51 96 100 108 109 70 49 177 52 252 9z m-1763 -156 c0 -34 -3 -40 -20 -38 -11
1 -20 7 -20 14 0 13 29 63 36 63 2 0 4 -18 4 -39z m1919 2 c10 -21 9 -28 -1
-34 -23 -15 -28 -10 -28 26 0 42 12 45 29 8z m-1863 -192 c49 -40 83 -49 394
-107 140 -26 256 -48 257 -48 1 -1 -1 -13 -4 -28 -4 -20 -12 -27 -36 -32 -18
-3 -61 -10 -97 -16 l-66 -11 4 -35 c5 -40 -2 -38 99 -19 43 8 81 15 84 15 4 0
9 -12 12 -27 3 -16 17 -46 32 -67 l26 -39 -44 -46 c-24 -25 -104 -111 -177
-191 -73 -80 -148 -155 -166 -167 -111 -76 -269 -38 -340 83 -42 72 -99 211
-120 294 -14 57 -19 108 -18 210 1 134 15 207 64 334 l11 30 23 -50 c13 -28
41 -65 62 -83z m1898 30 c73 -233 55 -443 -58 -685 -27 -58 -59 -109 -84 -134
-78 -78 -207 -91 -295 -30 -18 13 -94 88 -167 168 -73 80 -153 166 -177 191
l-44 46 26 39 c15 21 29 51 32 67 6 32 0 31 163 12 69 -8 128 -15 133 -15 4 0
7 15 7 34 l0 33 -87 11 c-49 6 -116 14 -150 18 -56 6 -62 9 -66 33 -3 14 -5
26 -4 27 1 0 117 22 257 48 335 62 352 67 405 120 23 24 49 60 56 80 7 20 16
33 20 28 4 -4 19 -45 33 -91z m-924 -111 c125 -64 128 -243 6 -315 -83 -49
-190 -24 -243 57 -57 85 -26 210 64 257 50 27 123 27 173 1z m-305 -467 c-8
-27 -15 -51 -15 -55 0 -13 -27 -9 -39 6 -10 12 -5 23 25 55 20 23 38 41 40 41
2 0 -3 -21 -11 -47z m497 -45 c-7 -7 -5 -16 6 -29 9 -10 58 -62 107 -117 50
-54 108 -113 131 -130 36 -28 44 -42 68 -123 l27 -90 32 7 c18 3 34 8 36 10 2
2 -8 35 -22 74 l-26 70 37 -6 c20 -3 56 -1 79 4 l43 10 37 -76 c34 -67 38 -84
38 -151 0 -112 -26 -158 -175 -306 l-120 -120 0 37 c0 28 -124 404 -287 867
-9 24 -24 46 -33 48 -16 4 -40 62 -40 94 0 8 17 -3 36 -24 25 -27 33 -42 26
-49z m-697 -450 c-81 -232 -150 -444 -154 -470 l-6 -48 -118 117 c-145 145
-172 191 -172 304 0 67 4 84 38 151 l37 76 42 -10 c23 -5 53 -6 65 -3 13 3 23
4 23 2 0 -2 -13 -42 -29 -89 l-29 -87 30 -10 c17 -6 32 -11 34 -11 1 0 19 49
39 109 31 95 40 110 65 121 28 12 148 128 231 226 24 28 45 50 47 48 2 -1 -62
-193 -143 -426z m248 -630 c-49 -54 -156 -73 -228 -39 -117 54 -133 142 -59
340 3 10 53 -33 154 -134 140 -139 148 -150 133 -167z m657 228 c42 -127 11
-224 -84 -267 -73 -33 -147 -23 -215 28 l-33 26 148 148 c82 82 151 145 155
141 4 -4 17 -38 29 -76z m-1030 -140 c0 -8 3 -22 7 -31 5 -15 3 -16 -15 -6
-25 13 -30 51 -7 51 8 0 15 -6 15 -14z m1120 -5 c0 -18 -26 -48 -34 -40 -2 2
-2 16 1 32 6 30 33 37 33 8z"/>
<path d="M538 1536 c-61 -8 -68 -11 -68 -32 0 -48 5 -50 80 -40 73 10 77 14
62 61 -7 19 -12 19 -74 11z"/>
<path d="M1129 1638 c10 -53 31 -78 68 -78 26 0 33 4 33 20 0 26 -49 78 -81
85 -25 6 -26 5 -20 -27z"/>
</g>
</svg>
