<?xml version="1.0" encoding="UTF-8"?>
<svg version="1.1" xmlns="http://www.w3.org/2000/svg" width="150" height="150">
<path d="M0 0 C1.78309991 0.2447392 3.56592795 0.49156114 5.34765625 0.74609375 C9.7717393 1.16960685 14.19343987 1.01659795 18.6328125 0.9375 C21.8689457 0.99756744 24.82733908 1.38652733 28 2 C29.0828125 2.185625 29.0828125 2.185625 30.1875 2.375 C32 3 32 3 33.3125 4.5625 C35.03509779 6.35180697 35.03509779 6.35180697 38.1875 5.9375 C42.87605409 6.01436154 46.12420624 7.40983539 50 10 C50.495 10.99 50.495 10.99 51 12 C52.66500443 12.34153937 54.33178677 12.67449498 56 13 C56.99 13.99 56.99 13.99 58 15 C57.6442194 18.37991574 56.64284201 21.04288438 55 24 C54.34 24 53.68 24 53 24 C53.99 25.98 53.99 25.98 55 28 C55.66 28 56.32 28 57 28 C57.103125 28.639375 57.20625 29.27875 57.3125 29.9375 C58.23903073 34.06477326 59.61660629 38.00642949 61 42 C59.35 41.67 57.7 41.34 56 41 C56.50660156 41.69222656 56.50660156 41.69222656 57.0234375 42.3984375 C63.57145168 51.97443512 63.29325529 61.6933794 63 73 C61.515 72.505 61.515 72.505 60 72 C59.81824219 73.06541016 59.81824219 73.06541016 59.6328125 74.15234375 C59.46523437 75.07144531 59.29765625 75.99054688 59.125 76.9375 C58.96257812 77.85402344 58.80015625 78.77054687 58.6328125 79.71484375 C58.42398438 80.46894531 58.21515625 81.22304687 58 82 C57.01 82.495 57.01 82.495 56 83 C55.12145672 85.47300589 55.12145672 85.47300589 54.4375 88.375 C53.6945621 91.29285972 52.95250536 94.14248391 52 97 C51.34 97 50.68 97 50 97 C47.68489378 99.59291897 46.80240791 101.67573865 46 105 C45.01 105.495 45.01 105.495 44 106 C43.34 106.99 42.68 107.98 42 109 C40 108 40 108 39 106 C39 104.68 39 103.36 39 102 C38.61328125 102.66386719 38.2265625 103.32773438 37.828125 104.01171875 C28.06517731 120.56523154 28.06517731 120.56523154 21.875 122.75 C21.25625 122.8325 20.6375 122.915 20 123 C16.79968558 123.81831948 16.79968558 123.81831948 14.4375 126.5625 C13.633125 127.366875 12.82875 128.17125 12 129 C11.34 129 10.68 129 10 129 C9.855625 130.11375 9.71125 131.2275 9.5625 132.375 C9 136 9 136 8 138 C5.97467576 136.98733788 3.95050869 135.97450448 1.9375 134.9375 C-0.13410175 133.88388051 -0.13410175 133.88388051 -3 133 C-5.12320215 131.16965332 -6.8027109 129.29994826 -8.34375 126.95703125 C-9.79128572 124.78187785 -11.13518108 122.8338859 -13 121 C-16.62535976 120.7496423 -16.62535976 120.7496423 -20 121 C-21.625 118.875 -21.625 118.875 -23 116 C-25.99836342 111.97588068 -28.10084092 109.39975974 -33 108 C-32.505 106.515 -32.505 106.515 -32 105 C-33.485 105.495 -33.485 105.495 -35 106 C-35.27070312 105.25878906 -35.54140625 104.51757812 -35.8203125 103.75390625 C-36.94145488 101.13666989 -38.18445635 99.21053667 -39.875 96.9375 C-45.88036595 88.06894002 -47.62575462 78.55371975 -48 68 C-49.32 69.65 -50.64 71.3 -52 73 C-54.28096776 70.71903224 -53.3061454 64.90642681 -53.33007812 61.72802734 C-53.2605512 56.20874864 -52.37606416 51.86757231 -49.875 46.8828125 C-48.78927853 44.89260593 -48.78927853 44.89260593 -49 42 C-49.66 42 -50.32 42 -51 42 C-50.70774525 36.44715979 -48.23296807 32.79685226 -45.27734375 28.26953125 C-43.75476257 25.99832235 -43.75476257 25.99832235 -44 23 C-44.66 22.38125 -45.32 21.7625 -46 21.125 C-48 19 -48 19 -48.125 16.3671875 C-48.08375 15.58601563 -48.0425 14.80484375 -48 14 C-33.40192333 5.38348044 -33.40192333 5.38348044 -24 6 C-22.6256709 4.70896357 -21.29103643 3.3743291 -20 2 C-14.40835737 0.82281208 -8.9213485 0.93708174 -3.22265625 1.0625 C-1.02643696 1.25542088 -1.02643696 1.25542088 0 0 Z M-33 7 C-33 7.33 -33 7.66 -33 8 C-30.69 8 -28.38 8 -26 8 C-26 7.67 -26 7.34 -26 7 C-28.31 7 -30.62 7 -33 7 Z M36 7 C36 7.33 36 7.66 36 8 C37.98 8 39.96 8 42 8 C42 7.67 42 7.34 42 7 C40.02 7 38.04 7 36 7 Z M32 8 C32.33 8.66 32.66 9.32 33 10 C33.33 9.34 33.66 8.68 34 8 C33.34 8 32.68 8 32 8 Z M57 68 C57 70.64 57 73.28 57 76 C57.33 76 57.66 76 58 76 C58 73.36 58 70.72 58 68 C57.67 68 57.34 68 57 68 Z M59 69 C60 71 60 71 60 71 Z M-31 102 C-30 105 -30 105 -30 105 Z M-30 105 C-29 108 -29 108 -29 108 Z M-16 115 C-15.67 116.65 -15.34 118.3 -15 120 C-14.67 119.34 -14.34 118.68 -14 118 C-14.66 117.01 -15.32 116.02 -16 115 Z M20 117 C21 119 21 119 21 119 Z " fill="#0B5289" transform="translate(71,7)"/>
<path d="M0 0 C1.9375 0.375 1.9375 0.375 4 1 C5.4807848 3.9615696 5.35314037 6.83506295 5.5625 10.125 C5.64628906 11.40632813 5.73007813 12.68765625 5.81640625 14.0078125 C5.87699219 14.99523438 5.93757813 15.98265625 6 17 C6.99 17 7.98 17 9 17 C8.97679687 16.26394531 8.95359375 15.52789062 8.9296875 14.76953125 C8.91164062 13.79371094 8.89359375 12.81789063 8.875 11.8125 C8.85179687 10.84957031 8.82859375 9.88664062 8.8046875 8.89453125 C9.01249735 5.8147892 9.54255449 3.7170259 11 1 C11.99 0.67 12.98 0.34 14 0 C14.495 1.485 14.495 1.485 15 3 C15.99 2.34 16.98 1.68 18 1 C21.1875 0.875 21.1875 0.875 24 1 C23.34 2.32 22.68 3.64 22 5 C23.051875 5.05994141 23.051875 5.05994141 24.125 5.12109375 C31.42667885 5.92467525 34.81381298 7.94664417 39.44140625 13.61328125 C41.00637734 16.0097658 42.0427462 18.30921196 43 21 C42.01 21 41.02 21 40 21 C40.23845748 27.80796112 40.53524997 31.69810934 45 37 C46.5548217 42.00458234 46.40136931 45.86811462 44.0625 50.5625 C43.39637065 51.72088766 42.71621136 52.87189027 42 54 C40.02 53.67 38.04 53.34 36 53 C37.2375 51.948125 37.2375 51.948125 38.5 50.875 C41.2056249 48.23623861 41.2056249 48.23623861 41.625 45 C40.77857538 40.93716183 39.24236301 39.53750149 36 37 C32.83298577 35.66436389 32.83298577 35.66436389 30 35 C30.495 35.515625 30.99 36.03125 31.5 36.5625 C33.60248778 39.97904264 33.54531303 42.04648052 33 46 C31.58119479 48.572992 30.210705 49.94002489 28 52 C26.68 52 25.36 52 24 52 C24 52.66 24 53.32 24 54 C28.29 54 32.58 54 37 54 C37.33 54.99 37.66 55.98 38 57 C35.69 56.67 33.38 56.34 31 56 C31.66 56.33 32.32 56.66 33 57 C33 57.66 33 58.32 33 59 C26.07 58.505 26.07 58.505 19 58 C19 58.66 19 59.32 19 60 C16.36 60 13.72 60 11 60 C10.67 58.35 10.34 56.7 10 55 C10.62648437 54.73445313 11.25296875 54.46890625 11.8984375 54.1953125 C12.71570313 53.84210938 13.53296875 53.48890625 14.375 53.125 C15.18710938 52.77695313 15.99921875 52.42890625 16.8359375 52.0703125 C19.13802299 51.07553933 19.13802299 51.07553933 21 49 C21.28062326 46.85856259 21.28062326 46.85856259 21.1875 44.5 C21.17783203 43.30890625 21.17783203 43.30890625 21.16796875 42.09375 C21.12675836 39.94163609 21.12675836 39.94163609 20 38 C19.7569164 33.05730019 19.74504879 29.50990242 22 25 C22.66 26.32 23.32 27.64 24 29 C25.15811388 27.94729537 25.15811388 27.94729537 26 26 C28.56634394 25.35841401 31.13823206 24.97800854 33.75 24.5625 C34.86375 24.2840625 34.86375 24.2840625 36 24 C36.33 23.34 36.66 22.68 37 22 C35.68 22 34.36 22 33 22 C33 21.34 33 20.68 33 20 C30.36 20 27.72 20 25 20 C25 19.34 25 18.68 25 18 C24.34 17.34 23.68 16.68 23 16 C24.32 15.67 25.64 15.34 27 15 C27.33 13.68 27.66 12.36 28 11 C27.24074219 11.3609375 26.48148438 11.721875 25.69921875 12.09375 C24.20841797 12.78984375 24.20841797 12.78984375 22.6875 13.5 C21.20830078 14.19609375 21.20830078 14.19609375 19.69921875 14.90625 C17 16 17 16 14 16 C14.02320313 16.62648438 14.04640625 17.25296875 14.0703125 17.8984375 C14.08835938 18.71570313 14.10640625 19.53296875 14.125 20.375 C14.14820313 21.18710937 14.17140625 21.99921875 14.1953125 22.8359375 C14 25 14 25 12 27 C12 26.34 12 25.68 12 25 C10.700625 25.12375 9.40125 25.2475 8.0625 25.375 C6.96615234 25.47941406 6.96615234 25.47941406 5.84765625 25.5859375 C5.23792969 25.72257812 4.62820312 25.85921875 4 26 C3.67 26.66 3.34 27.32 3 28 C3.886875 27.79375 4.77375 27.5875 5.6875 27.375 C9.43480615 26.95077666 10.9079662 26.82721949 14 29 C16.90196866 34.62331686 17.50642351 40.78093626 18 47 C10.4367816 50.10285883 3.59084981 49.58411908 -4 47 C-3.84402344 46.154375 -3.68804687 45.30875 -3.52734375 44.4375 C-2.42475484 38.01181629 -1.46237183 32.38707088 -3 26 C-4.87613927 23.35634921 -5.85723843 23.04758719 -9 22 C-11.39490986 21.93029948 -13.79167691 21.91551997 -16.1875 21.9375 C-17.45980469 21.94652344 -18.73210938 21.95554687 -20.04296875 21.96484375 C-21.01878906 21.97644531 -21.99460937 21.98804687 -23 22 C-23 22.66 -23 23.32 -23 24 C-22.05125 24.0825 -21.1025 24.165 -20.125 24.25 C-17 25 -17 25 -15.625 27.0625 C-15.315625 28.0215625 -15.315625 28.0215625 -15 29 C-11.28263359 29.34900558 -11.28263359 29.34900558 -8.1875 27.5 C-7.795625 27.005 -7.40375 26.51 -7 26 C-4.90403834 30.19192331 -5.07648284 32.4663703 -6 37 C-7.51533079 44.37422807 -7.51533079 44.37422807 -4.9375 51.0625 C-1.98371491 53.01074123 0.58109341 54.12539599 4 55 C3.67 56.65 3.34 58.3 3 60 C0.03 60 -2.94 60 -6 60 C-6 59.34 -6 58.68 -6 58 C-11.91492272 58.45224761 -17.35199888 59.1582605 -23 61 C-23.495 59.515 -23.495 59.515 -24 58 C-20.57767028 56.85922343 -17.91326783 56.90184883 -14.3125 56.9375 C-12.54326172 56.95103516 -12.54326172 56.95103516 -10.73828125 56.96484375 C-9.83464844 56.97644531 -8.93101563 56.98804688 -8 57 C-8 56.34 -8 55.68 -8 55 C-13.94 55.66 -19.88 56.32 -26 57 C-26 56.34 -26 55.68 -26 55 C-22.04 54.01 -18.08 53.02 -14 52 C-15.2375 50.700625 -15.2375 50.700625 -16.5 49.375 C-18.46907287 46.99756827 -18.98439273 46.09559454 -19.5 42.9375 C-18.94678393 39.68735556 -17.89014904 37.67771114 -16 35 C-21.40041074 36.66477318 -21.40041074 36.66477318 -26 39.8125 C-27.38759753 42.8478696 -27.53948041 44.69568251 -27 48 C-24.62499209 50.87640616 -24.62499209 50.87640616 -22 53 C-24.97 53.495 -24.97 53.495 -28 54 C-31.25850439 48.86750596 -32.44778035 45.13651885 -31.65234375 39.078125 C-31 37 -31 37 -29.484375 35.125 C-27.51734435 32.30904033 -27.49742713 30.15265923 -27.3125 26.75 C-27.24675781 25.67234375 -27.18101563 24.5946875 -27.11328125 23.484375 C-27.07589844 22.66453125 -27.03851563 21.8446875 -27 21 C-27.66 21 -28.32 21 -29 21 C-27.30518327 14.97398494 -23.01551238 9.72455774 -17.609375 6.6328125 C-15.4279577 5.66876679 -13.24278893 4.80850029 -11 4 C-10.34 3.67 -9.68 3.34 -9 3 C-9.33 2.34 -9.66 1.68 -10 1 C-4.375 0.75 -4.375 0.75 -1 3 C-0.67 2.01 -0.34 1.02 0 0 Z " fill="#B0D6F3" transform="translate(69,16)"/>
<path d="M0 0 C0.99 0.66 1.98 1.32 3 2 C5.32108669 2.70812814 7.65377147 3.38024152 10 4 C9.67 6.64 9.34 9.28 9 12 C10.36125 12.2165625 10.36125 12.2165625 11.75 12.4375 C15 13 15 13 17.1875 13.6875 C19.3371308 14.27213937 19.3371308 14.27213937 22 12 C25.1875 11.875 25.1875 11.875 28 12 C27.505 8.04 27.505 8.04 27 4 C29.475 4.495 29.475 4.495 32 5 C33.45081788 11.19894911 32.26811369 15.14953851 30 21 C29.608125 22.175625 29.21625 23.35125 28.8125 24.5625 C28.544375 25.366875 28.27625 26.17125 28 27 C26.68 27 25.36 27 24 27 C24.33 24.69 24.66 22.38 25 20 C24.01 20.66 23.02 21.32 22 22 C22.495 24.475 22.495 24.475 23 27 C18.38 27 13.76 27 9 27 C9 24.36 9 21.72 9 19 C8.34 19 7.68 19 7 19 C3.37129841 9.58997722 3.37129841 9.58997722 5 5 C4.34 5 3.68 5 3 5 C2.66125489 9.56205728 2.66125489 9.56205728 3.96875 13.8125 C5.37260988 16.79038459 5.42857401 19.47623356 5.625 22.75 C5.69976562 23.92046875 5.77453125 25.0909375 5.8515625 26.296875 C5.90054688 27.18890625 5.94953125 28.0809375 6 29 C10.14581887 29.02886751 14.29161216 29.04675327 18.4375 29.0625 C19.62150391 29.07087891 20.80550781 29.07925781 22.02539062 29.08789062 C23.15009766 29.09111328 24.27480469 29.09433594 25.43359375 29.09765625 C26.99678345 29.10551147 26.99678345 29.10551147 28.59155273 29.11352539 C30.95128747 29.27305556 30.95128747 29.27305556 32 28 C32.28627309 24.9964046 32.44865755 21.99259893 32.62109375 18.98046875 C32.98807184 16.09382665 33.72393841 14.54699843 35 12 C35.24029959 9.40845081 35.24029959 9.40845081 35.125 6.75 C35.10695312 5.85796875 35.08890625 4.9659375 35.0703125 4.046875 C35.04710937 3.37140625 35.02390625 2.6959375 35 2 C35.66 2 36.32 2 37 2 C37 1.34 37 0.68 37 0 C43.52307692 0.61538462 43.52307692 0.61538462 45.9375 2.5625 C46.288125 3.036875 46.63875 3.51125 47 4 C46.55527344 4.64195313 46.11054687 5.28390625 45.65234375 5.9453125 C43.20361772 10.47227174 42.20724459 15.25694622 40.98242188 20.23046875 C39.3056085 26.68809954 37.82128071 32.32433025 31.77734375 35.9140625 C27.54546286 37.13067355 23.93585184 37.45963921 19.5625 37.375 C18.81331299 37.36557373 18.06412598 37.35614746 17.29223633 37.34643555 C11.92675148 37.1994921 7.74010349 36.69535297 3 34 C-0.29155908 30.46623185 -1.77157675 27.37720542 -3.0625 22.75 C-3.39121094 21.61046875 -3.71992187 20.4709375 -4.05859375 19.296875 C-4.52458984 17.66492188 -4.52458984 17.66492188 -5 16 C-6.50212271 11.26519846 -8.07791578 6.58343159 -10 2 C-6.59677126 -0.09429461 -3.96047946 -0.33706208 0 0 Z " fill="#AED5F1" transform="translate(58,76)"/>
<path d="M0 0 C0 3 0 3 -1.5 4.6875 C-1.995 5.120625 -2.49 5.55375 -3 6 C-2.505 6.99 -2.505 6.99 -2 8 C-2.33 8.66 -2.66 9.32 -3 10 C-0.36 10 2.28 10 5 10 C5 10.66 5 11.32 5 12 C6.32 12 7.64 12 9 12 C8.67 12.99 8.34 13.98 8 15 C6.35 15 4.7 15 3 15 C2.67 15.99 2.34 16.98 2 18 C1.505 17.01 1.505 17.01 1 16 C0.01 16.66 -0.98 17.32 -2 18 C-1.34 18.66 -0.68 19.32 0 20 C-1.65 19.67 -3.3 19.34 -5 19 C-5.495 17.515 -5.495 17.515 -6 16 C-7.41506087 20.24518262 -8.01954959 25.96090082 -6 30 C-5.52164612 33.08205221 -5.44247753 35.92566183 -6 39 C-9.59341992 43.10676563 -12.57875302 44.61276807 -18 45 C-17.505 47.475 -17.505 47.475 -17 50 C-14.36 50 -11.72 50 -9 50 C-9 49.34 -9 48.68 -9 48 C-7.41676312 47.972807 -5.83338938 47.95351694 -4.25 47.9375 C-3.36828125 47.92589844 -2.4865625 47.91429687 -1.578125 47.90234375 C0.7818838 47.99173802 2.74498524 48.33087179 5 49 C5 48.34 5 47.68 5 47 C1.37 46.67 -2.26 46.34 -6 46 C-6 45.67 -6 45.34 -6 45 C-4.25008666 44.97284617 -2.50005055 44.95353449 -0.75 44.9375 C0.22453125 44.92589844 1.1990625 44.91429687 2.203125 44.90234375 C4.65758678 44.98804423 6.66168914 45.29293934 9 46 C9 45.34 9 44.68 9 44 C4.71 44 0.42 44 -4 44 C-4 43.34 -4 42.68 -4 42 C-3.236875 41.7525 -2.47375 41.505 -1.6875 41.25 C1.37754038 39.82439982 2.46110282 38.99679976 4 36 C4.54833255 30.97361831 3.9751695 28.09085807 1 24 C5.52398556 24.86999722 9.5427503 26.59132529 12.875 29.8125 C14.40719117 32.79176061 14.48221759 34.69336511 14 38 C12 40.375 12 40.375 10 42 C11.65 42.33 13.3 42.66 15 43 C15 43.66 15 44.32 15 45 C14.34 45 13.68 45 13 45 C12.773125 45.804375 12.54625 46.60875 12.3125 47.4375 C11 50 11 50 9 50.875 C6.26691375 50.98887859 3.89205946 50.77401201 1.1875 50.4375 C-3.72971814 49.84772871 -7.2971914 50.51948618 -12 52 C-12.66 54.31 -13.32 56.62 -14 59 C-14.66 59 -15.32 59 -16 59 C-16.66 58.01 -17.32 57.02 -18 56 C-18.99 56.99 -19.98 57.98 -21 59 C-21.99 58.34 -22.98 57.68 -24 57 C-24.99 57.66 -25.98 58.32 -27 59 C-27.495 56.525 -27.495 56.525 -28 54 C-25.525 53.505 -25.525 53.505 -23 53 C-23 52.01 -23 51.02 -23 50 C-23.66 49.67 -24.32 49.34 -25 49 C-24.67 47.68 -24.34 46.36 -24 45 C-25.051875 44.773125 -26.10375 44.54625 -27.1875 44.3125 C-31.29914825 43.0731437 -33.58656777 41.69556811 -36 38 C-36.22599776 33.05818231 -35.26132113 28.3303621 -34.3125 23.5 C-33.69254065 20.75310083 -33.69254065 20.75310083 -36 18 C-36.66 18.66 -37.32 19.32 -38 20 C-40.5 20.25 -40.5 20.25 -43 20 C-43.66 19.34 -44.32 18.68 -45 18 C-45 17.01 -45 16.02 -45 15 C-47.97 14.505 -47.97 14.505 -51 14 C-51 13.34 -51 12.68 -51 12 C-45.4387741 10.40740875 -39.4714195 10.00091552 -34.0625 12.1875 C-31.46496827 14.4701794 -30.23149724 15.71600735 -29 19 C-28.93249899 25.22937862 -30.03757268 31.11271805 -32 37 C-24.47545483 38.28077365 -17.52849804 38.36096234 -10 37 C-10.42459673 34.74752939 -10.86518028 32.49806835 -11.3125 30.25 C-11.55613281 28.99703125 -11.79976562 27.7440625 -12.05078125 26.453125 C-12.95549454 23.16190465 -13.53614631 21.32697293 -16 19 C-18.26300895 18.3078631 -18.26300895 18.3078631 -20.6875 18.25 C-21.49574219 18.19328125 -22.30398437 18.1365625 -23.13671875 18.078125 C-24.05904297 18.03945313 -24.05904297 18.03945313 -25 18 C-24.67 17.01 -24.34 16.02 -24 15 C-21.03 15 -18.06 15 -15 15 C-14.67 12.03 -14.34 9.06 -14 6 C-9.38 4.02 -4.76 2.04 0 0 Z " fill="#105285" transform="translate(97,26)"/>
<path d="M0 0 C2.31 0.66 4.62 1.32 7 2 C6.67 4.64 6.34 7.28 6 10 C7.36125 10.2165625 7.36125 10.2165625 8.75 10.4375 C12 11 12 11 14.1875 11.6875 C16.3371308 12.27213937 16.3371308 12.27213937 19 10 C22.1875 9.875 22.1875 9.875 25 10 C24.67 7.36 24.34 4.72 24 2 C26.475 2.495 26.475 2.495 29 3 C30.45081788 9.19894911 29.26811369 13.14953851 27 19 C26.608125 20.175625 26.21625 21.35125 25.8125 22.5625 C25.544375 23.366875 25.27625 24.17125 25 25 C23.68 25 22.36 25 21 25 C21.33 22.69 21.66 20.38 22 18 C21.01 18.66 20.02 19.32 19 20 C19.33 21.65 19.66 23.3 20 25 C15.38 25 10.76 25 6 25 C6 22.36 6 19.72 6 17 C5.34 17 4.68 17 4 17 C0.37129841 7.58997722 0.37129841 7.58997722 2 3 C1.34 3 0.68 3 0 3 C0 4.98 0 6.96 0 9 C-0.66 9 -1.32 9 -2 9 C-1.125 2.25 -1.125 2.25 0 0 Z " fill="#ACD0EC" transform="translate(61,78)"/>
<path d="M0 0 C0.33 0.66 0.66 1.32 1 2 C1.886875 1.79375 2.77375 1.5875 3.6875 1.375 C7.43480615 0.95077666 8.9079662 0.82721949 12 3 C14.90196866 8.62331686 15.50642351 14.78093626 16 21 C8.4367816 24.10285883 1.59084981 23.58411908 -6 21 C-5.855625 20.13117187 -5.71125 19.26234375 -5.5625 18.3671875 C-5.376875 17.21476562 -5.19125 16.06234375 -5 14.875 C-4.814375 13.73804688 -4.62875 12.60109375 -4.4375 11.4296875 C-4.03043951 8.23862398 -3.92190098 5.21182209 -4 2 C-2.68 1.34 -1.36 0.68 0 0 Z " fill="#B4D8F3" transform="translate(71,42)"/>
<path d="M0 0 C4.52398556 0.86999722 8.5427503 2.59132529 11.875 5.8125 C13.40719117 8.79176061 13.48221759 10.69336511 13 14 C11 16.375 11 16.375 9 18 C10.65 18.33 12.3 18.66 14 19 C14 19.66 14 20.32 14 21 C13.34 21 12.68 21 12 21 C11.773125 21.804375 11.54625 22.60875 11.3125 23.4375 C10 26 10 26 8 26.875 C5.26691375 26.98887859 2.89205946 26.77401201 0.1875 26.4375 C-4.72971814 25.84772871 -8.2971914 26.51948618 -13 28 C-13.99 31.465 -13.99 31.465 -15 35 C-15.66 35 -16.32 35 -17 35 C-17.66 34.01 -18.32 33.02 -19 32 C-19.99 32.99 -20.98 33.98 -22 35 C-22.99 34.34 -23.98 33.68 -25 33 C-25.99 33.66 -26.98 34.32 -28 35 C-28.33 33.35 -28.66 31.7 -29 30 C-27.35 29.67 -25.7 29.34 -24 29 C-22.66666667 26 -22.66666667 26 -24 23 C-23.34 23 -22.68 23 -22 23 C-21.34 22.34 -20.68 21.68 -20 21 C-19.34 22.65 -18.68 24.3 -18 26 C-15.36 26 -12.72 26 -10 26 C-10 25.34 -10 24.68 -10 24 C-8.41676312 23.972807 -6.83338938 23.95351694 -5.25 23.9375 C-3.92742187 23.92009766 -3.92742187 23.92009766 -2.578125 23.90234375 C-0.2181162 23.99173802 1.74498524 24.33087179 4 25 C4 24.34 4 23.68 4 23 C0.37 22.67 -3.26 22.34 -7 22 C-7 21.67 -7 21.34 -7 21 C-5.25008666 20.97284617 -3.50005055 20.95353449 -1.75 20.9375 C-0.28820312 20.92009766 -0.28820312 20.92009766 1.203125 20.90234375 C3.65758678 20.98804423 5.66168914 21.29293934 8 22 C8 21.34 8 20.68 8 20 C3.71 20 -0.58 20 -5 20 C-5 19.34 -5 18.68 -5 18 C-4.236875 17.7525 -3.47375 17.505 -2.6875 17.25 C0.37754038 15.82439982 1.46110282 14.99679976 3 12 C3.54833255 6.97361831 2.9751695 4.09085807 0 0 Z M-26 25 C-24 26 -24 26 -24 26 Z " fill="#0F5286" transform="translate(98,50)"/>
<path d="M0 0 C0 3 0 3 -1.5 4.6875 C-1.995 5.120625 -2.49 5.55375 -3 6 C-2.67 6.66 -2.34 7.32 -2 8 C-2.33 8.66 -2.66 9.32 -3 10 C-0.36 10 2.28 10 5 10 C5 10.66 5 11.32 5 12 C6.32 12 7.64 12 9 12 C8.67 12.99 8.34 13.98 8 15 C6.35 15 4.7 15 3 15 C2.67 15.99 2.34 16.98 2 18 C1.67 17.34 1.34 16.68 1 16 C0.01 16.66 -0.98 17.32 -2 18 C-1.34 18.66 -0.68 19.32 0 20 C-1.65 19.67 -3.3 19.34 -5 19 C-5.33 18.01 -5.66 17.02 -6 16 C-7.41506087 20.24518262 -8.01954959 25.96090082 -6 30 C-5.93049459 31.54023996 -5.91547643 33.08334988 -5.9375 34.625 C-5.94652344 35.44226562 -5.95554687 36.25953125 -5.96484375 37.1015625 C-5.97644531 37.72804687 -5.98804687 38.35453125 -6 39 C-7.65 39 -9.3 39 -11 39 C-11.33 38.34 -11.66 37.68 -12 37 C-11.34 37 -10.68 37 -10 37 C-10.42459673 34.74752939 -10.86518028 32.49806835 -11.3125 30.25 C-11.67794922 28.37054688 -11.67794922 28.37054688 -12.05078125 26.453125 C-12.95549454 23.16190465 -13.53614631 21.32697293 -16 19 C-18.26300895 18.3078631 -18.26300895 18.3078631 -20.6875 18.25 C-21.49574219 18.19328125 -22.30398437 18.1365625 -23.13671875 18.078125 C-24.05904297 18.03945313 -24.05904297 18.03945313 -25 18 C-24.505 16.515 -24.505 16.515 -24 15 C-21.03 15 -18.06 15 -15 15 C-14.67 12.03 -14.34 9.06 -14 6 C-9.38 4.02 -4.76 2.04 0 0 Z " fill="#185789" transform="translate(97,26)"/>
<path d="M0 0 C1.32 0.33 2.64 0.66 4 1 C5.46684337 5.88947792 5.05390562 11.05122578 4 16 C3.34 16.33 2.68 16.66 2 17 C1.34 16.67 0.68 16.34 0 16 C0 18.97 0 21.94 0 25 C-4 21 -4 21 -5.37890625 19.4765625 C-7.20280143 17.81527967 -8.84700204 17.10794567 -11.125 16.1875 C-13.2578125 15.18359375 -13.2578125 15.18359375 -15 14 C-16 10.75 -16 10.75 -16 8 C-16.99 7.67 -17.98 7.34 -19 7 C-15.7 5.68 -12.4 4.36 -9 3 C-9.33 2.34 -9.66 1.68 -10 1 C-4.375 0.75 -4.375 0.75 -1 3 C-0.67 2.01 -0.34 1.02 0 0 Z " fill="#B1D6F2" transform="translate(69,16)"/>
<path d="M0 0 C0.66 0.33 1.32 0.66 2 1 C2 1.66 2 2.32 2 3 C1.34 3 0.68 3 0 3 C0 4.32 0 5.64 0 7 C3.10722427 7.07798129 3.10722427 7.07798129 6.5625 6.4375 C10 6 10 6 12 7 C10.84544867 10.46365398 10.09440861 11.19137152 7 13 C4.421875 13.29296875 4.421875 13.29296875 1.75 13.1875 C0.85796875 13.16042969 -0.0340625 13.13335937 -0.953125 13.10546875 C-1.62859375 13.07066406 -2.3040625 13.03585938 -3 13 C-3.33 13.99 -3.66 14.98 -4 16 C-6.86095641 14.7175023 -9.11365918 13.54656011 -11 11 C-11.04995256 9.33408208 -11.05434846 7.6657803 -11 6 C-9.21385682 4.96953278 -7.42089982 3.95086764 -5.625 2.9375 C-4.62726562 2.36902344 -3.62953125 1.80054687 -2.6015625 1.21484375 C-1.74304687 0.81394531 -0.88453125 0.41304687 0 0 Z " fill="#135993" transform="translate(34,15)"/>
<path d="M0 0 C0 3 0 3 -1.5 4.6875 C-1.995 5.120625 -2.49 5.55375 -3 6 C-2.67 6.66 -2.34 7.32 -2 8 C-2.33 8.66 -2.66 9.32 -3 10 C-0.36 10 2.28 10 5 10 C5 10.33 5 10.66 5 11 C-1.435 11.495 -1.435 11.495 -8 12 C-8.33 12.99 -8.66 13.98 -9 15 C-9.66 15 -10.32 15 -11 15 C-11.12375 15.78375 -11.2475 16.5675 -11.375 17.375 C-12 20 -12 20 -14 22 C-14.66 21.01 -15.32 20.02 -16 19 C-18.19454681 18.42006301 -18.19454681 18.42006301 -20.625 18.3125 C-21.44226563 18.24675781 -22.25953125 18.18101563 -23.1015625 18.11328125 C-23.72804688 18.07589844 -24.35453125 18.03851563 -25 18 C-24.505 16.515 -24.505 16.515 -24 15 C-21.03 15 -18.06 15 -15 15 C-14.67 12.03 -14.34 9.06 -14 6 C-9.38 4.02 -4.76 2.04 0 0 Z " fill="#AFD7F5" transform="translate(97,26)"/>
<path d="M0 0 C4.52398556 0.86999722 8.5427503 2.59132529 11.875 5.8125 C13.40719117 8.79176061 13.48221759 10.69336511 13 14 C10.76793569 16.84780619 9.45007001 17.84997666 6 19 C4.43881572 19.06740865 2.8749748 19.08514456 1.3125 19.0625 C0.10013672 19.04896484 0.10013672 19.04896484 -1.13671875 19.03515625 C-1.75160156 19.02355469 -2.36648437 19.01195313 -3 19 C-2.566875 18.57589844 -2.13375 18.15179688 -1.6875 17.71484375 C1.31158902 14.55608101 2.87917308 12.77866237 3.5625 8.375 C2.98210228 4.89261369 2.06249227 2.83592688 0 0 Z " fill="#0C4F85" transform="translate(98,50)"/>
<path d="M0 0 C1.65 0.33 3.3 0.66 5 1 C6.45081788 7.19894911 5.26811369 11.14953851 3 17 C2.608125 18.175625 2.21625 19.35125 1.8125 20.5625 C1.544375 21.366875 1.27625 22.17125 1 23 C-0.32 23 -1.64 23 -3 23 C-2.34 20.36 -1.68 17.72 -1 15 C-1.99 15 -2.98 15 -4 15 C-4 14.01 -4 13.02 -4 12 C-4.99 12 -5.98 12 -7 12 C-7 11.01 -7 10.02 -7 9 C-4.29120665 7.64560332 -1.99066732 7.93498549 1 8 C0.67 5.36 0.34 2.72 0 0 Z " fill="#B0DAF6" transform="translate(85,80)"/>
<path d="M0 0 C4.75 0.75 4.75 0.75 7 3 C6.6442194 6.37991574 5.64284201 9.04288438 4 12 C3.01 11.34 2.02 10.68 1 10 C0.01 10 -0.98 10 -2 10 C-2 9.34 -2 8.68 -2 8 C-2.59167969 8.20238281 -3.18335937 8.40476562 -3.79296875 8.61328125 C-6.25316635 9.331675 -8.43711363 9.86714134 -11 10 C-14.0625 7.75 -14.0625 7.75 -16 5 C-16 4.34 -16 3.68 -16 3 C-10.32723489 2.70658112 -7.00932754 2.99440348 -2 6 C-1.34 4.02 -0.68 2.04 0 0 Z " fill="#286797" transform="translate(122,19)"/>
<path d="M0 0 C1.28583984 -0.02126953 1.28583984 -0.02126953 2.59765625 -0.04296875 C4.9375 0.1875 4.9375 0.1875 7.9375 2.1875 C5.0625 8.0625 5.0625 8.0625 3.9375 9.1875 C1.5 9.375 1.5 9.375 -1.0625 9.1875 C-1.7225 8.5275 -2.3825 7.8675 -3.0625 7.1875 C-3.0625 6.1975 -3.0625 5.2075 -3.0625 4.1875 C-6.0325 3.6925 -6.0325 3.6925 -9.0625 3.1875 C-9.0625 2.5275 -9.0625 1.8675 -9.0625 1.1875 C-5.98998989 0.29640078 -3.19602607 0.02410276 0 0 Z " fill="#1E5B88" transform="translate(55.0625,36.8125)"/>
<path d="M0 0 C2.05078125 0.03255208 4.1015625 0.06510417 6.15234375 0.09765625 C6.15234375 1.08765625 6.15234375 2.07765625 6.15234375 3.09765625 C3.10636792 6.14363208 0.29415528 6.45337446 -3.84765625 7.09765625 C-4.17765625 7.75765625 -4.50765625 8.41765625 -4.84765625 9.09765625 C-5.83765625 9.59265625 -5.83765625 9.59265625 -6.84765625 10.09765625 C-7.50765625 9.76765625 -8.16765625 9.43765625 -8.84765625 9.09765625 C-9.17765625 9.75765625 -9.50765625 10.41765625 -9.84765625 11.09765625 C-9.84765625 8.12765625 -9.84765625 5.15765625 -9.84765625 2.09765625 C-8.71328125 1.95328125 -7.57890625 1.80890625 -6.41015625 1.66015625 C-3.51115113 1.2024186 -2.54328457 0.13442307 0 0 Z " fill="#084D83" transform="translate(82.84765625,63.90234375)"/>
<path d="M0 0 C1.28197266 -0.00386719 1.28197266 -0.00386719 2.58984375 -0.0078125 C4.88930852 0.11569746 6.85890348 0.48079313 9.0625 1.125 C8.7325 2.115 8.4025 3.105 8.0625 4.125 C6.4125 4.125 4.7625 4.125 3.0625 4.125 C2.7325 5.115 2.4025 6.105 2.0625 7.125 C1.7325 6.465 1.4025 5.805 1.0625 5.125 C0.0725 5.785 -0.9175 6.445 -1.9375 7.125 C-1.2775 7.785 -0.6175 8.445 0.0625 9.125 C-2.3125 8.8125 -2.3125 8.8125 -4.9375 8.125 C-6.68377478 5.50558783 -7.32472388 4.08675123 -7.9375 1.125 C-5.0043642 0.14728807 -3.05571006 -0.00919011 0 0 Z " fill="#104F82" transform="translate(96.9375,36.875)"/>
<path d="M0 0 C2.31 0.66 4.62 1.32 7 2 C6.67 5.96 6.34 9.92 6 14 C5.01 14 4.02 14 3 14 C1.37049588 9.87831311 0.73735399 7.29299643 2 3 C1.34 3 0.68 3 0 3 C0 4.98 0 6.96 0 9 C-0.66 9 -1.32 9 -2 9 C-1.125 2.25 -1.125 2.25 0 0 Z " fill="#225B88" transform="translate(61,78)"/>
<path d="M0 0 C6.43311296 -0.09507063 12.65758005 -0.15316726 19 1 C19 1.66 19 2.32 19 3 C18.34 3 17.68 3 17 3 C16.773125 3.804375 16.54625 4.60875 16.3125 5.4375 C15 8 15 8 12.5625 8.9375 C10 9 10 9 7 7 C7.66 7 8.32 7 9 7 C9 6.34 9 5.68 9 5 C5.37 4.67 1.74 4.34 -2 4 C-2 3.67 -2 3.34 -2 3 C-0.25008666 2.97284617 1.49994945 2.95353449 3.25 2.9375 C4.71179688 2.92009766 4.71179688 2.92009766 6.203125 2.90234375 C8.65758678 2.98804423 10.66168914 3.29293934 13 4 C13 3.34 13 2.68 13 2 C8.71 2 4.42 2 0 2 C0 1.34 0 0.68 0 0 Z " fill="#679BC0" transform="translate(93,68)"/>
<path d="M0 0 C0 3 0 3 -1.125 4.5 C-3 6 -3 6 -6 7.3125 C-9.63032106 9.3545556 -10.47927933 11.19819833 -12 15 C-12.66 15 -13.32 15 -14 15 C-14 12.03 -14 9.06 -14 6 C-9.38 4.02 -4.76 2.04 0 0 Z " fill="#215E8D" transform="translate(97,26)"/>
<path d="M0 0 C0.33 1.65 0.66 3.3 1 5 C0.38511719 5.13277344 -0.22976562 5.26554687 -0.86328125 5.40234375 C-2.07564453 5.66724609 -2.07564453 5.66724609 -3.3125 5.9375 C-4.11300781 6.11152344 -4.91351563 6.28554688 -5.73828125 6.46484375 C-8.145401 6.99886159 -8.145401 6.99886159 -11 8 C-11 7.34 -11 6.68 -11 6 C-11.66 5.67 -12.32 5.34 -13 5 C-8.49251112 0.34226149 -6.53321609 -0.12098548 0 0 Z " fill="#054C81" transform="translate(45,16)"/>
<path d="M0 0 C2.40928735 0.96371494 3.76007009 1.65210163 5.25 3.8125 C6.17407585 6.50772123 6.40556556 8.16104111 6 11 C4.0625 14.3125 4.0625 14.3125 2 17 C1.67 17 1.34 17 1 17 C1.02320313 16.43152344 1.04640625 15.86304688 1.0703125 15.27734375 C1.19191688 10.07441352 0.67723492 5.92687757 -1 1 C-0.67 0.67 -0.34 0.34 0 0 Z " fill="#074B80" transform="translate(62,39)"/>
<path d="M0 0 C-1.16703028 3.50109084 -1.8149643 4.23984869 -5 6 C-8.625 6.375 -8.625 6.375 -12 6 C-12.66 5.01 -13.32 4.02 -14 3 C-8.8269357 -0.48390045 -6.32765881 -1.54963073 0 0 Z " fill="#AAD2F3" transform="translate(46,22)"/>
<path d="M0 0 C4.62 1.65 9.24 3.3 14 5 C14 7.97 14 10.94 14 14 C10 10 10 10 8.625 8.5 C6.85606516 6.7792576 6.85606516 6.7792576 3.875 5 C1 3 1 3 0 0 Z " fill="#205C8C" transform="translate(55,27)"/>
<path d="M0 0 C0.66 0 1.32 0 2 0 C2.1546875 1.175625 2.1546875 1.175625 2.3125 2.375 C2.77595022 5.33045181 2.77595022 5.33045181 6 7 C5.34 8.32 4.68 9.64 4 11 C6.97 11 9.94 11 13 11 C13 11.33 13 11.66 13 12 C8.38 12 3.76 12 -1 12 C-1.125 2.25 -1.125 2.25 0 0 Z " fill="#45779D" transform="translate(68,91)"/>
<path d="M0 0 C5.39449293 -0.27429625 8.51925805 -0.36055646 13 3 C12.67 3.99 12.34 4.98 12 6 C8.8125 6.8125 8.8125 6.8125 5 7 C2.0625 4.6875 2.0625 4.6875 0 2 C0 1.34 0 0.68 0 0 Z " fill="#A7D2F1" transform="translate(106,22)"/>
<path d="M0 0 C2.4375 0.375 2.4375 0.375 5 1 C5.33 1.66 5.66 2.32 6 3 C7.11375 2.95875 8.2275 2.9175 9.375 2.875 C13 3 13 3 15 5 C10.32790951 6.43023178 5.86896303 7.40380045 1 8 C-0.42944945 5.64561267 -1.08661261 4.51967567 -0.625 1.75 C-0.41875 1.1725 -0.2125 0.595 0 0 Z M7 4 C7 4.33 7 4.66 7 5 C8.98 5 10.96 5 13 5 C13 4.67 13 4.34 13 4 C11.02 4 9.04 4 7 4 Z M3 5 C3.33 5.66 3.66 6.32 4 7 C4.33 6.34 4.66 5.68 5 5 C4.34 5 3.68 5 3 5 Z " fill="#3472A0" transform="translate(100,10)"/>
<path d="M0 0 C0.66 0 1.32 0 2 0 C1.938125 0.99 1.87625 1.98 1.8125 3 C1.79421264 6.02351069 2.34112297 8.21434254 3.5 11 C5.111446 14.87352279 5.26053563 17.83142991 5 22 C4.34 22 3.68 22 3 22 C2.67 22.66 2.34 23.32 2 24 C1.92652344 22.67935547 1.92652344 22.67935547 1.8515625 21.33203125 C1.77679688 20.17058594 1.70203125 19.00914063 1.625 17.8125 C1.55539063 16.66394531 1.48578125 15.51539062 1.4140625 14.33203125 C1.02271291 11.18277465 0.19427896 8.90607879 -1 6 C-0.625 2.6875 -0.625 2.6875 0 0 Z " fill="#094B7E" transform="translate(61,81)"/>
<path d="M0 0 C-0.33 1.65 -0.66 3.3 -1 5 C-1.66 5 -2.32 5 -3 5 C-3.66 4.01 -4.32 3.02 -5 2 C-5.99 2.99 -6.98 3.98 -8 5 C-8.99 4.34 -9.98 3.68 -11 3 C-11.99 3.66 -12.98 4.32 -14 5 C-14.33 3.35 -14.66 1.7 -15 0 C-9.96266834 -1.5111995 -5.11828973 -0.64599773 0 0 Z " fill="#C8E3F2" transform="translate(84,80)"/>
<path d="M0 0 C1.8125 0.05078125 1.8125 0.05078125 4 0.3125 C4.721875 0.39113281 5.44375 0.46976562 6.1875 0.55078125 C7.0846875 0.77314453 7.0846875 0.77314453 8 1 C8.33 1.66 8.66 2.32 9 3 C8.67 3.66 8.34 4.32 8 5 C1.64416673 4.13329546 -4.67551301 3.06965872 -11 2 C-11 2.66 -11 3.32 -11 4 C-13.97 3.67 -16.94 3.34 -20 3 C-15.75138373 0.87569187 -12.88805471 0.79383368 -8.3125 0.9375 C-5.8700922 0.9991885 -3.44426181 1.02063912 -1 1 C-0.67 0.67 -0.34 0.34 0 0 Z " fill="#5A8CB4" transform="translate(71,7)"/>
<path d="M0 0 C2.475 0.495 2.475 0.495 5 1 C6.25 7.625 6.25 7.625 4 11 C3.01 11.33 2.02 11.66 1 12 C0.67 8.04 0.34 4.08 0 0 Z " fill="#6591B3" transform="translate(85,80)"/>
<path d="M0 0 C0 0.66 0 1.32 0 2 C2.31 2 4.62 2 7 2 C7 2.33 7 2.66 7 3 C-0.625 4 -0.625 4 -4 4 C-4.33 3.67 -4.66 3.34 -5 3 C-6.46282033 3.09033353 -7.92182192 3.24703491 -9.375 3.4375 C-11.9721428 3.77166007 -14.37411693 4 -17 4 C-12.14111005 -0.85888995 -6.43903972 -0.22505382 0 0 Z " fill="#2C6796" transform="translate(63,74)"/>
<path d="M0 0 C0.66 0.33 1.32 0.66 2 1 C1.53199289 5.05606165 1.12046792 8.46588679 -1 12 C-2.5625 10.8125 -2.5625 10.8125 -4 9 C-3.71263151 6.12631508 -2.91403285 3.74209856 -2 1 C-1.34 0.67 -0.68 0.34 0 0 Z " fill="#0D5081" transform="translate(88,40)"/>
<path d="M0 0 C0.66 0 1.32 0 2 0 C2.33 0.99 2.66 1.98 3 3 C3.99 3.33 4.98 3.66 6 4 C6 3.01 6 2.02 6 1 C6.66 1.33 7.32 1.66 8 2 C6.61043975 5.35810395 5.17473533 7.18586552 2 9 C-0.75 9.1875 -0.75 9.1875 -3 9 C-2.01 6.03 -1.02 3.06 0 0 Z " fill="#4E80AA" transform="translate(92,121)"/>
<path d="M0 0 C0.33 0 0.66 0 1 0 C0.88512252 1.58409994 0.75765492 3.16728963 0.625 4.75 C0.55539063 5.63171875 0.48578125 6.5134375 0.4140625 7.421875 C0.00149945 9.99066382 -0.71160957 11.75841015 -2 14 C-2.99 13.67 -3.98 13.34 -5 13 C-4.67 9.37 -4.34 5.74 -4 2 C-3.34 2.66 -2.68 3.32 -2 4 C-1.34 2.68 -0.68 1.36 0 0 Z " fill="#1D5C8E" transform="translate(66,51)"/>
<path d="M0 0 C0.33 0 0.66 0 1 0 C1.06058594 0.73605469 1.12117188 1.47210938 1.18359375 2.23046875 C1.26738281 3.20628906 1.35117187 4.18210937 1.4375 5.1875 C1.51871094 6.15042969 1.59992187 7.11335938 1.68359375 8.10546875 C1.97666151 10.78649602 2.42703754 13.3662986 3 16 C1.68 15.01 0.36 14.02 -1 13 C-0.67 12.34 -0.34 11.68 0 11 C-0.99 11.33 -1.98 11.66 -3 12 C-3 9.37886292 -2.68707555 7.49064888 -2 5 C-1.34 5 -0.68 5 0 5 C0 3.35 0 1.7 0 0 Z " fill="#467CAC" transform="translate(39,101)"/>
<path d="M0 0 C0.66 0.66 1.32 1.32 2 2 C1.01 3.485 1.01 3.485 0 5 C-4.54899046 5.42915004 -7.89210262 4.99170782 -12 3 C-12 2.67 -12 2.34 -12 2 C-10.04434742 1.61126172 -8.08533496 1.23939167 -6.125 0.875 C-5.03445312 0.66617188 -3.94390625 0.45734375 -2.8203125 0.2421875 C-1.88960937 0.16226563 -0.95890625 0.08234375 0 0 Z " fill="#084D81" transform="translate(74,75)"/>
<path d="M0 0 C0.598125 0.20625 1.19625 0.4125 1.8125 0.625 C1.46200425 3.86708567 1.25028819 5.24027704 -1.25 7.4375 C-1.889375 7.829375 -2.52875 8.22125 -3.1875 8.625 C-5.1875 6.625 -5.1875 6.625 -5.5 4.125 C-5.396875 3.3 -5.29375 2.475 -5.1875 1.625 C-2.1875 -0.375 -2.1875 -0.375 0 0 Z " fill="#296A9C" transform="translate(28.1875,19.375)"/>
<path d="M0 0 C-0.33 0.66 -0.66 1.32 -1 2 C0.98 2 2.96 2 5 2 C5 2.33 5 2.66 5 3 C2.36 3.33 -0.28 3.66 -3 4 C-3 4.66 -3 5.32 -3 6 C-4.32 5.67 -5.64 5.34 -7 5 C-6.67 3.35 -6.34 1.7 -6 0 C-3 -1 -3 -1 0 0 Z " fill="#024981" transform="translate(108,18)"/>
<path d="M0 0 C-2.75 5.875 -2.75 5.875 -5 7 C-7.125 6.0625 -7.125 6.0625 -9 5 C-8.67 4.01 -8.34 3.02 -8 2 C-7.34 2.33 -6.68 2.66 -6 3 C-6.33 2.01 -6.66 1.02 -7 0 C-2.25 -1.125 -2.25 -1.125 0 0 Z " fill="#4D82AD" transform="translate(63,39)"/>
<path d="M0 0 C0.66 0.33 1.32 0.66 2 1 C1.979375 1.94875 1.95875 2.8975 1.9375 3.875 C1.77448174 6.90666283 1.77448174 6.90666283 3 9 C1.02 9 -0.96 9 -3 9 C-3.99 7.02 -4.98 5.04 -6 3 C-4.68 3.33 -3.36 3.66 -2 4 C-2 3.34 -2 2.68 -2 2 C-1.34 2 -0.68 2 0 2 C0 1.34 0 0.68 0 0 Z " fill="#2D6799" transform="translate(54,119)"/>
<path d="M0 0 C0 0.99 0 1.98 0 3 C-5.28 3.66 -10.56 4.32 -16 5 C-16 4.34 -16 3.68 -16 3 C-10.71031493 1.06474937 -5.64550354 0 0 0 Z " fill="#8FC4E5" transform="translate(59,68)"/>
<path d="M0 0 C0.33 0 0.66 0 1 0 C1.88277755 4.51815281 2.10589503 8.77512694 2.0625 13.375 C2.05347656 14.62023437 2.04445312 15.86546875 2.03515625 17.1484375 C2.02355469 18.08945313 2.01195312 19.03046875 2 20 C1.34 20 0.68 20 0 20 C-1.19799449 15.85340627 -0.8896192 12.00630953 -0.5625 7.75 C-0.51029297 7.00492187 -0.45808594 6.25984375 -0.40429688 5.4921875 C-0.2751783 3.66105139 -0.13834886 1.83046187 0 0 Z " fill="#5791BB" transform="translate(132,60)"/>
<path d="M0 0 C0.90105469 0.00902344 1.80210938 0.01804688 2.73046875 0.02734375 C3.41753906 0.03894531 4.10460937 0.05054688 4.8125 0.0625 C4.8125 0.3925 4.8125 0.7225 4.8125 1.0625 C0.3575 1.5575 0.3575 1.5575 -4.1875 2.0625 C-3.1975 3.5475 -3.1975 3.5475 -2.1875 5.0625 C-2.1875 5.7225 -2.1875 6.3825 -2.1875 7.0625 C-1.5275 7.7225 -0.8675 8.3825 -0.1875 9.0625 C-2.5625 8.75 -2.5625 8.75 -5.1875 8.0625 C-6.93377478 5.44308783 -7.57472388 4.02425123 -8.1875 1.0625 C-5.17259443 0.05753148 -3.14568308 -0.04085303 0 0 Z " fill="#2D6996" transform="translate(97.1875,36.9375)"/>
<path d="M0 0 C3.3 0 6.6 0 10 0 C10.33 2.31 10.66 4.62 11 7 C10.60167969 6.51917969 10.20335938 6.03835937 9.79296875 5.54296875 C7.56549753 3.62608175 6.21165331 3.52258357 3.3125 3.3125 C2.10013672 3.21388672 2.10013672 3.21388672 0.86328125 3.11328125 C0.24839844 3.07589844 -0.36648437 3.03851563 -1 3 C-0.67 2.01 -0.34 1.02 0 0 Z " fill="#6F9DC0" transform="translate(73,41)"/>
<path d="M0 0 C1.485 0.99 1.485 0.99 3 2 C3.29296875 4.6015625 3.29296875 4.6015625 3.1875 7.625 C3.16042969 8.62789062 3.13335937 9.63078125 3.10546875 10.6640625 C3.07066406 11.43492188 3.03585938 12.20578125 3 13 C2.01 13 1.02 13 0 13 C0 8.71 0 4.42 0 0 Z " fill="#1C5A8A" transform="translate(75,20)"/>
<path d="M0 0 C1.98 0 3.96 0 6 0 C6 0.66 6 1.32 6 2 C6.66 2 7.32 2 8 2 C8 4.31 8 6.62 8 9 C7.34 9 6.68 9 6 9 C5.938125 8.236875 5.87625 7.47375 5.8125 6.6875 C5.23675967 3.76885423 5.23675967 3.76885423 2.4375 2.25 C1.633125 1.8375 0.82875 1.425 0 1 C0 0.67 0 0.34 0 0 Z " fill="#06487E" transform="translate(84,77)"/>
<path d="M0 0 C1.98 0 3.96 0 6 0 C6 2.97 6 5.94 6 9 C3.03 8.505 3.03 8.505 0 8 C0.33 7.01 0.66 6.02 1 5 C1.66 5.33 2.32 5.66 3 6 C3.33 4.35 3.66 2.7 4 1 C2.68 0.67 1.36 0.34 0 0 Z " fill="#144D7A" transform="translate(80,79)"/>
<path d="M0 0 C0.66 0.33 1.32 0.66 2 1 C2 1.66 2 2.32 2 3 C1.34 3 0.68 3 0 3 C0 4.32 0 5.64 0 7 C0 7.66 0 8.32 0 9 C-1.32 8.67 -2.64 8.34 -4 8 C-4.33 6.35 -4.66 4.7 -5 3 C-2.625 1.4375 -2.625 1.4375 0 0 Z " fill="#205E90" transform="translate(34,15)"/>
<path d="M0 0 C2.14680135 4.29360269 2.12524159 5.64777742 1.625 10.25 C1.51414062 11.32765625 1.40328125 12.4053125 1.2890625 13.515625 C1.19367188 14.33546875 1.09828125 15.1553125 1 16 C0.67 16 0.34 16 0 16 C-0.12375 15.030625 -0.2475 14.06125 -0.375 13.0625 C-0.58125 12.051875 -0.7875 11.04125 -1 10 C-1.66 9.67 -2.32 9.34 -3 9 C-2.01 6.03 -1.02 3.06 0 0 Z " fill="#1C5A8A" transform="translate(90,88)"/>
<path d="M0 0 C0.25 2.75 0.25 2.75 0 6 C-2 8.375 -2 8.375 -4 10 C-4.66 9.67 -5.32 9.34 -6 9 C-5.67 8.67 -5.34 8.34 -5 8 C-4.855625 6.845 -4.71125 5.69 -4.5625 4.5 C-4.376875 3.345 -4.19125 2.19 -4 1 C-2 0 -2 0 0 0 Z " fill="#8ABCE1" transform="translate(115,56)"/>
<path d="M0 0 C4.95 1.98 4.95 1.98 10 4 C9.67 4.66 9.34 5.32 9 6 C3.50847458 5.38983051 3.50847458 5.38983051 1.125 3.5625 C0 2 0 2 0 0 Z " fill="#114E7E" transform="translate(55,27)"/>
<path d="M0 0 C3.625 0.375 3.625 0.375 7 1 C6.67 1.99 6.34 2.98 6 4 C5.01 4.33 4.02 4.66 3 5 C0.3125 3.5625 0.3125 3.5625 -2 2 C-1.34 1.34 -0.68 0.68 0 0 Z " fill="#9CCBEC" transform="translate(39,21)"/>
<path d="M0 0 C2.9375 0.375 2.9375 0.375 6 1 C6.33 1.66 6.66 2.32 7 3 C5.02 3 3.04 3 1 3 C0.67 4.32 0.34 5.64 0 7 C-0.66 7 -1.32 7 -2 7 C-2 6.01 -2 5.02 -2 4 C-1.34 4 -0.68 4 0 4 C0 2.68 0 1.36 0 0 Z " fill="#AAD4F6" transform="translate(67,88)"/>
<path d="M0 0 C1.32 0 2.64 0 4 0 C3.34 2.97 2.68 5.94 2 9 C0 7 0 7 -0.125 3.375 C-0.08375 2.26125 -0.0425 1.1475 0 0 Z " fill="#DAEFF9" transform="translate(64,80)"/>
<path d="M0 0 C1.62463842 -0.05395478 3.24978541 -0.09277195 4.875 -0.125 C6.23238281 -0.15980469 6.23238281 -0.15980469 7.6171875 -0.1953125 C10 0 10 0 12 2 C11.030625 1.979375 10.06125 1.95875 9.0625 1.9375 C4.66655485 1.92849192 0.35563051 2.44690406 -4 3 C-2.68 2.67 -1.36 2.34 0 2 C0 1.34 0 0.68 0 0 Z " fill="#39729F" transform="translate(88,74)"/>
<path d="M0 0 C1 3 1 3 0 6 C1.98 5.67 3.96 5.34 6 5 C4.515 7.475 4.515 7.475 3 10 C2.34 9.67 1.68 9.34 1 9 C0.01 8.67 -0.98 8.34 -2 8 C-1.125 2.25 -1.125 2.25 0 0 Z " fill="#679DC2" transform="translate(22,41)"/>
<path d="M0 0 C1.65 0.33 3.3 0.66 5 1 C4.67 2.65 4.34 4.3 4 6 C2.68 5.67 1.36 5.34 0 5 C0 3.33333333 0 1.66666667 0 0 Z " fill="#084E80" transform="translate(116,19)"/>
<path d="M0 0 C11.52164009 -0.18451025 11.52164009 -0.18451025 17 1 C17 1.33 17 1.66 17 2 C15.02 2 13.04 2 11 2 C11 2.66 11 3.32 11 4 C9.68 3.67 8.36 3.34 7 3 C7.33 2.67 7.66 2.34 8 2 C5.36 1.67 2.72 1.34 0 1 C0 0.67 0 0.34 0 0 Z " fill="#4C84B2" transform="translate(82,8)"/>
<path d="M0 0 C0.66 0 1.32 0 2 0 C2.66 2.64 3.32 5.28 4 8 C2.68 8 1.36 8 0 8 C0 5.36 0 2.72 0 0 Z " fill="#D0EBF5" transform="translate(67,95)"/>
<path d="M0 0 C0.66 0 1.32 0 2 0 C2 2.64 2 5.28 2 8 C0.68 8 -0.64 8 -2 8 C-1.34 5.36 -0.68 2.72 0 0 Z " fill="#C3DDED" transform="translate(84,95)"/>
<path d="M0 0 C1.32 0 2.64 0 4 0 C4.125 3.375 4.125 3.375 4 7 C3.34 7.66 2.68 8.32 2 9 C1.34 6.03 0.68 3.06 0 0 Z " fill="#DAF2FB" transform="translate(85,80)"/>
<path d="M0 0 C0 3 0 3 -1.25 4.6875 C-3 6 -3 6 -7 6 C-7 5.01 -7 4.02 -7 3 C-4.69 2.01 -2.38 1.02 0 0 Z " fill="#1B5788" transform="translate(97,26)"/>
<path d="M0 0 C2.64 0.33 5.28 0.66 8 1 C7.625 3.4375 7.625 3.4375 7 6 C6.01 6.495 6.01 6.495 5 7 C4.9175 6.401875 4.835 5.80375 4.75 5.1875 C3.79544128 2.4033704 2.42867729 1.56688858 0 0 Z " fill="#23608F" transform="translate(100,76)"/>
<path d="M0 0 C1.65 0.33 3.3 0.66 5 1 C5 2.32 5 3.64 5 5 C3.68 5 2.36 5 1 5 C0.67 5.66 0.34 6.32 0 7 C-1.04449911 3.86650268 -0.93423645 3.01031744 0 0 Z " fill="#2D6694" transform="translate(100,10)"/>
<path d="M0 0 C0.66 0 1.32 0 2 0 C2 2.64 2 5.28 2 8 C3.32 8.33 4.64 8.66 6 9 C3.69 9.66 1.38 10.32 -1 11 C-1 10.01 -1 9.02 -1 8 C-0.34 8 0.32 8 1 8 C0.67 5.36 0.34 2.72 0 0 Z " fill="#2F6792" transform="translate(65,95)"/>
<path d="M0 0 C1.8871875 0.0309375 1.8871875 0.0309375 3.8125 0.0625 C0.85071227 1.73360042 -1.55821192 2.38932752 -4.9375 2.6875 C-5.73671875 2.76226562 -6.5359375 2.83703125 -7.359375 2.9140625 C-7.96265625 2.96304688 -8.5659375 3.01203125 -9.1875 3.0625 C-6.30623588 0.18123588 -3.90053134 -0.06394314 0 0 Z " fill="#07497A" transform="translate(75.1875,102.9375)"/>
<path d="M0 0 C1.32 0.66 2.64 1.32 4 2 C4.99 1.34 5.98 0.68 7 0 C7.33 1.32 7.66 2.64 8 4 C5.03 4 2.06 4 -1 4 C-0.67 2.68 -0.34 1.36 0 0 Z " fill="#D3ECF9" transform="translate(73,98)"/>
<path d="M0 0 C0 2.31 0 4.62 0 7 C-0.66 7 -1.32 7 -2 7 C-2.33 5.02 -2.66 3.04 -3 1 C-3.99 0.67 -4.98 0.34 -6 0 C-3.50907189 -1.24546405 -2.58919267 -0.7767578 0 0 Z " fill="#9ECAE8" transform="translate(56,23)"/>
<path d="M0 0 C1.66666667 0 3.33333333 0 5 0 C5 1.98 5 3.96 5 6 C4.01 6 3.02 6 2 6 C1.34 4.02 0.68 2.04 0 0 Z " fill="#6591B8" transform="translate(62,86)"/>
<path d="M0 0 C0.33 0.66 0.66 1.32 1 2 C1.66 2.33 2.32 2.66 3 3 C2.01 3.33 1.02 3.66 0 4 C-0.33 5.65 -0.66 7.3 -1 9 C-1.66 8.34 -2.32 7.68 -3 7 C-3 6.01 -3 5.02 -3 4 C-2.34 4 -1.68 4 -1 4 C-0.67 2.68 -0.34 1.36 0 0 Z " fill="#98C8E7" transform="translate(86,37)"/>
<path d="M0 0 C1.32 0.66 2.64 1.32 4 2 C4 2.99 4 3.98 4 5 C2.02 5.99 2.02 5.99 0 7 C-0.38133299 5.0085944 -0.71325582 3.00720923 -1 1 C-0.67 0.67 -0.34 0.34 0 0 Z " fill="#175789" transform="translate(62,39)"/>
<path d="M0 0 C0.66 0 1.32 0 2 0 C5.07692308 5.29230769 5.07692308 5.29230769 4.6875 8.875 C4.460625 9.57625 4.23375 10.2775 4 11 C3.67 11 3.34 11 3 11 C3 8.69 3 6.38 3 4 C2.01 4 1.02 4 0 4 C0 2.68 0 1.36 0 0 Z " fill="#759FBE" transform="translate(83,91)"/>
<path d="M0 0 C1.27875 -0.061875 2.5575 -0.12375 3.875 -0.1875 C4.95394531 -0.23970703 4.95394531 -0.23970703 6.0546875 -0.29296875 C6.69664063 -0.19628906 7.33859375 -0.09960938 8 0 C8.66 0.99 9.32 1.98 10 3 C8.5199159 2.88637738 7.04089926 2.75877092 5.5625 2.625 C4.73878906 2.55539063 3.91507812 2.48578125 3.06640625 2.4140625 C2.38449219 2.27742188 1.70257813 2.14078125 1 2 C0.67 1.34 0.34 0.68 0 0 Z " fill="#03477B" transform="translate(62,77)"/>
<path d="M0 0 C2.16969145 4.33938291 2.21326104 6.48390408 2.125 11.25 C2.10695312 12.51328125 2.08890625 13.7765625 2.0703125 15.078125 C2.03550781 16.52445313 2.03550781 16.52445313 2 18 C1.67 18 1.34 18 1 18 C0.67 12.06 0.34 6.12 0 0 Z " fill="#6D8DA9" transform="translate(134,61)"/>
<path d="M0 0 C0.66 0.33 1.32 0.66 2 1 C1.979375 1.94875 1.95875 2.8975 1.9375 3.875 C1.77448174 6.90666283 1.77448174 6.90666283 3 9 C1.0625 8.6875 1.0625 8.6875 -1 8 C-1.33 7.01 -1.66 6.02 -2 5 C-1.34 5 -0.68 5 0 5 C0 3.35 0 1.7 0 0 Z " fill="#3778A5" transform="translate(54,119)"/>
<path d="M0 0 C1 2 1 2 0.0625 5.125 C-0.288125 6.07375 -0.63875 7.0225 -1 8 C-3 5 -3 5 -4 2 C-2.68 1.34 -1.36 0.68 0 0 Z " fill="#215680" transform="translate(83,95)"/>
<path d="M0 0 C4.875 1.75 4.875 1.75 6 4 C3.69 3.67 1.38 3.34 -1 3 C-0.67 2.01 -0.34 1.02 0 0 Z " fill="#9CC9EB" transform="translate(66,60)"/>
<path d="M0 0 C0.33 0 0.66 0 1 0 C1 4.95 1 9.9 1 15 C0.67 15 0.34 15 0 15 C0 10.05 0 5.1 0 0 Z " fill="#152542" transform="translate(16,62)"/>
<path d="M0 0 C0.33 0 0.66 0 1 0 C1 3.63 1 7.26 1 11 C0.67 11 0.34 11 0 11 C-0.19406478 9.35492782 -0.38007935 7.70890406 -0.5625 6.0625 C-0.66691406 5.14597656 -0.77132813 4.22945313 -0.87890625 3.28515625 C-0.91886719 2.53105469 -0.95882813 1.77695313 -1 1 C-0.67 0.67 -0.34 0.34 0 0 Z " fill="#2F517E" transform="translate(22,76)"/>
<path d="M0 0 C3.3 0 6.6 0 10 0 C10 0.33 10 0.66 10 1 C6.7 1 3.4 1 0 1 C0 0.67 0 0.34 0 0 Z " fill="#6F90A9" transform="translate(60,6)"/>
<path d="M0 0 C2.64 0 5.28 0 8 0 C8 0.33 8 0.66 8 1 C5.36 1 2.72 1 0 1 C0 0.67 0 0.34 0 0 Z " fill="#7596B0" transform="translate(83,6)"/>
<path d="M0 0 C0.33 0 0.66 0 1 0 C1 2.31 1 4.62 1 7 C0.67 7 0.34 7 0 7 C0 4.69 0 2.38 0 0 Z " fill="#467595" transform="translate(81,136)"/>
<path d="M0 0 C1 4 1 4 1 4 Z " fill="#4D6F91" transform="translate(23,87)"/>
<path d="M0 0 C1 4 1 4 1 4 Z " fill="#3B597D" transform="translate(133,56)"/>
<path d="M0 0 C0.66 0 1.32 0 2 0 C1.67 0.99 1.34 1.98 1 3 C0.67 2.01 0.34 1.02 0 0 Z " fill="#2A476B" transform="translate(129,50)"/>
<path d="M0 0 C0.66 0.66 1.32 1.32 2 2 C1.01 2.495 1.01 2.495 0 3 C0 2.01 0 1.02 0 0 Z " fill="#5C81A4" transform="translate(26,30)"/>
<path d="" fill="#1F3D68" transform="translate(0,0)"/>
<path d="" fill="#294774" transform="translate(0,0)"/>
<path d="" fill="#6889AC" transform="translate(0,0)"/>
<path d="" fill="#517A9F" transform="translate(0,0)"/>
<path d="" fill="#628195" transform="translate(0,0)"/>
<path d="" fill="#305274" transform="translate(0,0)"/>
<path d="M0 0 C0.66 0 1.32 0 2 0 C1.67 0.66 1.34 1.32 1 2 C0.67 1.34 0.34 0.68 0 0 Z " fill="#5B86B7" transform="translate(20,50)"/>
<path d="" fill="#3B5983" transform="translate(0,0)"/>
<path d="" fill="#315785" transform="translate(0,0)"/>
<path d="M0 0 C3 1 3 1 3 1 Z " fill="#1B4070" transform="translate(79,7)"/>
<path d="M0 0 C2 1 2 1 2 1 Z " fill="#184874" transform="translate(73,142)"/>
<path d="" fill="#36618D" transform="translate(0,0)"/>
<path d="" fill="#273D73" transform="translate(0,0)"/>
<path d="" fill="#4F6380" transform="translate(0,0)"/>
<path d="" fill="#0C284E" transform="translate(0,0)"/>
<path d="" fill="#3D6285" transform="translate(0,0)"/>
<path d="" fill="#4D648F" transform="translate(0,0)"/>
<path d="" fill="#294E72" transform="translate(0,0)"/>
<path d="" fill="#5A83A9" transform="translate(0,0)"/>
<path d="" fill="#2F4962" transform="translate(0,0)"/>
<path d="" fill="#2A467C" transform="translate(0,0)"/>
<path d="" fill="#88A6C4" transform="translate(0,0)"/>
<path d="" fill="#435B7C" transform="translate(0,0)"/>
<path d="" fill="#3D4A70" transform="translate(0,0)"/>
<path d="" fill="#394D7A" transform="translate(0,0)"/>
<path d="" fill="#45607B" transform="translate(0,0)"/>
<path d="" fill="#7295B9" transform="translate(0,0)"/>
<path d="" fill="#87A5B9" transform="translate(0,0)"/>
<path d="" fill="#467397" transform="translate(0,0)"/>
<path d="" fill="#3A5971" transform="translate(0,0)"/>
<path d="" fill="#7B94AA" transform="translate(0,0)"/>
<path d="" fill="#294977" transform="translate(0,0)"/>
<path d="" fill="#6F97B4" transform="translate(0,0)"/>
<path d="" fill="#5C668D" transform="translate(0,0)"/>
<path d="" fill="#32536F" transform="translate(0,0)"/>
<path d="" fill="#2A5A89" transform="translate(0,0)"/>
<path d="" fill="#061F45" transform="translate(0,0)"/>
<path d="M0 0 C2 1 2 1 2 1 Z " fill="#214A73" transform="translate(48,10)"/>
<path d="" fill="#3D7299" transform="translate(0,0)"/>
<path d="" fill="#CBE9FF" transform="translate(0,0)"/>
<path d="" fill="#6C88A1" transform="translate(0,0)"/>
<path d="" fill="#496C8C" transform="translate(0,0)"/>
<path d="" fill="#9EC5E3" transform="translate(0,0)"/>
<path d="" fill="#6A90AF" transform="translate(0,0)"/>
<path d="" fill="#477A9D" transform="translate(0,0)"/>
<path d="" fill="#6495B9" transform="translate(0,0)"/>
<path d="" fill="#6C94B4" transform="translate(0,0)"/>
<path d="" fill="#9AB2CA" transform="translate(0,0)"/>
<path d="" fill="#2F5F85" transform="translate(0,0)"/>
<path d="" fill="#316591" transform="translate(0,0)"/>
<path d="" fill="#5D87AD" transform="translate(0,0)"/>
<path d="" fill="#628EB1" transform="translate(0,0)"/>
<path d="" fill="#3A6488" transform="translate(0,0)"/>
<path d="" fill="#000B2B" transform="translate(0,0)"/>
<path d="" fill="#6588AC" transform="translate(0,0)"/>
<path d="" fill="#3D6685" transform="translate(0,0)"/>
<path d="" fill="#2B5A88" transform="translate(0,0)"/>
<path d="" fill="#628BAB" transform="translate(0,0)"/>
<path d="" fill="#0B3D6C" transform="translate(0,0)"/>
<path d="" fill="#6F95B3" transform="translate(0,0)"/>
<path d="" fill="#4E7397" transform="translate(0,0)"/>
<path d="" fill="#8DB0D8" transform="translate(0,0)"/>
<path d="" fill="#85A3BD" transform="translate(0,0)"/>
<path d="" fill="#6D8399" transform="translate(0,0)"/>
<path d="" fill="#BBDFFC" transform="translate(0,0)"/>
<path d="" fill="#6E91B7" transform="translate(0,0)"/>
<path d="" fill="#125182" transform="translate(0,0)"/>
<path d="" fill="#516681" transform="translate(0,0)"/>
<path d="" fill="#11446B" transform="translate(0,0)"/>
<path d="" fill="#7B9EC2" transform="translate(0,0)"/>
<path d="" fill="#3E739C" transform="translate(0,0)"/>
<path d="" fill="#5C86AA" transform="translate(0,0)"/>
<path d="" fill="#B4CBDA" transform="translate(0,0)"/>
<path d="" fill="#709ABC" transform="translate(0,0)"/>
<path d="" fill="#8AA2B7" transform="translate(0,0)"/>
<path d="" fill="#00355F" transform="translate(0,0)"/>
<path d="" fill="#204B85" transform="translate(0,0)"/>
<path d="" fill="#7095B8" transform="translate(0,0)"/>
<path d="" fill="#386891" transform="translate(0,0)"/>
<path d="" fill="#215581" transform="translate(0,0)"/>
<path d="" fill="#759DBF" transform="translate(0,0)"/>
<path d="" fill="#507395" transform="translate(0,0)"/>
<path d="" fill="#5F8DB2" transform="translate(0,0)"/>
<path d="" fill="#36668A" transform="translate(0,0)"/>
<path d="" fill="#0E3D6B" transform="translate(0,0)"/>
<path d="" fill="#5A8BAC" transform="translate(0,0)"/>
<path d="" fill="#5C85B0" transform="translate(0,0)"/>
<path d="" fill="#0D426B" transform="translate(0,0)"/>
<path d="" fill="#5A7BA2" transform="translate(0,0)"/>
<path d="" fill="#3C6995" transform="translate(0,0)"/>
<path d="" fill="#4B7DA8" transform="translate(0,0)"/>
<path d="" fill="#5F7C99" transform="translate(0,0)"/>
</svg>
