<?xml version="1.0" encoding="iso-8859-1"?>
<!-- Uploaded to: SVG Repo, www.svgrepo.com, Generator: SVG Repo Mixer Tools -->
<!DOCTYPE svg PUBLIC "-//W3C//DTD SVG 1.1//EN" "http://www.w3.org/Graphics/SVG/1.1/DTD/svg11.dtd">
<svg fill="#000000" version="1.1" id="Capa_1" xmlns="http://www.w3.org/2000/svg" xmlns:xlink="http://www.w3.org/1999/xlink" 
	 width="800px" height="800px" viewBox="0 0 191.638 191.638"
	 xml:space="preserve">
<g>
	<g>
		<path d="M8.122,109.995c2.049-0.032,2.694-1.973,3.172-3.392c0.62-1.866,1.112-3.026,2.671-3.364
			c1.798-0.369,4.24,1.224,6.816,2.922c2.829,1.894,6.043,4.013,9.45,4.013c0.011,0,0.156-0.005,0.167-0.005
			c3.797-0.074,7.08-1.514,9.877-3.391c-0.68,1.903-1.118,3.913-1.123,6.038c-0.026,10.251,6.373,16.342,13.086,21.373
			c1.706,1.34,3.375,3.485,1.83,6.254c-0.917,1.625-2.992,2.194-4.611,1.281c-0.562-0.321-0.994-0.827-1.16-1.46
			c-0.174-0.628-0.103-1.287,0.232-1.872c0.443-0.797,1.474-1.07,2.284-0.644c0.52,0.301,0.701,0.97,0.406,1.477
			c-0.353,0.653-0.121,1.477,0.533,1.835c0.644,0.369,1.463,0.132,1.838-0.521c1.01-1.793,0.361-4.093-1.448-5.147
			c-2.117-1.16-4.796-0.417-5.961,1.688c-0.681,1.197-0.844,2.584-0.475,3.913c0.361,1.323,1.236,2.426,2.428,3.09
			c0.939,0.527,1.954,0.781,2.972,0.781c2.13,0,4.195-1.118,5.308-3.102c0.733-1.286,0.913-2.615,0.804-3.934
			c1.284,0.923,2.587,1.84,3.778,2.789c8.129,6.45,12.675,10.441,11.607,17.382c-0.427,2.8-1.957,5.269-4.306,6.945
			c-2.444,1.745-5.524,2.441-8.477,1.914c-4.627-0.839-7.733-5.289-6.895-9.914c0.129-0.733-0.356-1.439-1.086-1.566
			c-0.751-0.121-1.447,0.349-1.571,1.092c-1.086,6.091,2.987,11.944,9.094,13.046c0.789,0.133,1.608,0.211,2.413,0.211
			c2.879,0,5.734-0.896,8.1-2.589c2.956-2.109,4.862-5.216,5.4-8.738c1.128-7.304-3.13-12.065-8.878-16.869h58.872
			c-5.731,4.804-10.003,9.565-8.875,16.869c0.538,3.528,2.447,6.64,5.411,8.743c2.362,1.688,5.21,2.59,8.089,2.59
			c0.791,0,1.614-0.079,2.405-0.211c6.101-1.103,10.188-6.956,9.102-13.047c-0.132-0.743-0.854-1.223-1.571-1.092
			c-0.738,0.133-1.234,0.834-1.087,1.566c0.823,4.614-2.277,9.076-6.902,9.914c-2.964,0.538-6.027-0.168-8.459-1.914
			c-2.362-1.682-3.892-4.155-4.313-6.945c-1.065-6.945,3.48-10.926,11.602-17.387c1.197-0.949,2.494-1.861,3.781-2.784
			c-0.111,1.308,0.084,2.637,0.796,3.935c1.118,1.978,3.201,3.09,5.311,3.09c1.018,0,2.03-0.248,2.969-0.775
			c1.208-0.67,2.062-1.761,2.432-3.074c0.363-1.323,0.205-2.721-0.48-3.929c-0.564-1.018-1.487-1.745-2.61-2.072
			c-1.149-0.321-2.347-0.163-3.364,0.411c-1.793,1.018-2.415,3.317-1.419,5.126c0.349,0.648,1.177,0.881,1.836,0.517
			c0.648-0.354,0.88-1.187,0.532-1.835c-0.301-0.517-0.116-1.171,0.385-1.461c0.396-0.227,0.854-0.29,1.303-0.158
			c0.417,0.116,0.791,0.396,1.002,0.78c0.327,0.58,0.396,1.245,0.227,1.883c-0.174,0.622-0.574,1.139-1.165,1.455
			c-1.614,0.907-3.687,0.344-4.609-1.271c-1.508-2.727,0.068-4.847,1.729-6.19c6.761-5.031,13.2-11.133,13.174-21.442
			c-0.011-2.072-0.433-4.034-1.081-5.896c2.874,1.84,6.238,3.248,10.077,3.248c0.011,0,0.327-0.005,0.338-0.005
			c3.48-0.068,6.645-2.368,9.449-4.388c2.5-1.798,4.847-3.48,6.671-3.195c1.588,0.29,2.136,1.429,2.816,3.264
			c0.554,1.456,1.234,3.26,3.28,3.26c4.403-0.09,7.752-6.187,7.588-13.886c-0.152-7.622-3.691-13.589-8.131-13.589
			c-2.057,0.032-2.7,1.978-3.175,3.396c-0.612,1.87-1.107,3.03-2.669,3.359c-1.793,0.372-4.234-1.216-6.812-2.922
			c-2.827-1.88-6.044-4.008-9.608-4.008h-0.011c-3.797,0.077-7.088,1.519-9.877,3.396c0.68-1.904,1.112-3.913,1.128-6.041
			c0.026-10.259-6.375-16.35-13.094-21.368c-1.698-1.339-3.375-3.494-1.824-6.254c0.917-1.629,2.99-2.202,4.608-1.289
			c0.564,0.319,0.981,0.83,1.155,1.463c0.174,0.625,0.101,1.284-0.232,1.87c-0.448,0.786-1.471,1.083-2.277,0.646
			c-0.518-0.303-0.707-0.965-0.417-1.479c0.364-0.648,0.132-1.468-0.517-1.84c-0.633-0.359-1.466-0.138-1.841,0.517
			c-1.013,1.793-0.369,4.1,1.445,5.157c2.125,1.166,4.814,0.411,5.964-1.685c0.675-1.2,0.844-2.587,0.485-3.921
			c-0.374-1.324-1.239-2.418-2.431-3.082c-2.922-1.638-6.635-0.599-8.285,2.328c-0.728,1.294-0.907,2.618-0.796,3.929
			c-1.287-0.923-2.59-1.835-3.786-2.79c-8.121-6.444-12.667-10.434-11.602-17.373c0.427-2.803,1.956-5.271,4.318-6.948
			c2.421-1.745,5.511-2.441,8.459-1.914c4.625,0.833,7.741,5.289,6.902,9.917c-0.132,0.733,0.343,1.437,1.087,1.566
			c0.717,0.113,1.439-0.359,1.571-1.092c1.076-6.096-3.001-11.95-9.102-13.047c-3.665-0.653-7.494,0.211-10.505,2.371
			c-2.959,2.118-4.862,5.215-5.4,8.744c-1.165,7.472,3.312,12.295,9.271,17.204h-59.65c5.941-4.904,10.421-9.732,9.271-17.21
			c-0.551-3.522-2.458-6.631-5.411-8.743c-3.029-2.159-6.863-3.035-10.513-2.365c-6.099,1.103-10.17,6.951-9.083,13.047
			c0.113,0.733,0.809,1.199,1.561,1.092c0.738-0.13,1.231-0.833,1.084-1.566c-0.82-4.628,2.27-9.084,6.897-9.917
			c2.974-0.522,6.03,0.169,8.456,1.914c2.365,1.683,3.895,4.15,4.313,6.953c1.065,6.94-3.483,10.924-11.594,17.374
			c-1.21,0.949-2.494,1.867-3.778,2.785c0.108-1.306-0.087-2.629-0.799-3.935c-1.648-2.921-5.363-3.96-8.279-2.317
			c-1.205,0.67-2.067,1.762-2.437,3.077c-0.366,1.323-0.206,2.716,0.475,3.921c0.562,1.015,1.498,1.751,2.621,2.064
			c1.149,0.321,2.339,0.171,3.359-0.406c1.779-1.015,2.423-3.317,1.429-5.12c-0.361-0.651-1.197-0.878-1.835-0.527
			c-0.654,0.355-0.886,1.181-0.535,1.835c0.298,0.52,0.113,1.176-0.388,1.463c-0.396,0.227-0.859,0.282-1.303,0.161
			c-0.427-0.118-0.788-0.398-0.999-0.786c-0.335-0.575-0.403-1.239-0.232-1.87c0.18-0.622,0.578-1.139,1.163-1.463
			c1.629-0.902,3.691-0.335,4.611,1.284c1.517,2.724-0.061,4.838-1.729,6.188c-6.75,5.039-13.191,11.135-13.165,21.45
			c0.005,2.102,0.438,4.087,1.102,5.967c-2.953-1.885-6.415-3.322-10.433-3.322l0,0c-3.483,0.071-6.647,2.368-9.461,4.393
			c-2.489,1.809-4.812,3.515-6.663,3.19c-1.587-0.276-2.133-1.416-2.813-3.261c-0.556-1.453-1.236-3.262-3.288-3.262
			c-4.401,0.098-7.75,6.194-7.583,13.901C0.148,104.036,3.685,109.995,8.122,109.995z M137.901,131.979
			c-0.011,0.006-0.021,0-0.026,0.006c-0.026,0.016-0.026,0.031-0.048,0.047c-1.171,0.87-2.367,1.729-3.538,2.584
			c-1.819,1.282-3.612,2.573-5.284,3.902c-0.259,0.206-0.506,0.406-0.765,0.606c-0.206-0.132-0.417-0.29-0.681-0.29H63.09
			c-0.129-0.11-0.274-0.211-0.412-0.327c-1.685-1.334-3.488-2.62-5.292-3.918c-1.187-0.844-2.365-1.708-3.531-2.589
			c-0.01-0.011-0.026-0.021-0.037-0.026c-0.005-0.006-0.01,0-0.01-0.006c-6.347-4.74-11.968-10.146-11.947-19.152
			c0.019-4.372,1.756-8.312,4.899-11.127c2.442-2.173,5.616-3.491,9.044-3.945c-0.949,0.892-1.764,1.931-2.241,3.333
			c-0.604,1.804-0.496,3.724,0.335,5.442c0.828,1.703,2.281,2.99,4.084,3.602c0.63,0.217,1.294,0.327,1.948,0.327
			c0.896,0,1.793-0.206,2.624-0.606c1.426-0.712,2.489-1.914,2.998-3.417c0.907-2.61-0.496-5.495-3.122-6.413
			c-1.073-0.379-2.236-0.311-3.267,0.201c-1.031,0.506-1.819,1.387-2.186,2.479c-0.153,0.475,0.037,0.917,0.335,1.255
			c0.047,0.132-0.011,0.279,0.074,0.39c0.503,0.781,1.508,1.013,2.286,0.507c0.712-0.448,0.88-1.323,0.562-2.067
			c0.058-0.037,0.069-0.11,0.119-0.137c0.377-0.19,0.789-0.217,1.208-0.09c1.236,0.433,1.896,1.771,1.463,3
			c-0.274,0.812-0.852,1.472-1.629,1.867c-0.789,0.38-1.685,0.443-2.521,0.147c-1.118-0.374-2.015-1.176-2.534-2.226
			c-0.525-1.06-0.583-2.268-0.211-3.385c1.35-3.939,5.081-3.992,7.351-3.629c2.531,0.854,4.778,2.384,6.489,4.515
			c2.376,2.958,3.467,6.649,3.051,10.431c-0.335,2.948-1.77,5.59-4.082,7.441c-2.31,1.855-5.221,2.699-8.147,2.362
			c-2.286-0.248-4.332-1.371-5.764-3.159c-1.439-1.787-2.094-4.029-1.846-6.307c0.087-0.738-0.453-1.408-1.2-1.477
			c-0.793-0.116-1.408,0.453-1.479,1.191c-0.335,2.995,0.541,5.943,2.415,8.295c1.901,2.353,4.588,3.823,7.575,4.15
			c0.071,0.011,0.119-0.005,0.201,0.006c0.182,0.105,0.34,0.236,0.572,0.236H129.2c0.205,0,0.348-0.126,0.538-0.221
			c0.484,0,0.965,0.047,1.45-0.016c6.19-0.681,10.684-6.25,10.014-12.445c-0.095-0.744-0.706-1.303-1.492-1.197
			c-0.743,0.079-1.266,0.743-1.197,1.477c0.512,4.703-2.9,8.954-7.609,9.471c-2.922,0.332-5.832-0.517-8.147-2.362
			c-2.299-1.851-3.749-4.493-4.071-7.431c-0.785-7.087,3.86-13.484,10.558-15.225c2.246-0.158,5.179,0.354,6.339,3.75
			c0.39,1.112,0.311,2.314-0.211,3.375c-0.517,1.065-1.413,1.856-2.531,2.236c-0.823,0.289-1.725,0.231-2.526-0.158
			c-0.78-0.386-1.35-1.039-1.635-1.873c-0.205-0.585-0.163-1.229,0.116-1.776c0.274-0.564,0.754-0.991,1.36-1.197
			c0.385-0.138,0.807-0.116,1.208,0.079c0.058,0.026,0.073,0.105,0.121,0.137c-0.338,0.744-0.147,1.625,0.559,2.067
			c0.775,0.496,1.783,0.264,2.284-0.522c0.084-0.11,0.031-0.247,0.073-0.363c0.316-0.348,0.496-0.791,0.332-1.266
			c-0.363-1.092-1.144-1.973-2.183-2.479c-1.028-0.506-2.188-0.569-3.265-0.2c-1.276,0.438-2.32,1.35-2.911,2.573
			c-0.58,1.207-0.675,2.573-0.231,3.834c0.512,1.486,1.571,2.716,2.995,3.417c0.833,0.411,1.729,0.622,2.637,0.622
			c0.654,0,1.308-0.116,1.951-0.338c1.793-0.611,3.254-1.898,4.082-3.606c0.827-1.698,0.959-3.644,0.332-5.437
			c-0.438-1.282-1.155-2.289-1.999-3.144c3.328,0.485,6.418,1.777,8.802,3.907c3.148,2.816,4.883,6.761,4.898,11.127
			C149.851,121.834,144.234,127.239,137.901,131.979z M75.1,94.428h-7.683c5.545-3.267,9.007-9.571,8.266-16.385
			c-0.401-3.654-2.191-6.939-5.065-9.244c-0.082-0.066-0.168-0.103-0.248-0.158h50.941c-0.084,0.066-0.174,0.103-0.258,0.163
			c-2.858,2.305-4.662,5.59-5.062,9.255c-0.485,4.488,0.791,8.894,3.628,12.409c1.34,1.667,2.969,3.011,4.768,4.04h-7.795
			c-0.748,0-1.35,0.601-1.35,1.35s0.602,1.351,1.35,1.351h7.694c-5.559,3.264-9.018,9.565-8.269,16.385
			c0.39,3.654,2.193,6.934,5.067,9.238c0.237,0.19,0.507,0.327,0.749,0.49H69.89c0.253-0.163,0.533-0.3,0.77-0.495
			c2.858-2.305,4.662-5.59,5.065-9.255c0.488-4.482-0.788-8.886-3.628-12.408c-1.34-1.661-2.964-3.006-4.762-4.034h7.796
			c0.747,0,1.35-0.606,1.35-1.351C76.45,95.029,75.843,94.428,75.1,94.428z M161.452,84.149c2.584,0,5.311,1.809,7.958,3.56
			c3.053,2.025,6.032,3.897,8.88,3.31c3.175-0.686,4.071-3.37,4.657-5.145c0.189-0.562,0.479-1.416,0.712-1.55
			c2.409,0,5.21,4.493,5.326,10.937c0.132,6.502-2.5,11.096-4.921,11.148c-0.205-0.132-0.527-0.976-0.732-1.519
			c-0.665-1.751-1.661-4.404-4.889-4.974c-2.885-0.501-5.743,1.514-8.706,3.671c-2.595,1.883-5.29,3.834-7.932,3.881l-0.279,1.355
			v-1.35c-7.89,0-13.99-6.972-16.442-10.273h8.526c0.639,3.032,3.223,5.363,6.429,5.363c0.011,0,0.132,0,0.143,0
			c1.798-0.037,3.491-0.77,4.725-2.067c1.239-1.292,1.914-2.995,1.883-4.793c-0.084-3.636-3.08-6.598-6.866-6.598
			c-1.809,0.04-3.485,0.778-4.74,2.086c-0.887,0.931-1.351,2.091-1.604,3.304h-8.152C148.031,90.884,153.759,84.303,161.452,84.149z
			 M156.158,95.276c0.115-0.822,0.405-1.603,0.996-2.215c0.76-0.791,1.762-1.233,2.922-1.25c2.167,0,3.981,1.772,4.028,3.95
			c0.021,1.076-0.379,2.094-1.117,2.869c-0.755,0.77-1.751,1.213-2.832,1.233l-0.101,1.351v-1.351c-2.004,0-3.606-1.492-3.896-3.433
			c0.1-0.189,0.237-0.354,0.237-0.575C156.396,95.625,156.253,95.472,156.158,95.276z M53.779,59.654
			c0.005-0.01,0.016-0.005,0.029-0.01c0.026-0.016,0.026-0.037,0.047-0.047c1.171-0.875,2.365-1.732,3.536-2.581
			c1.822-1.29,3.615-2.576,5.287-3.905c0.029-0.021,0.05-0.037,0.077-0.058c0.065,0.01,0.108,0.069,0.168,0.069h64.658
			c0.364,0,0.707-0.15,0.949-0.388c0.153,0.124,0.316,0.253,0.475,0.377c1.683,1.339,3.485,2.621,5.3,3.921
			c1.191,0.849,2.373,1.706,3.544,2.586c0.011,0.005,0.016,0.016,0.026,0.026c0.005,0,0.011,0,0.016,0.005
			c6.339,4.743,11.96,10.148,11.939,19.156c-0.017,4.364-1.757,8.311-4.904,11.119c-2.432,2.181-5.596,3.502-9.018,3.955
			c0.954-0.891,1.745-1.953,2.22-3.34c0.617-1.798,0.496-3.731-0.332-5.437c-0.833-1.706-2.289-2.993-4.082-3.602
			c-1.519-0.525-3.143-0.422-4.599,0.285c-1.429,0.709-2.488,1.917-3,3.409c-0.907,2.619,0.501,5.5,3.122,6.413
			c1.075,0.38,2.235,0.309,3.27-0.192c1.038-0.515,1.819-1.395,2.188-2.484c0.158-0.477-0.032-0.913-0.333-1.263
			c-0.047-0.126,0.011-0.271-0.073-0.39c-0.501-0.772-1.514-1-2.283-0.506c-0.707,0.454-0.881,1.326-0.56,2.072
			c-0.068,0.037-0.079,0.114-0.126,0.146c-0.38,0.185-0.802,0.206-1.203,0.076c-1.239-0.427-1.903-1.767-1.466-2.998
			c0.274-0.81,0.854-1.474,1.63-1.856c0.791-0.385,1.688-0.443,2.521-0.158c1.118,0.379,2.015,1.178,2.531,2.231
			c0.527,1.06,0.585,2.262,0.211,3.38c-1.35,3.942-5.084,4-7.346,3.631c-2.537-0.849-4.783-2.384-6.492-4.517
			c-2.367-2.953-3.47-6.652-3.042-10.426c0.326-2.945,1.771-5.584,4.081-7.44c1.54-1.237,3.364-1.978,5.269-2.271h1.191
			c0.111,0,0.18-0.095,0.296-0.119c0.464-0.005,0.933-0.037,1.402,0.018c4.709,0.512,8.121,4.762,7.604,9.472
			c-0.085,0.738,0.453,1.408,1.202,1.484c0.791,0.076,1.413-0.459,1.487-1.2c0.664-6.188-3.818-11.77-10.015-12.445
			c-1.139-0.121-2.257-0.061-3.359,0.09H63.841c-1.107-0.15-2.225-0.216-3.354-0.095c-6.188,0.68-10.687,6.262-10.001,12.45
			c0.082,0.741,0.686,1.276,1.474,1.2c0.751-0.087,1.263-0.752,1.205-1.49c-0.525-4.704,2.89-8.954,7.602-9.471
			c0.087-0.008,0.143,0.005,0.216,0c0.113,0.021,0.164,0.11,0.282,0.11h2.392c1.912,0.293,3.715,1.028,5.266,2.271
			c2.299,1.851,3.742,4.485,4.071,7.425c0.778,7.085-3.86,13.487-10.558,15.222c-2.246,0.158-5.179-0.348-6.339-3.741
			c-0.39-1.118-0.319-2.317,0.211-3.38c0.517-1.061,1.414-1.859,2.531-2.236c0.833-0.293,1.725-0.227,2.523,0.161
			c0.783,0.379,1.35,1.036,1.63,1.869c0.206,0.588,0.168,1.226-0.113,1.777c-0.274,0.562-0.762,0.991-1.361,1.197
			c-0.398,0.134-0.825,0.113-1.215-0.074c-0.058-0.034-0.069-0.113-0.113-0.143c0.329-0.743,0.142-1.624-0.562-2.067
			c-0.778-0.499-1.782-0.264-2.283,0.519c-0.087,0.114-0.026,0.248-0.077,0.367c-0.306,0.351-0.496,0.788-0.335,1.268
			c0.364,1.092,1.152,1.973,2.184,2.479c1.025,0.509,2.196,0.586,3.262,0.201c1.278-0.438,2.32-1.35,2.911-2.565
			c0.583-1.21,0.675-2.576,0.232-3.833c-0.509-1.501-1.571-2.716-2.993-3.417c-1.453-0.72-3.061-0.817-4.596-0.298
			c-1.803,0.612-3.262,1.896-4.082,3.607c-0.831,1.706-0.968,3.639-0.335,5.437c0.443,1.287,1.171,2.294,2.02,3.148
			c-3.343-0.485-6.426-1.782-8.825-3.923c-3.14-2.816-4.88-6.755-4.896-11.119C41.83,69.798,47.44,64.393,53.779,59.654z
			 M7.616,85.204c0.211,0.146,0.525,0.976,0.733,1.527c0.659,1.756,1.664,4.4,4.889,4.967c2.89,0.466,5.745-1.516,8.709-3.665
			c2.592-1.885,5.287-3.829,8.208-3.884c7.884,0,13.988,6.972,16.438,10.272h-8.524c-0.633-3.029-3.241-5.362-6.579-5.362h-0.005
			c-1.798,0.031-3.483,0.767-4.725,2.062c-1.242,1.297-1.912,3.006-1.88,4.799c0.082,3.639,3.091,6.592,6.729,6.592
			c0.01,0,0.113,0,0.118,0c1.809-0.031,3.488-0.775,4.741-2.083c0.886-0.923,1.35-2.094,1.605-3.301h8.153
			c-2.582,3.606-8.261,10.193-15.881,10.347l-0.114,1.354v-1.35c-2.586,0-5.308-1.809-7.96-3.56
			c-2.655-1.767-5.168-3.434-7.739-3.434c-0.377,0-0.775,0.043-1.139,0.111c-3.185,0.696-4.082,3.375-4.664,5.152
			c-0.185,0.564-0.47,1.418-0.702,1.545c-2.415,0-5.212-4.488-5.332-10.922C2.561,89.858,5.195,85.268,7.616,85.204z M35.522,96.357
			c-0.113,0.812-0.406,1.604-0.994,2.205c-0.762,0.791-1.758,1.233-2.839,1.244l-0.082,1.35v-1.35c-2.17,0-3.979-1.767-4.029-3.944
			c-0.021-1.071,0.38-2.094,1.118-2.864c0.751-0.774,1.751-1.218,2.945-1.239c1.99,0,3.594,1.508,3.881,3.444
			c-0.098,0.185-0.237,0.348-0.237,0.574C35.285,95.999,35.425,96.157,35.522,96.357z"/>
	</g>
</g>
</svg>