<?xml version="1.0" standalone="no"?>
<!DOCTYPE svg PUBLIC "-//W3C//DTD SVG 20010904//EN"
 "http://www.w3.org/TR/2001/REC-SVG-20010904/DTD/svg10.dtd">
<svg version="1.0" xmlns="http://www.w3.org/2000/svg"
 width="512.000000pt" height="512.000000pt" viewBox="0 0 512.000000 512.000000"
 preserveAspectRatio="xMidYMid meet">

<g transform="translate(0.000000,512.000000) scale(0.100000,-0.100000)"
fill="#000000" stroke="none">
<path d="M2506 4810 c-24 -49 -55 -121 -68 -161 l-23 -71 -60 -27 c-129 -60
-226 -169 -266 -303 -18 -58 -21 -86 -16 -162 8 -138 69 -302 257 -693 87
-182 91 -194 81 -226 -30 -89 -150 -125 -212 -63 -15 15 -40 74 -68 157 -107
327 -215 588 -294 706 -125 188 -369 258 -589 169 l-57 -23 -59 28 c-58 27
-150 60 -205 73 -26 6 -27 5 -21 -21 13 -55 45 -146 74 -207 l29 -62 -27 -64
c-24 -58 -27 -77 -26 -180 0 -135 18 -192 90 -290 55 -74 142 -133 308 -207
124 -56 419 -165 546 -203 94 -28 126 -51 141 -100 10 -33 9 -44 -10 -82 -24
-50 -57 -72 -104 -71 -19 1 -123 46 -247 106 -347 170 -560 247 -680 247 -197
0 -387 -135 -455 -323 l-22 -59 -74 -25 c-82 -27 -229 -100 -229 -114 0 -13
176 -97 251 -120 67 -20 69 -22 100 -80 61 -115 169 -203 293 -241 170 -52
348 -2 835 233 101 49 197 89 213 89 44 0 98 -55 105 -106 6 -47 -16 -95 -51
-113 -12 -6 -95 -36 -186 -67 -300 -102 -503 -190 -613 -267 -177 -124 -244
-383 -152 -585 l24 -52 -44 -88 c-40 -81 -73 -167 -89 -235 -6 -24 -4 -28 11
-23 10 2 37 10 60 16 57 14 171 64 234 101 l51 30 47 -18 c35 -14 74 -18 161
-18 102 1 122 4 178 27 82 35 153 88 195 146 74 100 174 327 273 617 67 196
87 225 154 225 75 0 140 -53 140 -115 0 -20 -36 -107 -99 -236 -162 -335 -241
-553 -241 -669 0 -179 117 -360 284 -439 l64 -31 21 -69 c23 -77 107 -251 121
-251 14 0 98 174 121 251 l21 68 61 29 c133 62 228 170 268 304 53 172 3 350
-233 838 -95 197 -102 227 -61 272 28 31 108 68 148 68 66 0 87 -32 161 -249
134 -396 240 -628 329 -717 131 -131 345 -175 522 -105 l46 18 79 -33 c71 -31
189 -67 195 -61 5 6 -29 119 -57 187 l-30 72 30 63 c88 184 51 411 -91 553
-90 91 -352 209 -751 342 -196 64 -220 78 -235 138 -9 36 15 102 49 134 50 46
80 40 289 -61 486 -235 665 -284 837 -232 132 40 253 146 303 267 21 50 23 51
91 73 78 25 248 108 248 120 0 13 -146 86 -233 117 -45 15 -81 34 -84 43 -34
106 -136 228 -231 279 -73 39 -159 62 -233 62 -115 0 -339 -81 -678 -246 -121
-59 -226 -104 -243 -104 -52 0 -88 27 -115 86 -30 66 -26 108 15 146 18 16 90
46 212 87 351 119 589 226 679 307 59 53 104 120 132 200 31 84 31 225 1 312
-20 56 -21 65 -8 85 33 49 113 273 103 284 -7 6 -130 -33 -209 -67 l-90 -38
-49 24 c-190 96 -437 48 -577 -111 -78 -88 -184 -328 -307 -690 -65 -193 -73
-211 -104 -232 -40 -27 -82 -29 -122 -6 -30 18 -59 67 -59 101 0 10 47 115
104 233 165 339 246 563 246 678 0 179 -117 361 -283 440 l-63 30 -23 71 c-26
81 -108 250 -121 250 -5 0 -29 -40 -54 -90z m93 -727 c113 -225 116 -542 7
-779 -19 -40 -40 -74 -46 -74 -6 0 -27 34 -46 74 -109 237 -106 554 7 779 16
31 34 57 39 57 5 0 23 -26 39 -57z m-1050 -433 c235 -91 489 -370 536 -589 l7
-33 -33 7 c-219 47 -498 301 -589 536 -48 124 -45 127 79 79z m2131 13 c0 -32
-64 -177 -105 -238 -119 -180 -349 -353 -516 -390 -31 -7 -31 -7 -24 26 26
117 129 282 247 394 101 98 178 149 283 192 91 37 115 40 115 16z m-2140 -983
c47 -5 112 -17 145 -25 74 -19 205 -80 205 -95 0 -15 -133 -76 -207 -95 -152
-40 -343 -40 -498 0 -74 19 -205 80 -205 95 0 16 133 76 209 96 123 31 228 38
351 24z m2260 0 c47 -6 116 -20 155 -31 79 -24 185 -75 185 -89 0 -5 -26 -23
-57 -39 -225 -113 -542 -116 -779 -7 -40 19 -74 40 -74 46 0 15 130 74 210 95
124 32 235 40 360 25z m-1715 -622 c-47 -218 -301 -497 -536 -588 -124 -48
-127 -45 -79 79 77 200 293 420 495 504 111 46 129 47 120 5z m1068 -5 c142
-57 326 -213 422 -358 41 -61 105 -206 105 -237 0 -25 -24 -22 -115 15 -105
43 -182 94 -283 192 -121 115 -221 275 -247 396 -7 31 -7 31 24 24 18 -4 60
-18 94 -32z m-547 -237 c85 -186 104 -419 49 -631 -19 -73 -80 -205 -95 -205
-15 0 -76 132 -95 205 -40 155 -40 345 0 500 19 74 80 205 95 205 6 0 27 -33
46 -74z"/>
</g>
</svg>
