<?xml version="1.0" encoding="UTF-8"?>
<svg version="1.1" xmlns="http://www.w3.org/2000/svg" width="854" height="546">
<path d="M0 0 C24.8978415 -0.62767668 48.97612161 7.63951035 67.71875 24.15625 C68.49863281 24.81625 69.27851563 25.47625 70.08203125 26.15625 C74.41198735 29.88219542 78.21082134 33.77212862 81.88671875 38.13671875 C84.62677445 41.15720659 87.69471803 43.75892167 90.80078125 46.39453125 C92.71875 48.15625 92.71875 48.15625 94.71875 51.15625 C97.26699243 51.9967542 99.74723528 52.69562196 102.34375 53.34375 C123.4233636 59.09988144 140.62548367 71.56318759 154.80078125 88.05859375 C156.60644431 90.0334228 158.45482356 91.66323449 160.53125 93.34375 C175.09877519 105.82202305 182.91285833 123.29196794 188.71875 141.15625 C189.90210938 140.74632812 191.08546875 140.33640625 192.3046875 139.9140625 C211.23573601 133.42255784 228.59486036 130.9166908 248.53515625 133.5859375 C249.22182373 133.67665527 249.90849121 133.76737305 250.6159668 133.86083984 C252.05050003 134.06237069 253.481838 134.28772599 254.90942383 134.53369141 C260.89540002 135.44617584 265.53091541 134.53479891 271.28125 132.78125 C279.04213904 130.5012148 286.02174029 128.87647759 294.14453125 129.515625 C304.20227738 130.62473978 304.20227738 130.62473978 313.67529297 128.04589844 C316.9433921 125.13140345 319.21824584 121.54829657 321.54589844 117.87060547 C331.8695606 102.78052309 352.3595298 93.59808285 369.90625 90.28125 C390.57618597 86.85530692 410.67669762 89.44432287 429.71875 98.15625 C430.33234375 98.43662109 430.9459375 98.71699219 431.578125 99.00585938 C439.51417603 102.84670459 445.61571271 107.8391752 451.4765625 114.36328125 C462.21012229 127.60308342 462.21012229 127.60308342 476.83984375 134.671875 C481.66038985 134.78091919 486.34160523 134.16143407 491.09863281 133.43017578 C495.24160355 132.99704 499.03681006 133.64514011 503.09375 134.46875 C504.35960937 134.71238281 505.62546875 134.95601562 506.9296875 135.20703125 C509.75395707 135.91455445 512.13467775 136.71097466 514.8125 137.76171875 C521.04214437 139.8991335 527.34288436 139.34500916 533.84375 139.15625 C558.45682662 138.83437018 579.01302344 144.76787367 597.37890625 161.828125 C600.33592524 164.77033421 603.06124104 167.87435832 605.78515625 171.03125 C608.83089459 174.37848567 612.28641892 177.21722966 615.71875 180.15625 C631.15750727 193.41419627 638.57772816 213.39412047 640.71875 233.15625 C640.79305247 235.23919579 640.85683455 237.32256525 640.90625 239.40625 C641.31003667 245.61447001 644.18881879 249.46056742 647.58203125 254.53515625 C659.44923102 273.42612558 660.29208612 299.82485468 655.7578125 321.0625 C648.87828741 349.72946736 629.4287166 375.38768285 604.54736328 391.05957031 C574.99318546 408.78418537 540.37993915 414.7393068 506.71875 407.15625 C502.97132229 406.17388921 499.27803827 405.05066393 495.6015625 403.828125 C489.88132391 402.49495286 485.63768162 405.00964995 480.53125 407.40625 C458.77538864 417.23155934 434.88912712 420.71535823 411.28125 416.90625 C410.59708008 416.79708252 409.91291016 416.68791504 409.20800781 416.57543945 C404.94639869 415.80064762 401.08998182 414.56657216 397.03125 413.05078125 C390.29776285 410.74418906 384.20291205 410.82005044 377.15625 411.09375 C365.26245291 411.33903985 353.18636426 411.12729733 341.71777344 407.52832031 C338.19642959 406.87290653 335.12148097 408.90517001 331.96875 410.34375 C305.70952983 421.70206145 274.87531847 424.10057146 247.53125 415.15625 C241.24187969 413.48023648 236.5420117 415.51886604 230.66015625 417.73828125 C211.62671868 424.83525612 182.80950838 426.27152755 164.015625 417.9609375 C162.75492187 417.37699219 162.75492187 417.37699219 161.46875 416.78125 C155.30593306 414.31612322 149.74304753 415.73906176 143.4152832 416.87646484 C133.5733183 418.6381333 124.07884776 418.84673172 114.15625 417.34375 C108.13100443 416.67226179 103.1220856 418.71729696 97.58984375 420.83203125 C88.99982424 423.94135733 80.66395103 424.43126605 71.59375 424.28125 C70.541875 424.27222656 69.49 424.26320313 68.40625 424.25390625 C65.84350122 424.23060853 63.28125488 424.19790112 60.71875 424.15625 C60.62722656 425.09597656 60.53570312 426.03570312 60.44140625 427.00390625 C59.70692002 432.0942152 57.92925449 436.78577899 56.15625 441.59375 C55.61943604 443.05518433 55.61943604 443.05518433 55.07177734 444.54614258 C52.14222542 452.34994021 48.74147169 459.74905635 44.81347656 467.09326172 C43.60862985 469.36376901 42.43987375 471.65094132 41.2734375 473.94140625 C34.58198066 487.00286254 27.20344899 498.8943034 17.71875 510.15625 C17.05488281 510.96707031 16.39101562 511.77789062 15.70703125 512.61328125 C-0.87168672 532.07258977 -23.86012669 543.86605871 -49.28125 546.15625 C-76.38456941 547.70501111 -99.96280224 538.00703846 -120.03125 520.15625 C-123.83957146 516.62882601 -127.29133602 512.97133643 -130.62109375 508.99609375 C-132.30759224 507.1270566 -134.07692543 505.61445031 -136.03125 504.03125 C-153.59044137 488.95620779 -163.46269909 465.96887263 -165.28125 443.15625 C-166.60960158 417.39732089 -161.47387484 393.13530968 -152.28125 369.15625 C-152.83554688 368.93324219 -153.38984375 368.71023438 -153.9609375 368.48046875 C-173.19309379 357.50454117 -185.10706885 327.81715277 -190.63623047 307.67089844 C-205.89786351 248.17248043 -191.98364253 182.93536564 -161.34375 130.53125 C-155.85949196 121.38434834 -149.98677248 112.48055395 -144.09375 103.59375 C-143.68013214 102.96853455 -143.26651428 102.34331909 -142.84036255 101.69915771 C-125.7880042 75.99843951 -105.5772955 51.13638824 -80.28125 33.15625 C-79.69843262 32.73972168 -79.11561523 32.32319336 -78.51513672 31.89404297 C-55.50604468 15.62479888 -28.63756984 1.3636938 0 0 Z " fill="#FEFDFD" transform="translate(196.28125,-0.15625)"/>
<path d="M0 0 C24.8978415 -0.62767668 48.97612161 7.63951035 67.71875 24.15625 C68.49863281 24.81625 69.27851563 25.47625 70.08203125 26.15625 C74.41198735 29.88219542 78.21082134 33.77212862 81.88671875 38.13671875 C84.62677445 41.15720659 87.69471803 43.75892167 90.80078125 46.39453125 C92.71875 48.15625 92.71875 48.15625 94.71875 51.15625 C97.26699243 51.9967542 99.74723528 52.69562196 102.34375 53.34375 C123.4233636 59.09988144 140.62548367 71.56318759 154.80078125 88.05859375 C156.60644431 90.0334228 158.45482356 91.66323449 160.53125 93.34375 C175.09877519 105.82202305 182.91285833 123.29196794 188.71875 141.15625 C189.90210938 140.74632812 191.08546875 140.33640625 192.3046875 139.9140625 C211.23573601 133.42255784 228.59486036 130.9166908 248.53515625 133.5859375 C249.22182373 133.67665527 249.90849121 133.76737305 250.6159668 133.86083984 C252.05050003 134.06237069 253.481838 134.28772599 254.90942383 134.53369141 C260.89540002 135.44617584 265.53091541 134.53479891 271.28125 132.78125 C279.04213904 130.5012148 286.02174029 128.87647759 294.14453125 129.515625 C304.20227738 130.62473978 304.20227738 130.62473978 313.67529297 128.04589844 C316.9433921 125.13140345 319.21824584 121.54829657 321.54589844 117.87060547 C331.8695606 102.78052309 352.3595298 93.59808285 369.90625 90.28125 C390.57618597 86.85530692 410.67669762 89.44432287 429.71875 98.15625 C430.33234375 98.43662109 430.9459375 98.71699219 431.578125 99.00585938 C439.51417603 102.84670459 445.61571271 107.8391752 451.4765625 114.36328125 C462.21012229 127.60308342 462.21012229 127.60308342 476.83984375 134.671875 C481.66038985 134.78091919 486.34160523 134.16143407 491.09863281 133.43017578 C495.24160355 132.99704 499.03681006 133.64514011 503.09375 134.46875 C504.35960937 134.71238281 505.62546875 134.95601562 506.9296875 135.20703125 C509.75395707 135.91455445 512.13467775 136.71097466 514.8125 137.76171875 C521.04214437 139.8991335 527.34288436 139.34500916 533.84375 139.15625 C558.45682662 138.83437018 579.01302344 144.76787367 597.37890625 161.828125 C600.33592524 164.77033421 603.06124104 167.87435832 605.78515625 171.03125 C608.83089459 174.37848567 612.28641892 177.21722966 615.71875 180.15625 C631.15750727 193.41419627 638.57772816 213.39412047 640.71875 233.15625 C640.79305247 235.23919579 640.85683455 237.32256525 640.90625 239.40625 C641.31003667 245.61447001 644.18881879 249.46056742 647.58203125 254.53515625 C659.44923102 273.42612558 660.29208612 299.82485468 655.7578125 321.0625 C648.87828741 349.72946736 629.4287166 375.38768285 604.54736328 391.05957031 C574.99318546 408.78418537 540.37993915 414.7393068 506.71875 407.15625 C502.97132229 406.17388921 499.27803827 405.05066393 495.6015625 403.828125 C489.88132391 402.49495286 485.63768162 405.00964995 480.53125 407.40625 C458.77538864 417.23155934 434.88912712 420.71535823 411.28125 416.90625 C410.59708008 416.79708252 409.91291016 416.68791504 409.20800781 416.57543945 C404.94639869 415.80064762 401.08998182 414.56657216 397.03125 413.05078125 C390.29776285 410.74418906 384.20291205 410.82005044 377.15625 411.09375 C365.26245291 411.33903985 353.18636426 411.12729733 341.71777344 407.52832031 C338.19642959 406.87290653 335.12148097 408.90517001 331.96875 410.34375 C305.70952983 421.70206145 274.87531847 424.10057146 247.53125 415.15625 C241.24187969 413.48023648 236.5420117 415.51886604 230.66015625 417.73828125 C211.62671868 424.83525612 182.80950838 426.27152755 164.015625 417.9609375 C162.75492187 417.37699219 162.75492187 417.37699219 161.46875 416.78125 C155.30593306 414.31612322 149.74304753 415.73906176 143.4152832 416.87646484 C133.5733183 418.6381333 124.07884776 418.84673172 114.15625 417.34375 C108.13100443 416.67226179 103.1220856 418.71729696 97.58984375 420.83203125 C88.99982424 423.94135733 80.66395103 424.43126605 71.59375 424.28125 C70.541875 424.27222656 69.49 424.26320313 68.40625 424.25390625 C65.84350122 424.23060853 63.28125488 424.19790112 60.71875 424.15625 C60.62722656 425.09597656 60.53570312 426.03570312 60.44140625 427.00390625 C59.70692002 432.0942152 57.92925449 436.78577899 56.15625 441.59375 C55.61943604 443.05518433 55.61943604 443.05518433 55.07177734 444.54614258 C52.14222542 452.34994021 48.74147169 459.74905635 44.81347656 467.09326172 C43.60862985 469.36376901 42.43987375 471.65094132 41.2734375 473.94140625 C34.58198066 487.00286254 27.20344899 498.8943034 17.71875 510.15625 C17.05488281 510.96707031 16.39101562 511.77789062 15.70703125 512.61328125 C-0.87168672 532.07258977 -23.86012669 543.86605871 -49.28125 546.15625 C-76.38456941 547.70501111 -99.96280224 538.00703846 -120.03125 520.15625 C-123.83957146 516.62882601 -127.29133602 512.97133643 -130.62109375 508.99609375 C-132.30759224 507.1270566 -134.07692543 505.61445031 -136.03125 504.03125 C-153.59044137 488.95620779 -163.46269909 465.96887263 -165.28125 443.15625 C-166.60960158 417.39732089 -161.47387484 393.13530968 -152.28125 369.15625 C-152.83554688 368.93324219 -153.38984375 368.71023438 -153.9609375 368.48046875 C-173.19309379 357.50454117 -185.10706885 327.81715277 -190.63623047 307.67089844 C-205.89786351 248.17248043 -191.98364253 182.93536564 -161.34375 130.53125 C-155.85949196 121.38434834 -149.98677248 112.48055395 -144.09375 103.59375 C-143.68013214 102.96853455 -143.26651428 102.34331909 -142.84036255 101.69915771 C-125.7880042 75.99843951 -105.5772955 51.13638824 -80.28125 33.15625 C-79.69843262 32.73972168 -79.11561523 32.32319336 -78.51513672 31.89404297 C-55.50604468 15.62479888 -28.63756984 1.3636938 0 0 Z M-82.58203125 93.7890625 C-84.82635982 96.56941517 -87.06075282 99.35681132 -89.28125 102.15625 C-90.04179688 103.09984375 -90.80234375 104.0434375 -91.5859375 105.015625 C-99.44940798 114.96742699 -106.38037782 125.52317667 -113.28125 136.15625 C-114.12357178 137.44112305 -114.12357178 137.44112305 -114.98291016 138.75195312 C-143.01580006 181.68684063 -162.1200277 236.35056676 -151.28125 288.15625 C-145.99419821 311.88707231 -135.508468 331.20540658 -115.85717773 345.70385742 C-112.11686283 348.46382739 -108.84135422 351.39081884 -105.640625 354.75 C-103.99108207 356.45642372 -102.29074575 357.89101193 -100.28125 359.15625 C-99.62125 359.15625 -98.96125 359.15625 -98.28125 359.15625 C-98.838125 360.09082031 -99.395 361.02539062 -99.96875 361.98828125 C-108.28113236 376.19433158 -115.16546825 391.17031509 -119.28125 407.15625 C-119.57902344 408.27515625 -119.87679687 409.3940625 -120.18359375 410.546875 C-124.55501431 429.16066579 -123.84695135 447.72410017 -114.46875 464.65625 C-109.61829467 472.03737767 -103.27152839 478.25489342 -95.28125 482.15625 C-94.62125 482.15625 -93.96125 482.15625 -93.28125 482.15625 C-93.013125 482.74664062 -92.745 483.33703125 -92.46875 483.9453125 C-87.96776449 492.32543683 -78.55197309 497.76813758 -69.90625 501.03125 C-58.86439458 503.93148418 -45.2223666 503.91334999 -34.94921875 498.76953125 C-3.36982242 479.67393728 13.37880929 441.17566909 22.09375 406.59375 C22.4340625 405.15672729 22.4340625 405.15672729 22.78125 403.69067383 C24.78793761 395.25518168 27.73941072 389.70083913 33.71875 383.46875 C34.25242188 382.90091797 34.78609375 382.33308594 35.3359375 381.74804688 C37.75873297 379.17759348 40.21429595 376.64731372 42.71875 374.15625 C43.3478125 374.49398438 43.976875 374.83171875 44.625 375.1796875 C45.4809375 375.62570312 46.336875 376.07171875 47.21875 376.53125 C48.0540625 376.97210938 48.889375 377.41296875 49.75 377.8671875 C63.24145644 383.7253199 78.72214503 382.4635892 92.296875 377.6171875 C95.28362917 376.34202077 97.49862712 374.99482839 100.09375 373.09375 C104.00949384 370.66328831 106.80778306 371.28664621 111.09570312 372.24804688 C113.47117859 372.84435965 115.84089456 373.46062002 118.2109375 374.078125 C131.21255526 377.3900125 143.62535949 374.31920964 155.5625 368.828125 C159.94215151 367.46345098 163.44354659 369.96875538 167.31835938 371.99023438 C168.69341523 372.71699449 170.06589606 373.44865101 171.43554688 374.18554688 C186.20702287 381.84639832 206.11419002 381.08610286 221.71875 376.15625 C228.94274053 373.45388783 236.28711659 370.4440056 242.71875 366.15625 C247.10256166 366.47206491 250.46236845 368.47192138 254.28125 370.53125 C272.29792972 379.76159746 290.71387221 378.95254571 309.64013672 372.85302734 C317.96047664 370.06394464 325.09502171 366.5713021 332.34375 361.609375 C336.09307188 359.31538201 336.09307188 359.31538201 338.71875 359.15625 C341.53125 360.265625 341.53125 360.265625 344.71875 361.90625 C359.29972061 368.87271374 374.67073608 370.70739733 390.203125 365.71484375 C395.31203212 364.58041251 398.85316246 366.60935722 403.28125 369.03125 C419.17415259 377.07437345 436.77203288 377.15403573 453.71875 372.15625 C466.5416823 367.52703256 478.55211652 360.93153553 489.71875 353.15625 C490.37359375 353.53136719 491.0284375 353.90648437 491.703125 354.29296875 C510.70471448 364.94781483 532.09176992 371.00388589 553.90625 366.03125 C555.85582879 365.44501302 557.79295988 364.81644972 559.71875 364.15625 C560.33314941 363.95757324 560.94754883 363.75889648 561.58056641 363.55419922 C581.39078137 357.10222631 598.0374978 344.80848277 608.28515625 326.33203125 C609.57101966 323.64131409 610.68386372 320.95247215 611.71875 318.15625 C612.03714844 317.31964844 612.35554687 316.48304688 612.68359375 315.62109375 C616.99736012 302.44124536 615.91124383 288.49456058 609.71875 276.15625 C606.85106734 271.56128872 603.61391066 267.75092887 599.40625 264.34375 C595.55027174 261.20516304 595.55027174 261.20516304 594.71875 258.15625 C595.01627496 255.18100039 595.37995597 252.83383805 596.71875 250.15625 C597.55450663 234.45366874 596.15666803 224.52269764 585.71875 212.15625 C584.13805495 210.68019108 584.13805495 210.68019108 582.59375 209.53125 C579.32509265 206.8310548 577.43653995 204.00852314 575.2109375 200.4375 C568.90577182 190.79818911 559.69478399 185.81926423 548.8359375 182.59765625 C539.53820787 180.6591997 528.24150563 182.10624109 519.2578125 184.9296875 C515.47896833 185.26687667 513.3050343 183.67310987 510.03125 181.84375 C497.9293646 175.4323323 485.01430826 174.055541 471.71875 177.90625 C468.21662867 179.09204108 465.20378578 180.28327738 462.21875 182.46875 C459.71875 184.15625 459.71875 184.15625 457.15625 184.21875 C451.71752719 181.84802467 449.3320746 177.62147005 446.34375 172.71875 C444.27112613 169.35520307 442.49007515 166.67740966 439.34375 164.28125 C435.87061554 161.61618262 433.66439193 158.33573873 431.28125 154.71875 C423.81381195 143.58087629 413.65231534 136.76056395 400.84375 132.71875 C386.69739204 130.01697777 373.27543624 132.58061949 361.16015625 140.33984375 C346.72083505 151.08269872 339.96581806 166.24931912 332.71875 182.15625 C329.30378442 182.15625 328.22122896 181.18745164 325.50390625 179.3046875 C314.77738468 172.40403686 300.13662247 169.93453522 287.67871094 172.59130859 C281.12072323 174.30042485 274.80409669 176.53570929 268.71875 179.53125 C263.69143267 181.88750689 259.78233236 181.21605259 254.65234375 179.44140625 C253.34947583 178.94448699 252.05482262 178.42495069 250.7734375 177.875 C239.15086711 173.80930998 222.0072853 174.56741451 210.71875 179.15625 C209.81253906 179.51976562 208.90632813 179.88328125 207.97265625 180.2578125 C203.14520902 182.33341395 198.79882916 184.71358582 194.40625 187.59375 C190.11956577 190.20741797 190.11956577 190.20741797 186.78125 189.78125 C185.770625 189.245 184.76 188.70875 183.71875 188.15625 C171.78998946 183.04976004 159.584911 181.17684062 146.71875 183.15625 C146.87956055 182.58060303 147.04037109 182.00495605 147.20605469 181.41186523 C150.45871467 167.10171021 147.28573346 150.75414239 140.53515625 138.03125 C137.14319307 132.66246526 132.91957464 126.22319155 126.71875 124.15625 C126.00486506 122.50925561 125.34425089 120.83879892 124.71875 119.15625 C116.102358 105.975499 103.49854789 97.96838582 88.484375 93.66796875 C85.56311224 93.12745262 82.68967003 92.97525274 79.7277832 92.80517578 C70.85209415 92.18577636 70.85209415 92.18577636 67.16015625 88.83203125 C65.18815063 86.01433121 63.46541537 83.11690974 61.71875 80.15625 C60.02082862 78.26025252 60.02082862 78.26025252 58.21875 76.65625 C55.33611956 73.93629622 53.1595579 71.0415472 50.90625 67.78125 C42.32892482 55.8383458 30.00780217 47.03332498 15.53125 43.65625 C-21.3146076 38.53362658 -59.54679636 67.42955772 -82.58203125 93.7890625 Z " fill="#FEFEFE" transform="translate(196.28125,-0.15625)"/>
<path d="M0 0 C7.25502263 5.33771529 12.91447635 11.80200104 17.98828125 19.2265625 C20.93424441 23.28798743 24.34778622 26.8603089 27.80078125 30.4921875 C30 33 30 33 31.1875 35.734375 C33.34741901 38.43427376 34.00886606 38.42922937 37.32421875 38.8984375 C39.11068541 39.07123461 40.8986244 39.22923977 42.6875 39.375 C60.34151158 41.35811982 73.51757294 48.38834446 85.2734375 61.7890625 C90 67.84162896 90 67.84162896 90 71 C90.87011719 71.37511719 90.87011719 71.37511719 91.7578125 71.7578125 C100.82069789 76.77871416 105.79263805 87.62780418 109.03515625 96.98828125 C111.77444519 107.01535286 112.83779439 119.84166287 110 130 C110.93005859 129.85691406 110.93005859 129.85691406 111.87890625 129.7109375 C124.02259504 128.19076685 135.06677144 130.12012827 146.29296875 134.87890625 C149.55809862 136.32567539 149.55809862 136.32567539 153 137 C155.48445912 135.75053932 155.48445912 135.75053932 158 133.875 C169.76114418 126.01855569 181.53432115 122.62810417 195.5625 122.75 C196.45646484 122.74226562 197.35042969 122.73453125 198.27148438 122.7265625 C206.35222712 122.75020769 213.13473736 124.5225512 220.62890625 127.51171875 C226.61001615 128.74341354 232.02334373 126.39490207 237.4375 124.0625 C251.68955539 118.2077702 265.10957063 117.05477162 280 122 C285.25338272 124.28011403 290.23398121 126.82265414 295 130 C295.51949219 128.94941406 296.03898437 127.89882812 296.57421875 126.81640625 C306.38763293 107.02684645 315.90186559 89.02539797 337.625 80.625 C350.52657474 76.68331221 363.74098337 78.42975993 375.74609375 84.35546875 C385.29869665 89.7787882 391.21337876 95.99359428 397.07421875 105.234375 C398.75321581 107.64559187 400.05402725 109.09487145 402.375 110.8125 C406.86367303 114.20738144 409.53457752 119.06840044 412.44873047 123.79614258 C415.26299851 128.54344975 415.26299851 128.54344975 420 131 C423.27158528 130.62703928 425.87508178 129.1052507 428.75 127.5625 C439.62324201 122.09427073 451.4769778 121.475907 463.37109375 124.08203125 C466.79964426 125.27922199 469.88436491 127.01766106 473.0625 128.75 C478.62946852 131.77252527 478.62946852 131.77252527 484.8125 131.5 C486.21226394 131.01111186 487.60828456 130.51134999 489 130 C504.48618113 127.21021002 516.92967009 129.26302319 530 138 C530.886875 138.5775 531.77375 139.155 532.6875 139.75 C535.7206033 142.70112754 537.93381121 146.04042301 540.3046875 149.53515625 C543.0205036 153.48372759 545.95232201 157.00604909 549.4375 160.3125 C557.34591175 168.60668793 560.36314248 176.75418088 560.25 188.125 C560.25773438 188.91003906 560.26546875 189.69507813 560.2734375 190.50390625 C560.25882656 194.83604965 559.85976572 198.01372925 558 202 C558.08720055 205.48802188 558.74925852 206.72713427 561.125 209.3125 C562.07375 210.199375 563.0225 211.08625 564 212 C573.83218195 222.01176519 578.45699004 233.09405364 578.43383789 247.1628418 C577.97881205 264.81444585 569.03772822 280.52621629 556.53857422 292.61132812 C539.11758111 308.33500455 517.46118692 315.05808435 494.39990234 314.14794922 C479.18886772 313.21021911 466.02528694 307.68113633 453 300 C452.01902344 300.64066406 451.03804687 301.28132813 450.02734375 301.94140625 C428.94113099 315.52748988 407.32773378 324.93785971 381.734375 321.5703125 C376.59980457 320.45827987 372.34664026 318.71892322 367.74243164 316.18188477 C361.34736982 312.6586754 357.4350993 311.22483545 350.3046875 313.21875 C349.54414062 313.4765625 348.78359375 313.734375 348 314 C335.77246082 317.86548013 320.23609693 314.862004 308.984375 309.5859375 C307.31908699 308.71433939 305.67036263 307.80931547 304.05078125 306.85546875 C302.07492077 305.8514512 302.07492077 305.8514512 300.08984375 306.1328125 C297.22911394 307.31988169 294.82721327 308.97044801 292.25 310.6875 C284.92224779 315.36525906 277.26031625 318.37297654 269 321 C267.93136719 321.34160156 266.86273438 321.68320312 265.76171875 322.03515625 C248.51681172 326.74628079 230.44578729 324.91551978 214.875 316.1875 C213.86179687 315.56230469 212.84859375 314.93710937 211.8046875 314.29296875 C208.47607342 312.75846838 207.41080378 312.78260542 204 314 C201.80858798 315.05420199 199.64372504 316.16442707 197.5 317.3125 C181.67183822 325.51425111 161.83343015 329.21768841 144.1875 324.9375 C138.53854149 323.10468744 133.30124846 320.29585673 128.06640625 317.5234375 C124.66155124 315.74189077 124.66155124 315.74189077 121 315 C118.24688625 315.90529165 118.24688625 315.90529165 115.375 317.3125 C103.56708575 322.45258359 91.86077853 323.75199566 79.37915039 320.20776367 C70.74130477 317.79084256 70.74130477 317.79084256 62.31542969 320.07177734 C59.50949686 321.65763743 56.75811195 323.33278307 54 325 C43.04596744 329.76403191 27.37433506 330.06137505 16.15625 325.93359375 C15.4446875 325.62550781 14.733125 325.31742187 14 325 C13.1440625 324.64035156 12.288125 324.28070313 11.40625 323.91015625 C9.2513329 322.97569374 7.1247652 322.00028395 5 321 C3.75283203 322.46373047 3.75283203 322.46373047 2.48046875 323.95703125 C1.38287845 325.24224382 0.28521855 326.52739697 -0.8125 327.8125 C-1.35970703 328.45509766 -1.90691406 329.09769531 -2.47070312 329.75976562 C-3.00244141 330.38173828 -3.53417969 331.00371094 -4.08203125 331.64453125 C-4.56905518 332.21534424 -5.0560791 332.78615723 -5.55786133 333.37426758 C-7 335 -7 335 -8.58789062 336.45605469 C-10.24627005 338.26926207 -10.79178743 339.71755461 -11.51171875 342.05859375 C-11.75970215 342.8563623 -12.00768555 343.65413086 -12.26318359 344.47607422 C-13.23127351 347.79221523 -14.17553802 351.11360099 -15.09130859 354.44458008 C-19.30304984 369.7331723 -24.56335494 383.89438227 -31.92919922 397.93945312 C-33.0299981 400.05772549 -34.09678069 402.19085015 -35.16015625 404.328125 C-43.64931529 421.17462384 -54.25488236 435.61798373 -71 445 C-71.73347656 445.43699219 -72.46695313 445.87398438 -73.22265625 446.32421875 C-82.62382235 451.04967261 -96.52334467 450.51577424 -106.5625 447.9375 C-115.58498071 444.53218982 -123.96220143 438.52562285 -130 431 C-130 430.34 -130 429.68 -130 429 C-131.299375 428.6596875 -131.299375 428.6596875 -132.625 428.3125 C-136.44470712 426.82705834 -139.06238893 424.76852627 -142 422 C-142.524729 421.50653076 -143.04945801 421.01306152 -143.59008789 420.50463867 C-154.10226977 410.29976362 -159.06969854 396.64626567 -159.4921875 382.14697266 C-159.56985063 355.2124272 -149.1947389 328.62286511 -135 306 C-135.58523437 305.73445313 -136.17046875 305.46890625 -136.7734375 305.1953125 C-139.06478055 303.96522307 -140.71008944 302.62693945 -142.625 300.875 C-145.67494046 298.14252546 -148.7878458 295.54007271 -152 293 C-174.13467194 275.37361499 -186.37282239 253.59649817 -189.59765625 225.28515625 C-194.10584306 175.16415859 -179.33579952 126.81661724 -151.5 85.24414062 C-149.98099299 82.97156373 -148.48841757 80.68333072 -147 78.390625 C-123.9932184 43.14077501 -96.61434424 12.49419704 -57.1875 -4.375 C-56.41124268 -4.70902832 -55.63498535 -5.04305664 -54.83520508 -5.38720703 C-36.14142382 -13.12434985 -17.05618614 -11.05979478 0 0 Z M-104.4296875 32.4765625 C-105.97400608 33.97478202 -107.53322769 35.45619202 -109.09375 36.9375 C-152.0336808 78.21848189 -184.9913527 142.46845664 -186.40454102 202.38354492 C-186.66015589 230.43112374 -180.6996436 258.95577755 -161 280 C-151.08112182 289.71420292 -138.89749791 295.32304303 -126 300 C-126.4846875 300.76441406 -126.969375 301.52882813 -127.46875 302.31640625 C-144.53133384 329.58372774 -159.95761077 361.96657969 -153.30078125 395.0546875 C-152.42219753 398.20572617 -151.38155373 401.0382942 -150 404 C-149.5875 404.88429688 -149.175 405.76859375 -148.75 406.6796875 C-142.92376585 417.57077292 -133.33164273 424.5122207 -122 429 C-111.5007217 431.90253086 -98.26916058 431.36542984 -88.5625 426.5390625 C-84.36127418 424.01576529 -80.64130097 421.28039326 -77 418 C-75.79923828 416.93845703 -75.79923828 416.93845703 -74.57421875 415.85546875 C-63.49394977 405.46448556 -56.32349067 392.54113371 -49.92041016 378.92919922 C-49.05525734 377.11582055 -48.14430314 375.32449644 -47.23046875 373.53515625 C-40.68467506 360.39924071 -36.25247603 346.14843384 -32.69921875 331.9296875 C-30.70653042 324.05591224 -28.74139428 318.53143638 -22.359375 313.0703125 C-18.33966402 309.54308267 -15.24253924 305.23208799 -12 301 C-10.85724609 301.61488281 -10.85724609 301.61488281 -9.69140625 302.2421875 C3.6769848 309.21845149 18.65561891 312.00639878 33.4375 307.375 C38.40746784 305.46559488 42.93338673 302.91362581 47.4296875 300.07421875 C52.20314861 298.0792312 56.73887468 300.17829643 61.5 301.5625 C75.20515953 304.95086048 89.8050374 303.17216646 102.1875 296.20703125 C105 295 105 295 107.58203125 295.62890625 C110.00129914 297.00073667 112.35514631 298.42243388 114.6875 299.9375 C119.6103894 302.95451742 124.41645672 304.63839909 130 306 C130.93803467 306.25910156 130.93803467 306.25910156 131.89501953 306.5234375 C149.99974343 310.62230331 169.61532164 304.60123791 185.125 295.5 C186.36636719 294.71109375 186.36636719 294.71109375 187.6328125 293.90625 C190 293 190 293 192.43359375 293.62890625 C195.31024313 295.16574633 198.12404114 296.78774165 200.9375 298.4375 C216.55770462 306.85242505 234.52444242 307.09576287 251.29296875 302.19140625 C263.04078405 298.41576487 273.74698296 292.83534469 284 286 C286.42256566 286.95627592 288.58487928 287.97611784 290.875 289.1875 C305.37384635 296.36336053 319.34706233 297.93809676 335.02734375 293.65625 C339.57291847 292.65275913 342.75208837 292.20587442 346.75 294.75 C348.35875 295.86375 348.35875 295.86375 350 297 C365.54867203 304.38894158 381.60850353 304.93550567 398 300 C399.08410156 299.68289063 400.16820312 299.36578125 401.28515625 299.0390625 C412.17311143 295.51391513 424.03589382 290.20893878 432.71484375 282.62890625 C435 281 435 281 437.53515625 281.078125 C440.12276794 282.04591638 442.14655729 283.20947007 444.4375 284.75 C460.42025149 294.64408426 481.07621128 298.0172397 499.4375 293.90234375 C514.18834203 290.13442975 526.53987799 284.1822677 538 274 C538.63550781 273.43539063 539.27101563 272.87078125 539.92578125 272.2890625 C548.10340065 264.56474794 553.23082257 255.52719479 557 245 C557.2475 244.33613281 557.495 243.67226563 557.75 242.98828125 C561.18196144 232.00123804 559.6562928 219.33854843 555 209 C550.46742075 200.95832714 544.87275647 195.72688042 537 191 C537.47730838 189.5410574 537.95691042 188.08286504 538.4375 186.625 C538.70433594 185.81289062 538.97117187 185.00078125 539.24609375 184.1640625 C540 182 540 182 541 180 C541.85785869 167.30087878 541.38335229 156.83728663 532.875 146.6875 C525.73245878 139.29825917 517.65456539 134.53710853 507.2734375 133.69921875 C499.33199067 133.67534667 492.38241309 134.23979322 484.671875 136.44140625 C478.78953641 137.67119341 474.25074196 134.14883826 469.16796875 131.47265625 C458.70198344 126.60745716 444.79863475 125.88164406 433.8125 129.6875 C430.40169534 131.10606096 428.00087406 132.83321208 425.1875 135.1875 C423.30078125 136.484375 423.30078125 136.484375 421 137 C417.1636512 135.6755988 413.85312476 133.95280833 410.3671875 131.90234375 C407.13810094 129.87325268 407.13810094 129.87325268 403.72265625 129.21875 C401 128 401 128 399.56640625 124.69140625 C399.21306717 123.31978685 398.87943147 121.94298641 398.5625 120.5625 C394.9870693 107.43350673 387.44090797 96.06672991 375.4375 89.125 C373.98621519 88.36116589 372.5012428 87.66025767 371 87 C369.79988281 86.47148437 368.59976563 85.94296875 367.36328125 85.3984375 C362.51193836 83.61902879 357.87850654 83.46320814 352.75 83.5 C351.82413086 83.50572021 350.89826172 83.51144043 349.94433594 83.51733398 C337.18672682 83.84912119 328.27501618 89.09806157 319.171875 97.734375 C311.28053424 106.05227472 298 126.07766552 298 138 C297.35933594 137.54109375 296.71867187 137.0821875 296.05859375 136.609375 C293.388487 134.71523072 290.70034305 132.85075211 288 131 C287.40574219 130.5875 286.81148437 130.175 286.19921875 129.75 C275.8705942 123.18888862 260.82438732 121.87197387 248.97119141 124.43945312 C242.41633365 126.29941276 236.15155725 129.17513758 230.16015625 132.3984375 C225.1687458 133.78845054 220.26338578 131.84767925 215.56030273 130.13256836 C200.73191346 124.80691877 185.17084062 125.3861339 170.74414062 132.04052734 C164.64937366 135.04112527 158.6549475 138.230035 153 142 C149.6875223 141.60664327 146.95471364 140.04425372 144 138.5625 C127.48451845 131.04360972 103.98593806 131.82410166 87.0234375 138.1015625 C86.35570312 138.39804688 85.68796875 138.69453125 85 139 C85.25394531 138.18660156 85.50789063 137.37320313 85.76953125 136.53515625 C92.30593321 114.77163064 96.6990439 91.27996745 85.54296875 70.25390625 C84.13618125 68.05278491 82.63910901 66.03198823 81 64 C80.34257813 63.08541016 80.34257813 63.08541016 79.671875 62.15234375 C73.3961311 53.94698894 63.63682389 49.15935413 54 46 C53.33097656 45.77441406 52.66195312 45.54882812 51.97265625 45.31640625 C46.80747375 43.87887945 41.63887073 43.7977141 36.3125 43.75 C35.22473267 43.73598145 35.22473267 43.73598145 34.11499023 43.72167969 C29.70030239 43.74803301 26.10099333 44.37251918 22 46 C21.896875 45.030625 21.79375 44.06125 21.6875 43.0625 C19.43922114 27.72492641 10.79619347 13.84492056 -1.5 4.5625 C-36.78114587 -19.49953672 -77.96818594 6.79717429 -104.4296875 32.4765625 Z " fill="#067EBF" transform="translate(233,53)"/>
<path d="M0 0 C3.23627096 1.90684845 4.97400073 3.78288412 6.4375 7.3125 C8.41194131 15.37950307 9.19829434 25.29345761 4.78125 32.62890625 C1.63599865 36.56961361 -1.75315187 39.70938396 -6.5625 41.3125 C-14.3753563 42.17587724 -14.3753563 42.17587724 -17.625 39.8125 C-18.9821317 36.19348213 -18.75524768 33.16745364 -18.5625 29.3125 C-26.79973727 30.400437 -31.50728944 34.88787211 -37.5625 40.3125 C-38.56898188 41.19664707 -39.57549257 42.08076134 -40.58203125 42.96484375 C-51.3329117 52.51619588 -60.52562526 63.21053634 -69.25292969 74.60888672 C-70.48225054 76.20810389 -71.72883436 77.79400885 -72.9765625 79.37890625 C-96.28072142 109.45008039 -114.01595321 153.71039024 -110.5625 192.3125 C-108.56877761 203.57646832 -103.79669865 212.49259736 -94.4921875 219.21875 C-90.15309248 221.67815608 -85.46707627 221.88224008 -80.5625 221.3125 C-77.48753959 220.39760695 -74.64574141 219.12243805 -71.75 217.75 C-70.56543213 217.20146362 -70.56543213 217.20146362 -69.35693359 216.6418457 C-53.80493237 209.29581031 -41.74884764 199.12398901 -31.5625 185.3125 C-32.2225 185.6425 -32.8825 185.9725 -33.5625 186.3125 C-34.5525 186.3125 -35.5425 186.3125 -36.5625 186.3125 C-34.00657134 165.90913849 -24.52040145 144.12892237 -9.16796875 130.12890625 C-5.54323834 127.45512726 -3.36372451 126.35256123 1.1875 126.125 C5.18317536 127.5849583 6.98458648 128.81895651 9.4375 132.3125 C12.19329799 150.91413643 0.60707671 173.94427051 -9.95703125 188.76953125 C-17.33150821 198.64304254 -25.97637066 207.4999115 -34.5625 216.3125 C-35.2225 216.99658936 -35.8825 217.68067871 -36.5625 218.38549805 C-52.13376782 234.29880464 -71.63219013 246.46899073 -94.3125 247.9375 C-104.05694015 247.48392996 -112.09160538 241.74206485 -118.53125 234.80078125 C-134.32940245 215.4480445 -136.16797753 194.5787918 -134.34423828 170.42138672 C-133.71183881 164.33190215 -132.70326365 158.32522911 -131.5625 152.3125 C-131.38557617 151.36213867 -131.20865234 150.41177734 -131.02636719 149.43261719 C-124.06316903 112.83674156 -105.47313385 81.38190639 -82.5625 52.3125 C-81.81871094 51.35601562 -81.07492188 50.39953125 -80.30859375 49.4140625 C-64.72079004 29.8360107 -29.12374703 -12.61678572 0 0 Z " fill="#DB3D35" transform="translate(213.5625,79.6875)"/>
<path d="M0 0 C4.19676017 0.99717891 7.0608981 3.2300377 9.95703125 6.3359375 C13.25490907 11.81623447 10.45925699 20.34958286 9.16015625 26.29296875 C3.75858625 46.09872541 -7.75892506 63.84921351 -20.71484375 79.54296875 C-21.19066895 80.125625 -21.66649414 80.70828125 -22.15673828 81.30859375 C-34.14043956 95.91848551 -47.74607447 110.37720285 -66.58984375 115.29296875 C-67.62109375 115.37546875 -68.65234375 115.45796875 -69.71484375 115.54296875 C-71.04128906 115.65511719 -71.04128906 115.65511719 -72.39453125 115.76953125 C-80.82398466 116.17706208 -87.0314416 114.51982316 -93.52734375 109.00390625 C-103.63541722 98.33988874 -104.36829607 82.26533829 -104.015625 68.375 C-103.09493512 49.20722173 -93.84143166 31.0577757 -81.71484375 16.54296875 C-81.04582031 15.67542969 -80.37679687 14.80789062 -79.6875 13.9140625 C-74.7467399 7.97536669 -67.02486551 2.37425011 -59.26953125 1.16015625 C-53.39910945 0.89087085 -48.44548984 1.93817511 -43.71484375 5.54296875 C-40.00842424 9.11725209 -39.19908397 11.76528496 -39.10766602 16.72265625 C-39.12978149 17.87121094 -39.12978149 17.87121094 -39.15234375 19.04296875 C-39.16257568 19.83960938 -39.17280762 20.63625 -39.18334961 21.45703125 C-39.91800834 42.16899629 -55.64470732 57.02069604 -69.71484375 70.54296875 C-70.45347656 71.25324219 -71.19210937 71.96351563 -71.953125 72.6953125 C-72.65824219 73.34628906 -73.36335937 73.99726563 -74.08984375 74.66796875 C-74.71632813 75.24804688 -75.3428125 75.828125 -75.98828125 76.42578125 C-76.55804687 76.79445313 -77.1278125 77.163125 -77.71484375 77.54296875 C-79.19984375 77.04796875 -79.19984375 77.04796875 -80.71484375 76.54296875 C-80.79752071 74.87718108 -80.85477534 73.21012839 -80.90234375 71.54296875 C-80.93714844 70.61484375 -80.97195313 69.68671875 -81.0078125 68.73046875 C-80.30195018 61.05068666 -76.85148845 55.98235059 -71.90234375 50.29296875 C-65.57565358 42.69731766 -59.1662783 34.91999849 -59.71484375 24.54296875 C-62.26045995 24.90716008 -63.41929949 25.19046278 -65.09936523 27.19433594 C-65.50743408 27.90235352 -65.91550293 28.61037109 -66.3359375 29.33984375 C-66.79427979 30.1275415 -67.25262207 30.91523926 -67.72485352 31.72680664 C-68.19592529 32.57364014 -68.66699707 33.42047363 -69.15234375 34.29296875 C-69.63952881 35.15462646 -70.12671387 36.01628418 -70.62866211 36.90405273 C-78.40198058 50.91378461 -85.48424061 68.11797402 -80.921875 84.3671875 C-79.27237631 88.29185679 -78.33036491 90.13262131 -74.71484375 92.54296875 C-70.07525524 93.59899449 -66.17988254 93.32751367 -61.96484375 91.0703125 C-56.4046281 87.0976016 -51.30615162 82.55488094 -46.296875 77.9140625 C-44.85336512 76.5884793 -43.39398687 75.27811754 -41.88256836 74.03051758 C-36.63356062 69.65265673 -32.62100402 64.90422826 -28.65234375 59.35546875 C-28.04382568 58.51105225 -27.43530762 57.66663574 -26.80834961 56.79663086 C-17.87440089 44.27711882 -12.42411033 32.12287539 -7.71484375 17.54296875 C-8.37484375 17.54296875 -9.03484375 17.54296875 -9.71484375 17.54296875 C-10.04484375 19.52296875 -10.37484375 21.50296875 -10.71484375 23.54296875 C-12.03484375 23.54296875 -13.35484375 23.54296875 -14.71484375 23.54296875 C-16.72300483 19.5266466 -16.33365653 14.89757718 -15.71484375 10.54296875 C-12.20691934 2.99427065 -8.50381403 -1.17532389 0 0 Z " fill="#DB3D35" transform="translate(683.71484375,209.45703125)"/>
<path d="M0 0 C4.77532754 3.21815552 8.700042 7.54953586 10.875 12.9375 C13.59991062 30.38740839 3.3008688 47.86972933 -3.5859375 63.21484375 C-5.88620495 68.3552035 -7.96627451 73.5168883 -9.9140625 78.80078125 C-10.81361939 81.13092377 -11.75454361 83.39121655 -12.7734375 85.66796875 C-17.65884015 96.66492436 -21.59400606 107.89912695 -25.375 119.3125 C-25.75931686 120.47206711 -25.75931686 120.47206711 -26.15139771 121.65505981 C-27.61282353 126.07649565 -29.05053135 130.5049497 -30.47357178 134.93887329 C-31.08253342 136.80720961 -31.7201563 138.66613605 -32.35986328 140.52416992 C-34.75513774 147.68609366 -35.70021753 153.96022926 -35.5 161.5 C-35.49806641 162.93569336 -35.49806641 162.93569336 -35.49609375 164.40039062 C-35.46125102 170.45239779 -35.46125102 170.45239779 -33.125 175.9375 C-30.24415561 178.24217552 -28.36542089 178.90690098 -24.6875 179.375 C-19.85485712 178.78151754 -17.12998303 176.74748468 -13.55859375 173.5234375 C-9.54919842 169.92603518 -9.54919842 169.92603518 -6.8125 170 C-5.125 170.9375 -5.125 170.9375 -4.125 172.9375 C-3.69471834 179.39172488 -4.26414534 183.43274928 -8.49609375 188.6171875 C-14.03051887 194.58958871 -22.94574101 201.93859723 -31.203125 203.2734375 C-38.49351419 203.40455961 -43.16676416 201.22340951 -48.875 196.8125 C-56.74563174 186.75558167 -57.17262617 174.29985054 -55.80859375 162.10986328 C-54.80571989 154.67959032 -53.4984665 147.30704501 -52.125 139.9375 C-51.85212158 138.44428223 -51.85212158 138.44428223 -51.57373047 136.92089844 C-49.04679128 123.37614309 -45.2079431 110.78998455 -40.26367188 97.94677734 C-38.14660977 92.35181434 -36.18117097 86.70232322 -34.1875 81.0625 C-23.64942224 51.4538813 -23.64942224 51.4538813 -18.23046875 38.2890625 C-17.9459082 37.59659424 -17.66134766 36.90412598 -17.36816406 36.19067383 C-16.62920022 34.41066669 -15.87584934 32.63665007 -15.12109375 30.86328125 C-14.12986232 27.95178186 -13.66195057 25.97659453 -14.125 22.9375 C-15.115 22.2775 -16.105 21.6175 -17.125 20.9375 C-16.63 22.9175 -16.63 22.9175 -16.125 24.9375 C-17.32125 25.4325 -18.5175 25.9275 -19.75 26.4375 C-24.0231276 28.54768647 -26.08911519 31.1747735 -28.765625 35.03125 C-30.6170569 37.62751083 -32.36841601 39.32388986 -35.125 40.9375 C-38.625 41.5 -38.625 41.5 -42.125 40.9375 C-45.84892439 37.94216951 -47.52644605 35.6987536 -48.5390625 31.02734375 C-48.92553873 27.08385477 -48.64886506 24.73237146 -46.43359375 21.37109375 C-35.98114282 9.46438877 -16.89351384 -5.74379471 0 0 Z " fill="#DB3D35" transform="translate(285.125,131.0625)"/>
<path d="M0 0 C3.04468713 3.27303866 4.25205911 5.85679737 4.5 10.25 C4.06913295 18.78116756 0.26923432 26.29486857 -6 32 C-15.75575221 40 -15.75575221 40 -21 40 C-23.48068987 37.11703609 -25 35.24941611 -25 31.375 C-23.81739486 28.5663128 -22.1716094 27.10155749 -20 25 C-20 24.01 -20 23.02 -20 22 C-22.41619823 21.74969023 -22.41619823 21.74969023 -25 22 C-27.03696388 25.05544582 -27.60477755 26.84737117 -27.50390625 30.4921875 C-25.7609069 39.16664937 -20.28425425 46.08711893 -13.92578125 51.90234375 C-7.74454912 58.63524771 -3.44021575 69.21393368 -3.6875 78.37890625 C-5.14748773 90.62455334 -10.44225474 100.7170858 -19.9375 108.50390625 C-23.13308809 110.82191806 -26.33964051 112.5331398 -30 114 C-30.72574219 114.2990625 -31.45148438 114.598125 -32.19921875 114.90625 C-40.32588258 117.80767048 -49.82292892 118.87411302 -58.04296875 115.8984375 C-63.50651006 112.88017391 -66.81440189 109.86137675 -69 104 C-70.05565647 98.86310022 -69.41516599 95.04535975 -66.6875 90.5625 C-59.51221638 80.87164636 -48.99274169 72.66182779 -39 66 C-36.0625 65.9375 -36.0625 65.9375 -33 67 C-29.20751194 71.69070891 -28.36387573 75.63321554 -28.6015625 81.62109375 C-29.21833495 85.30358806 -30.52043188 87.22871798 -33 90 C-33.66 90 -34.32 90 -35 90 C-35.33 89.34 -35.66 88.68 -36 88 C-37.32 89.32 -38.64 90.64 -40 92 C-34.73004599 91.70853762 -34.73004599 91.70853762 -30.625 88.625 C-27.65960005 83.83473855 -27.37495276 79.49148645 -28 74 C-30.52535819 65.73934039 -36.9000952 60.53606019 -43.5625 55.5 C-48.71222938 51.58936933 -53.56111462 47.11918539 -56 41 C-57.12664609 32.24773877 -56.13166581 25.21536596 -51 18 C-39.09010174 3.14565779 -18.96318979 -12.83408941 0 0 Z " fill="#DB3C35" transform="translate(510,209)"/>
<path d="M0 0 C-1.18027192 5.4913121 -2.4852727 10.91716037 -3.95288086 16.33813477 C-9.7254784 37.74604969 -14.23149486 59.39497491 -18.12063599 81.21304321 C-23.12353396 109.2294792 -28.98704624 139.80425068 -51 160 C-57.33997713 164.36986853 -64.1253248 167.39610776 -72 166 C-78.00618251 161.32852472 -80.81843781 155.42504419 -82 148 C-82.2216893 144.97948333 -82.14867643 142.02308744 -82 139 C-81.98195313 138.21367187 -81.96390625 137.42734375 -81.9453125 136.6171875 C-81.14623916 121.24677672 -75.35595681 107.2882963 -68 94 C-67.42121094 92.91847656 -66.84242187 91.83695312 -66.24609375 90.72265625 C-60.31966322 80.03858079 -52.59690075 71.44129886 -44.0625 62.8125 C-43.39927734 62.13985107 -42.73605469 61.46720215 -42.05273438 60.77416992 C-41.42818359 60.15388916 -40.80363281 59.5336084 -40.16015625 58.89453125 C-39.59949463 58.33612549 -39.03883301 57.77771973 -38.46118164 57.20239258 C-37 56 -37 56 -35 56 C-35.76869973 62.94363931 -36.98843367 69.76722179 -38.3125 76.625 C-38.51294922 77.73101562 -38.71339844 78.83703125 -38.91992188 79.9765625 C-40.49216642 88.0762991 -42.6099266 92.69753017 -48.375 98.625 C-55.75050101 106.87475221 -59.21465928 116.05237649 -59 127 C-55.53275453 126.44076686 -54.15415225 125.48602642 -52.0625 122.6875 C-44.95017939 112.28511023 -42.57214538 100.68863408 -40.1763916 88.54220581 C-39.61502138 85.69946899 -39.03775714 82.86037029 -38.45605469 80.02172852 C-37.66997515 76.18162538 -36.88848565 72.34065148 -36.11230469 68.49853516 C-34.65986736 61.31331231 -33.19883825 54.13040388 -31.67547607 46.95983887 C-31.26326067 45.00052954 -30.86695673 43.03789356 -30.47119141 41.07519531 C-27.73418911 28.20971853 -23.25655055 20.43779964 -13.76049805 11.2734375 C-12.29166482 9.85487795 -10.8431795 8.41766254 -9.39648438 6.9765625 C-2.2953404 0 -2.2953404 0 0 0 Z " fill="#DB3B33" transform="translate(191,287)"/>
<path d="M0 0 C2.90424301 2.4331235 5.33464347 4.7022494 5.828125 8.6015625 C6.05610002 15.48880791 4.56344902 20.34194402 -0.0234375 25.55078125 C-2.82708192 28.20522951 -4.70601841 29.57792243 -8.53515625 30.34375 C-11.41015625 29.71875 -11.41015625 29.71875 -13.91015625 27.65625 C-16.27821457 25.41246417 -16.27821457 25.41246417 -19.41015625 25.71875 C-22.87892728 26.87500701 -24.89658163 28.05731805 -27.41015625 30.71875 C-28.16036869 33.17507332 -28.16036869 33.17507332 -27.41015625 35.71875 C-25.47117746 38.39273476 -25.47117746 38.39273476 -23.41015625 40.71875 C-23.41015625 41.37875 -23.41015625 42.03875 -23.41015625 42.71875 C-22.84425781 42.98429687 -22.27835937 43.24984375 -21.6953125 43.5234375 C-16.46618164 46.25867518 -10.80072935 49.77716103 -8.34765625 55.34375 C-4.86952058 67.86503841 -8.38639345 80.59134821 -13.984375 91.8984375 C-21.2454809 104.11876024 -33.93965043 113.22858139 -47.41015625 117.71875 C-51.03035114 117.99970068 -54.65526159 117.99621241 -58.28515625 118.03125 C-59.77595703 118.07475586 -59.77595703 118.07475586 -61.296875 118.11914062 C-68.62924304 118.18294302 -68.62924304 118.18294302 -72.4921875 115.88671875 C-77.32778178 110.42082298 -78.07767962 104.9071403 -77.890625 97.78125 C-77.07190156 92.56272011 -74.5422123 88.8754462 -71.41015625 84.71875 C-70.98863281 84.10515625 -70.56710937 83.4915625 -70.1328125 82.859375 C-63.56967523 74.16172196 -51.64289697 66.98207597 -41.41015625 63.71875 C-38.7421875 63.46875 -38.7421875 63.46875 -36.41015625 63.71875 C-33.30967946 66.48404011 -32.48961987 68.15257168 -31.91015625 72.28125 C-32.41015625 75.71875 -32.41015625 75.71875 -33.84765625 77.90625 C-36.87183451 80.04530292 -39.95829535 81.41085907 -43.38671875 82.7890625 C-45.57608026 83.6531311 -45.57608026 83.6531311 -47.41015625 85.71875 C-47.65228498 87.70003508 -47.65228498 87.70003508 -47.53515625 89.84375 C-47.49390625 91.1225 -47.45265625 92.40125 -47.41015625 93.71875 C-43.60771397 93.45346333 -41.75124837 93.00299344 -38.78515625 90.53125 C-33.97154859 84.83092514 -31.06967046 80.45822101 -31.1953125 72.8359375 C-31.80048683 66.87221952 -35.07335889 61.72359497 -39.41015625 57.71875 C-41.63243332 56.18246234 -43.9046567 54.74518461 -46.1875 53.30078125 C-50.05414189 50.54860205 -53.28137159 46.97631933 -55.41015625 42.71875 C-56.30801657 35.43357957 -55.98935989 29.95217019 -51.43359375 24.0703125 C-50.76585937 23.29429687 -50.098125 22.51828125 -49.41015625 21.71875 C-48.59804688 20.73648438 -47.7859375 19.75421875 -46.94921875 18.7421875 C-36.80602244 6.84083717 -16.49140091 -8.76690356 0 0 Z " fill="#DB3C34" transform="translate(437.41015625,211.28125)"/>
<path d="M0 0 C1.18078125 -0.00128906 2.3615625 -0.00257813 3.578125 -0.00390625 C7.32819808 0.66574966 8.54220685 1.49404172 10.75 4.5625 C13.54581857 15.0323585 6.51233897 26.79947482 1.55859375 35.61328125 C-0.22750701 38.52582136 -2.10945161 41.34479626 -4.03686523 44.16455078 C-11.92115978 55.71552418 -15.33679146 64.30949718 -14.25 78.5625 C-13.92 79.2225 -13.59 79.8825 -13.25 80.5625 C-4.07195522 81.36059085 3.21261494 77.48279419 10.15625 71.734375 C11.75 70.5625 11.75 70.5625 13.75 70.5625 C14.48540409 73.88495063 15.13776096 77.21525867 15.75 80.5625 C16.059375 82.2021875 16.059375 82.2021875 16.375 83.875 C15.62514206 87.09938916 15.08926356 87.30358528 12.375 89 C11.64410156 89.39832031 10.91320312 89.79664063 10.16015625 90.20703125 C7.53814442 91.6816473 5.22212796 93.38876364 2.8125 95.1875 C-5.92470318 101.27304819 -14.58439691 103.08256828 -25.25 101.5625 C-30.99774507 99.14472742 -33.82687207 95.23975375 -36.44287109 89.74804688 C-37.76345475 86.17216517 -37.84644226 82.84170072 -37.75 79.0625 C-37.73078491 77.89509277 -37.73078491 77.89509277 -37.71118164 76.70410156 C-37.21057779 62.05735401 -32.48391489 48.40851303 -24.03125 36.4140625 C-21.89680663 33.55744427 -21.89680663 33.55744427 -22.25 29.5625 C-23.24 29.2325 -24.23 28.9025 -25.25 28.5625 C-25.02183594 29.42617187 -24.79367187 30.28984375 -24.55859375 31.1796875 C-24.00387063 37.26057633 -27.79571834 41.78442178 -31.25 46.5625 C-34.125 49 -34.125 49 -37.25 50.5625 C-43.03649087 53.56370236 -47.81350663 56.66185105 -52.5234375 61.20703125 C-54.25 62.5625 -54.25 62.5625 -57.25 62.5625 C-58.04211929 60.66685574 -58.83367576 58.77097629 -59.625 56.875 C-60.06585938 55.81925781 -60.50671875 54.76351562 -60.9609375 53.67578125 C-62.07757462 50.97893343 -63.17291801 48.27533736 -64.25 45.5625 C-61.94004953 43.80905173 -59.6274123 42.0593816 -57.3125 40.3125 C-56.59320313 39.76819336 -55.87390625 39.22388672 -55.1328125 38.66308594 C-51.46476492 35.90569315 -47.7777257 33.2104851 -43.96484375 30.65625 C-35.33451675 24.85309908 -27.89471623 18.69693434 -20.77734375 11.08105469 C-14.68248557 4.62786533 -9.29128576 -0.17395579 0 0 Z " fill="#DB3E36" transform="translate(564.25,215.4375)"/>
<path d="M0 0 C2.23541734 2.634599 2.94904695 4.74523477 3.625 8.125 C2.8469138 12.94913442 0.85621202 15.70302196 -1.85546875 19.70703125 C-10.6412609 33.19778313 -17.5898945 46.49947332 -16 63 C-15.19094603 66.4707243 -14.09570674 69.06662019 -11.3125 71.4375 C-5.18486185 72.92800658 -1.15698347 72.59076297 4.26733398 69.31542969 C7.28330277 67.0257242 9.14059134 64.12178367 11.125 60.9375 C11.55240479 60.26920166 11.97980957 59.60090332 12.42016602 58.91235352 C18.66414196 48.96656629 21.91976713 39.58503674 24 28 C30.95432222 25.95461111 37.77875787 25.41830366 45 25 C44.88265487 26.33402882 44.75557824 27.6672014 44.625 29 C44.55539062 29.7425 44.48578125 30.485 44.4140625 31.25 C41.0788794 53.40065 30.36188597 73.78700922 13 88 C9.21860506 90.73204957 5.20696489 92.98931825 1 95 C0.22527344 95.38027344 -0.54945313 95.76054687 -1.34765625 96.15234375 C-4.87895664 97.28090367 -8.26755696 97.36818488 -11.9375 97.375 C-12.62779297 97.39949219 -13.31808594 97.42398438 -14.02929688 97.44921875 C-20.08974922 97.48368578 -23.43258536 95.39625367 -27.7578125 91.359375 C-36.50815588 81.05897079 -39.03190599 70.42139268 -38 57 C-34.89051335 34.40763605 -23.93475382 15.06394365 -6 1 C-4 0 -4 0 0 0 Z " fill="#DB3C34" transform="translate(319,230)"/>
<path d="M0 0 C1.299375 -0.03867188 1.299375 -0.03867188 2.625 -0.078125 C5 0.25 5 0.25 6.7578125 1.60546875 C8.72342461 4.20774138 8.88091334 5.97511699 9 9.25 C7.33403212 17.74158386 3.17993751 25.13823484 -0.875 32.6875 C-13.17331397 54.20528507 -13.17331397 54.20528507 -16 78.25 C-14.87061623 81.86194626 -14.47603671 82.93624853 -11.25 85.0625 C-7.7504993 86.34116372 -5.68250818 86.78703244 -2 86.25 C3.54390165 83.5346196 6.51053258 79.76058381 9 74.25 C10.0890719 70.69343678 11.04469354 67.13692609 11.91015625 63.51953125 C13.1068002 59.9295994 14.25055247 57.84991617 17 55.25 C19.69140625 54.65625 19.69140625 54.65625 22.5625 54.75 C23.51253906 54.7603125 24.46257813 54.770625 25.44140625 54.78125 C28.35665526 55.31534142 29.30021425 55.85358075 31 58.25 C32.434322 67.93167352 27.66766837 77.24156444 22.3125 85.0625 C14.4281979 95.18264896 2.93816305 103.34612474 -10 105.25 C-18.38589727 106.08028686 -25.1003055 105.35854895 -32 100.25 C-35.67237966 96.95895096 -36.77411456 93.74539666 -37.50390625 88.9140625 C-38.07007291 77.03660883 -34.67064696 66.4275178 -31 55.25 C-30.52668856 53.73197496 -30.05399801 52.21375615 -29.58203125 50.6953125 C-26.89869386 42.36046099 -23.49177921 34.93041472 -18.80737305 27.51245117 C-16.99406109 24.55380831 -15.95272846 22.81725846 -16.24609375 19.296875 C-16.49488281 18.62140625 -16.74367188 17.9459375 -17 17.25 C-17.99 16.92 -18.98 16.59 -20 16.25 C-19.2265625 17.11625 -19.2265625 17.11625 -18.4375 18 C-17 20.25 -17 20.25 -17.41015625 22.390625 C-17.60480469 23.00421875 -17.79945313 23.6178125 -18 24.25 C-19.89492006 24.58848652 -21.79098466 24.92056911 -23.6875 25.25 C-24.74324219 25.435625 -25.79898438 25.62125 -26.88671875 25.8125 C-29.67863148 26.20483905 -32.19188973 26.48605831 -35 26.25 C-37 24.25 -37 24.25 -37.25 21.1875 C-36.97011899 16.77937413 -36.45688292 12.44078668 -35 8.25 C-34.34 7.92 -33.68 7.59 -33 7.25 C-32.34 7.58 -31.68 7.91 -31 8.25 C-23.11884607 9.30082052 -17.78863719 6.54608713 -11.0390625 2.87890625 C-7.17962092 0.81028525 -4.32553488 0.07724169 0 0 Z " fill="#DB3E36" transform="translate(731,215.75)"/>
<path d="M0 0 C3.19959038 2.50402725 5.02883791 4.63152229 6.875 8.25 C6.8125 11 6.8125 11 5.875 13.25 C2.55582446 15.46278369 0.79083639 15.70258857 -3.125 16.0625 C-4.176875 16.17207031 -5.22875 16.28164062 -6.3125 16.39453125 C-9.125 16.25 -9.125 16.25 -11 14.88671875 C-12.125 13.25 -12.125 13.25 -12.125 11.25 C-12.785 11.25 -13.445 11.25 -14.125 11.25 C-13.00645414 14.97614153 -13.00645414 14.97614153 -10.125 17.25 C0.31927879 18.70637354 9.00213944 14.53051411 17.25 8.4375 C18.00023437 7.83292969 18.75046875 7.22835937 19.5234375 6.60546875 C22.5277039 4.87377367 24.45763612 4.86773423 27.875 5.25 C28.865 5.91 29.855 6.57 30.875 7.25 C30.29866244 11.18596379 29.10967345 13.89131589 27 17.25 C26.23042969 18.4875 26.23042969 18.4875 25.4453125 19.75 C24.92710937 20.575 24.40890625 21.4 23.875 22.25 C23.42253906 23.14589844 22.97007812 24.04179687 22.50390625 24.96484375 C20.4225642 27.8847121 19.16423209 28.12674457 15.6875 28.8125 C12.0584064 29.57790883 8.45540395 30.33873106 4.87890625 31.3203125 C-13.58449683 36.36434777 -13.58449683 36.36434777 -20.9375 32.625 C-25.90688591 28.9223203 -30.43812954 24.37122277 -31.49609375 18.0234375 C-31.68676793 11.1367348 -30.17245877 5.87946043 -26.125 0.25 C-18.94223074 -6.82338699 -7.92424506 -4.43757723 0 0 Z " fill="#DC3F37" transform="translate(356.125,220.75)"/>
<path d="M0 0 C2.45623417 1.76345018 3.60078043 3.03521937 4.75 5.8125 C5.52303488 12.57655523 5.04382946 17.44677459 1 23 C-3.69264589 27.43793025 -8.58962594 30.58240318 -15.0625 31.375 C-18.7527005 30.90391057 -19.74557171 29.89855066 -22 27 C-24.59080177 23.37287752 -24.64318945 19.29328958 -24 15 C-21.65108678 8.51379646 -16.84665675 4.79463143 -11.125 1.1875 C-6.97883133 -0.38804409 -4.42812424 -0.49994951 0 0 Z " fill="#DB3F37" transform="translate(595,169)"/>
<path d="M0 0 C1.859375 1.828125 1.859375 1.828125 3.75 4.25 C4.38421875 5.03890625 5.0184375 5.8278125 5.671875 6.640625 C7 9 7 9 7.07421875 11.109375 C5.40500354 14.04719377 3.12518854 14.68486653 0.0625 16 C-1.11054688 16.50660156 -2.28359375 17.01320313 -3.4921875 17.53515625 C-5.22855469 18.26025391 -5.22855469 18.26025391 -7 19 C-7.97195313 19.43183594 -8.94390625 19.86367188 -9.9453125 20.30859375 C-16.48398138 23.12900465 -16.48398138 23.12900465 -21 22 C-21.99 17.38 -22.98 12.76 -24 8 C-6.85714286 0 -6.85714286 0 0 0 Z " fill="#DB3F37" transform="translate(453,253)"/>
<path d="M0 0 C1 1 1 1 1.375 4.3125 C1.25588811 15.33034993 -5.97120415 25.12181808 -13.31640625 32.6796875 C-15 34 -15 34 -18 34 C-16.92134944 10.93919495 -16.92134944 10.93919495 -10 3 C-6.61519555 0.39630427 -4.26643525 -0.47404836 0 0 Z " fill="#DB3F37" transform="translate(196,320)"/>
<path d="M0 0 C0.66 0 1.32 0 2 0 C2.93081701 3.00222445 3.00935715 5.03959678 2.35083008 8.10327148 C2.09980278 9.30118568 2.09980278 9.30118568 1.84370422 10.52330017 C1.65422714 11.38057205 1.46475006 12.23784393 1.26953125 13.12109375 C0.98199226 14.46470726 0.98199226 14.46470726 0.68864441 15.83546448 C0.27999969 17.73522362 -0.13301379 19.63404747 -0.55004883 21.53198242 C-1.17782881 24.3934185 -1.79024385 27.25780555 -2.40039062 30.12304688 C-9.68897277 63.9881622 -9.68897277 63.9881622 -20 73 C-22.25 72.75 -22.25 72.75 -24 72 C-24.64613068 61.87728597 -20.47347187 52.08967461 -13.81640625 44.515625 C-13.03136719 43.64421875 -12.24632812 42.7728125 -11.4375 41.875 C-6.11388961 35.52727883 -4.53264411 28.98780306 -3 21 C-2.70125757 19.55323309 -2.40176601 18.10662069 -2.1015625 16.66015625 C-0.38384072 8.40022116 -0.38384072 8.40022116 0 0 Z " fill="#FCEEED" transform="translate(155,342)"/>
<path d="M0 0 C1.32 0.33 2.64 0.66 4 1 C4.6113024 11.61158265 -2.29749133 19.77415655 -8.8828125 27.45703125 C-12.61256509 31.93686323 -15.44199471 36.78075154 -18 42 C-20.36819009 35.94462788 -16.41955099 28.6689587 -14 23 C-10.04952016 14.86252889 -5.33673892 7.29103768 0 0 Z " fill="#FDF5F4" transform="translate(621,233)"/>
<path d="M0 0 C3 2 3 2 3.6875 3.625 C4.65269968 10.9605176 4.11122741 15.79989653 0 22 C-2.5 24.8125 -2.5 24.8125 -5 27 C-5.66 27.61875 -6.32 28.2375 -7 28.875 C-9 30 -9 30 -11.75 29.6875 C-12.4925 29.460625 -13.235 29.23375 -14 29 C-14.48087432 21.78688525 -14.48087432 21.78688525 -12.625 18.75 C-9.31447763 16.54298508 -5.8853815 15.25514249 -2.14453125 13.9296875 C0.16771224 13.20020367 0.16771224 13.20020367 1 11 C1.1421988 7.16063232 1.17754676 3.67983361 0 0 Z " fill="#FDF7F6" transform="translate(403,276)"/>
<path d="M0 0 C4.01297366 0.96864881 5.91809176 1.75795415 8.625 4.875 C9.125 8.5 9.125 8.5 8.625 11.875 C5.05029543 14.25813638 3.83946465 14.52337918 -0.375 13.875 C-3.19802557 12.26025165 -5.42047579 10.48496889 -7.375 7.875 C-7.5 4.625 -7.5 4.625 -6.375 1.875 C-3.375 -0.125 -3.375 -0.125 0 0 Z " fill="#DE4E47" transform="translate(816.375,329.125)"/>
<path d="M0 0 C7.875 0 7.875 0 11 2 C10.89300781 2.59167969 10.78601563 3.18335938 10.67578125 3.79296875 C9.84900009 9.05763491 9.84900009 9.05763491 11.4375 14.0625 C11.953125 14.701875 12.46875 15.34125 13 16 C9.75791433 15.64950425 8.38472296 15.43778819 6.1875 12.9375 C5.795625 12.298125 5.40375 11.65875 5 11 C4.67 12.98 4.34 14.96 4 17 C2.68 17 1.36 17 0 17 C0 11.39 0 5.78 0 0 Z " fill="#DE4F48" transform="translate(731,375)"/>
<path d="M0 0 C2.5 0.1875 2.5 0.1875 4.5 1.1875 C6.82914823 1.54891955 9.16253478 1.88449525 11.5 2.1875 C12.8260274 7.61215753 12.8260274 7.61215753 11.4375 10.0625 C8.58748451 11.7173477 6.76490529 11.56421984 3.5 11.1875 C-0.3125 10.0625 -0.3125 10.0625 -3.5 8.1875 C-4.5625 5.125 -4.5625 5.125 -4.5 2.1875 C-2.5 0.1875 -2.5 0.1875 0 0 Z " fill="#E3655F" transform="translate(821.5,307.8125)"/>
<path d="M0 0 C0.99 0 1.98 0 3 0 C3.67184618 2.10251861 4.33730968 4.20707763 5 6.3125 C5.37125 7.48425781 5.7425 8.65601563 6.125 9.86328125 C7 13 7 13 7 16 C2.16743695 15.58578031 0.17320782 13.53586014 -3 10 C-2.67 12.64 -2.34 15.28 -2 18 C-2.99 18.33 -3.98 18.66 -5 19 C-5.67413211 17.08594633 -6.3390332 15.16863974 -7 13.25 C-7.37125 12.18265625 -7.7425 11.1153125 -8.125 10.015625 C-9 7 -9 7 -9 3 C-4.59885603 3.50298788 -2.28804981 5.08772731 1 8 C0.67 5.36 0.34 2.72 0 0 Z " fill="#DD453D" transform="translate(769,369)"/>
<path d="M0 0 C2.29296875 0.12890625 2.29296875 0.12890625 5 1 C6.80078125 3.65234375 6.80078125 3.65234375 8.3125 6.9375 C8.82425781 8.01902344 9.33601562 9.10054688 9.86328125 10.21484375 C11 13 11 13 11 15 C9.68 14.67 8.36 14.34 7 14 C7 13.34 7 12.68 7 12 C5.35 12.33 3.7 12.66 2 13 C1.67 14.32 1.34 15.64 1 17 C0.01 17 -0.98 17 -2 17 C-1.85848172 14.9163691 -1.71162064 12.83310062 -1.5625 10.75 C-1.48128906 9.58984375 -1.40007813 8.4296875 -1.31640625 7.234375 C-1.06752213 4.69022624 -0.71885058 2.44046752 0 0 Z " fill="#DF5049" transform="translate(749,374)"/>
<path d="M0 0 C0.99 0.33 1.98 0.66 3 1 C1.68 3.31 0.36 5.62 -1 8 C-0.401875 7.484375 0.19625 6.96875 0.8125 6.4375 C1.534375 5.963125 2.25625 5.48875 3 5 C3.99 5.33 4.98 5.66 6 6 C6 6.66 6 7.32 6 8 C5.01 8.495 5.01 8.495 4 9 C4 9.99 4 10.98 4 12 C4.86625 11.505 4.86625 11.505 5.75 11 C8 10 8 10 12 10 C10.33533 14.66107601 8.75884377 14.82743749 4 18 C0.7 14.37 -2.6 10.74 -6 7 C-4.14418503 3.28837006 -3.44285416 1.98224936 0 0 Z " fill="#DE4B44" transform="translate(795,354)"/>
<path d="M0 0 C0.33 0.66 0.66 1.32 1 2 C0.67 2.66 0.34 3.32 0 4 C-1.98 4 -3.96 4 -6 4 C-6.6878236 6.35367713 -6.6878236 6.35367713 -7 9 C-6.01 10.485 -6.01 10.485 -5 12 C-3.35 11.67 -1.7 11.34 0 11 C0.33 10.01 0.66 9.02 1 8 C1.99 8 2.98 8 4 8 C4.25 10.3125 4.25 10.3125 4 13 C1.79668027 15.45754893 0.31487192 15.94640478 -2.9375 16.5 C-6 16 -6 16 -8.875 14 C-11.78789129 9.88768289 -11.64003318 7.96025717 -11 3 C-8.8254183 -1.34916341 -4.24620661 -0.20882983 0 0 Z " fill="#DD4942" transform="translate(788,364)"/>
<path d="M0 0 C2.875 -0.125 2.875 -0.125 6 0 C8.64242277 2.64242277 8.29852198 3.94412053 8.3125 7.625 C8.23989069 13.10370276 7.28461406 17.05000286 5 22 C4.34 22 3.68 22 3 22 C3.05800781 21.03578125 3.11601562 20.0715625 3.17578125 19.078125 C3.22089844 17.81484375 3.26601562 16.5515625 3.3125 15.25 C3.37050781 13.99703125 3.42851562 12.7440625 3.48828125 11.453125 C3.33439677 7.82516569 3.33439677 7.82516569 0.48046875 5.546875 C-0.33808594 5.03640625 -1.15664062 4.5259375 -2 4 C-1.34 2.68 -0.68 1.36 0 0 Z " fill="#FCF3F3" transform="translate(209,214)"/>
<path d="M0 0 C2.375 0.3125 2.375 0.3125 5 1 C8.10784031 5.66176047 7.37442264 10.53486956 7 16 C6 19.75 6 19.75 5 22 C3.68 22 2.36 22 1 22 C1.01740234 20.12054688 1.01740234 20.12054688 1.03515625 18.203125 C1.04453716 16.55208483 1.05363704 14.90104304 1.0625 13.25 C1.07087891 12.425 1.07925781 11.6 1.08789062 10.75 C1.09272461 9.55117187 1.09272461 9.55117187 1.09765625 8.328125 C1.10289307 7.5949707 1.10812988 6.86181641 1.11352539 6.10644531 C0.9975109 3.9538151 0.59073271 2.0685865 0 0 Z " fill="#FDF5F4" transform="translate(282,139)"/>
<path d="M0 0 C3.3 0 6.6 0 10 0 C10.33 1.32 10.66 2.64 11 4 C8.69 4 6.38 4 4 4 C4 4.99 4 5.98 4 7 C5.65 7 7.3 7 9 7 C9 7.99 9 8.98 9 10 C7.02 10 5.04 10 3 10 C3 12.31 3 14.62 3 17 C2.01 17 1.02 17 0 17 C0 11.39 0 5.78 0 0 Z " fill="#E0554E" transform="translate(718,375)"/>
<path d="M0 0 C2.21051199 1.87558593 3.17365513 3.00266132 4.0625 5.75 C4.1875 8.5 4.1875 8.5 4.0625 10.75 C2.7425 11.08 1.4225 11.41 0.0625 11.75 C-0.39125 10.63625 -0.845 9.5225 -1.3125 8.375 C-2.66215986 4.78800992 -2.66215986 4.78800992 -4.9375 2.75 C-9.10687798 2.51399747 -12.88142005 2.76670789 -16.9375 3.75 C-16.6075 2.43 -16.2775 1.11 -15.9375 -0.25 C-10.56639805 -1.76024182 -5.1956044 -2.21089549 0 0 Z " fill="#FBEAEA" transform="translate(207.9375,86.25)"/>
<path d="M0 0 C2.5625 0.375 2.5625 0.375 4.25 2.125 C5.44651827 4.17617418 6.56257307 6.22131123 7.5625 8.375 C8.8825 7.715 10.2025 7.055 11.5625 6.375 C11.5625 10.42980631 10.01379908 12.22332975 7.5625 15.375 C6.5725 15.375 5.5825 15.375 4.5625 15.375 C4.38074219 14.66472656 4.19898438 13.95445312 4.01171875 13.22265625 C3.76035156 12.30355469 3.50898437 11.38445312 3.25 10.4375 C3.00636719 9.52097656 2.76273438 8.60445313 2.51171875 7.66015625 C2.19847656 6.90605469 1.88523437 6.15195312 1.5625 5.375 C0.5725 5.045 -0.4175 4.715 -1.4375 4.375 C-1.7675 5.695 -2.0975 7.015 -2.4375 8.375 C-3.4275 8.045 -4.4175 7.715 -5.4375 7.375 C-4.37940871 0.67375519 -4.37940871 0.67375519 0 0 Z " fill="#DE4B44" transform="translate(807.4375,341.625)"/>
<path d="M0 0 C0.763125 0.0825 1.52625 0.165 2.3125 0.25 C3.125 1.9375 3.125 1.9375 3.3125 4.25 C2.4875 5.013125 1.6625 5.77625 0.8125 6.5625 C-0.0125 7.449375 -0.8375 8.33625 -1.6875 9.25 C-1.63021002 12.99360341 -1.63021002 12.99360341 -0.6875 16.25 C-1.6775 16.25 -2.6675 16.25 -3.6875 16.25 C-6.20009156 12.48111266 -6.26081422 8.6215209 -5.6875 4.25 C-4.15169519 1.01672672 -3.59306259 0.33423838 0 0 Z " fill="#FDF4F4" transform="translate(487.6875,229.75)"/>
<path d="M0 0 C0.66 0 1.32 0 2 0 C2.03738281 0.59167969 2.07476562 1.18335938 2.11328125 1.79296875 C2.51054897 6.56797099 2.95668 10.1045504 6 14 C6.66 14.33 7.32 14.66 8 15 C8 16.32 8 17.64 8 19 C3.50337118 17.84372402 1.42871597 15.68213035 -1.0546875 11.94140625 C-2.55461843 8.86096959 -2.44975263 6.34101951 -2 3 C-1.34 2.01 -0.68 1.02 0 0 Z " fill="#FCF0EF" transform="translate(242,297)"/>
<path d="M0 0 C1.66611905 -0.042721 3.33382885 -0.04063832 5 0 C6 1 6 1 6.25 4.1875 C5.98190698 8.27591859 5.20320838 10.57278697 3 14 C2.01 14.33 1.02 14.66 0 15 C-0.95113932 11.91408133 -0.9945535 9.56472828 -0.5625 6.375 C-0.13976496 3.19673543 -0.13976496 3.19673543 0 0 Z " fill="#FCF0F0" transform="translate(729,220)"/>
<path d="M0 0 C1.32 0 2.64 0 4 0 C4.85129163 7.32110805 1.80012917 13.34969322 -1 20 C-1.66 20 -2.32 20 -3 20 C-2.125 12.25 -2.125 12.25 -1 10 C-0.77377919 8.29636178 -0.59111527 6.58671299 -0.4375 4.875 C-0.31181641 3.50988281 -0.31181641 3.50988281 -0.18359375 2.1171875 C-0.12300781 1.41851562 -0.06242188 0.71984375 0 0 Z " fill="#FCF0F0" transform="translate(565,221)"/>
<path d="M0 0 C10.55808656 3.07517084 10.55808656 3.07517084 15 5 C15 5.99 15 6.98 15 8 C10.94393835 7.53199289 7.53411321 7.12046792 4 5 C4 5.99 4 6.98 4 8 C3.01 7.67 2.02 7.34 1 7 C0.67 4.69 0.34 2.38 0 0 Z " fill="#DE4C44" transform="translate(815,319)"/>
<path d="M0 0 C2.375 0.25 2.375 0.25 5 1 C7.41757377 4.10830913 7.24918391 7.17917999 7 11 C6.67 11.66 6.34 12.32 6 13 C5.01 13 4.02 13 3 13 C2.896875 11.906875 2.79375 10.81375 2.6875 9.6875 C2.02692273 6.14440371 1.7972908 5.06756277 -1 3 C-0.67 2.01 -0.34 1.02 0 0 Z " fill="#FBEAE9" transform="translate(431,215)"/>
<path d="M0 0 C2.375 0.25 2.375 0.25 5 1 C7.31491757 4.31596301 7.2109214 7.29761565 7.125 11.25 C7.10695313 12.32765625 7.08890625 13.4053125 7.0703125 14.515625 C7.04710937 15.33546875 7.02390625 16.1553125 7 17 C6.34 17 5.68 17 5 17 C4.80664062 16.15695313 4.61328125 15.31390625 4.4140625 14.4453125 C4.15367187 13.34960938 3.89328125 12.25390625 3.625 11.125 C3.36976563 10.03445312 3.11453125 8.94390625 2.8515625 7.8203125 C2.21093785 4.89591545 2.21093785 4.89591545 0 3 C0 2.01 0 1.02 0 0 Z " fill="#FCF0EF" transform="translate(632,218)"/>
<path d="M0 0 C0.66 0.33 1.32 0.66 2 1 C1.87882813 1.71542969 1.75765625 2.43085938 1.6328125 3.16796875 C0.35453476 10.76880484 -0.8446425 18.37955694 -2 26 C-2.99 26.33 -3.98 26.66 -5 27 C-4.39828638 20.67250629 -3.37848091 14.62404348 -1.9375 8.4375 C-1.75123047 7.61958984 -1.56496094 6.80167969 -1.37304688 5.95898438 C-0.91979313 3.97164104 -0.46053788 1.98566799 0 0 Z " fill="#F8DCDB" transform="translate(180,328)"/>
<path d="M0 0 C3.37462715 0.54723683 5.08235 1.0549 8 3 C7.67 4.65 7.34 6.3 7 8 C3.17902761 7.46930939 0.93828597 6.50298434 -2 4 C-1.34 2.68 -0.68 1.36 0 0 Z " fill="#FCEEED" transform="translate(814,332)"/>
<path d="M0 0 C0.33 0 0.66 0 1 0 C1.54181478 6.63723109 0.92439427 10.5494524 -3 16 C-5.55386012 18.63898879 -6.5352409 18.97318697 -10.25 19.1875 C-11.61125 19.0946875 -11.61125 19.0946875 -13 19 C-11.35 17.02 -9.7 15.04 -8 13 C-7.67 13.99 -7.34 14.98 -7 16 C-3.33725934 12.88212985 -2.26421831 10.41540422 -1.25 5.75 C-1.00765625 4.67234375 -0.7653125 3.5946875 -0.515625 2.484375 C-0.34546875 1.66453125 -0.1753125 0.8446875 0 0 Z " fill="#F8D8D7" transform="translate(482,283)"/>
<path d="M0 0 C0.66 0 1.32 0 2 0 C2.38800781 0.66515625 2.77601563 1.3303125 3.17578125 2.015625 C4.93032292 4.38926949 4.93032292 4.38926949 8.35546875 4.171875 C10.25232422 3.96304688 10.25232422 3.96304688 12.1875 3.75 C14.09595703 3.55664062 14.09595703 3.55664062 16.04296875 3.359375 C17.01878906 3.24078125 17.99460937 3.1221875 19 3 C19.33 3.66 19.66 4.32 20 5 C14.83049112 7.17663532 9.54580508 7.8510889 4 7 C1.6953125 5.73046875 1.6953125 5.73046875 0 4 C0 2.68 0 1.36 0 0 Z " fill="#FAE6E5" transform="translate(342,232)"/>
<path d="M0 0 C2.475 0.495 2.475 0.495 5 1 C4.44894091 4.9492568 3.61064629 8.34920174 2 12 C1.34 12 0.68 12 0 12 C0 8.04 0 4.08 0 0 Z " fill="#FAE6E5" transform="translate(590,175)"/>
<path d="M0 0 C0.99 0.33 1.98 0.66 3 1 C2.57847656 1.53367188 2.15695312 2.06734375 1.72265625 2.6171875 C-2.52048675 8.38786198 -3.9701483 12.85051779 -4 20 C-4.33 20 -4.66 20 -5 20 C-5.144375 18.88625 -5.28875 17.7725 -5.4375 16.625 C-5.78372035 13.17857953 -5.78372035 13.17857953 -7 11 C-5.8203125 8.65234375 -5.8203125 8.65234375 -4.125 5.9375 C-3.57070313 5.03902344 -3.01640625 4.14054688 -2.4453125 3.21484375 C-1 1 -1 1 0 0 Z " fill="#F9E1DF" transform="translate(386,232)"/>
<path d="M0 0 C0.66 0.33 1.32 0.66 2 1 C-4.27 7.27 -10.54 13.54 -17 20 C-17.66 19.34 -18.32 18.68 -19 18 C-18.38253906 17.45472656 -17.76507813 16.90945313 -17.12890625 16.34765625 C-11.21781284 11.0843539 -5.53581064 5.65615435 0 0 Z " fill="#FBE8E7" transform="translate(187,287)"/>
<path d="M0 0 C0.0270043 1.45823212 0.04639787 2.91660675 0.0625 4.375 C0.07410156 5.18710938 0.08570313 5.99921875 0.09765625 6.8359375 C0 9 0 9 -1 11 C-1.66 11 -2.32 11 -3 11 C-3.13277344 10.37351563 -3.26554687 9.74703125 -3.40234375 9.1015625 C-3.57894531 8.28429687 -3.75554687 7.46703125 -3.9375 6.625 C-4.19853516 5.40683594 -4.19853516 5.40683594 -4.46484375 4.1640625 C-4.92330693 1.970537 -4.92330693 1.970537 -6 0 C-3.50907189 -1.24546405 -2.58919267 -0.7767578 0 0 Z " fill="#FCF1F1" transform="translate(510,216)"/>
<path d="M0 0 C0.66 0 1.32 0 2 0 C6 6.75 6 6.75 6 9 C6.99 9.33 7.98 9.66 9 10 C9 10.66 9 11.32 9 12 C6.08264362 11.68461012 4.42948813 11.39881041 2.25 9.375 C0.62780937 6.29283781 0.3310304 3.44271613 0 0 Z " fill="#FAE4E3" transform="translate(297,297)"/>
<path d="M0 0 C0.99 0.33 1.98 0.66 3 1 C1.64696511 5.05910468 -0.34436731 5.9213069 -4 8 C-5.32 8 -6.64 8 -8 8 C-6.49860488 3.79609368 -3.82724957 2.10889262 0 0 Z " fill="#FBEAE9" transform="translate(315,235)"/>
<path d="M0 0 C2 1 2 1 3.4375 4.4375 C4.70190988 8.19068113 4.70190988 8.19068113 8 10 C7.67 10.99 7.34 11.98 7 13 C3.16031141 11.5435664 1.68993538 9.71785783 0 6 C-0.1875 2.6875 -0.1875 2.6875 0 0 Z " fill="#F8D9D8" transform="translate(708,297)"/>
<path d="M0 0 C0.99 0 1.98 0 3 0 C3.67119549 1.4562545 4.33681807 2.91507867 5 4.375 C5.556875 5.59316406 5.556875 5.59316406 6.125 6.8359375 C7 9 7 9 7 11 C6.34 11 5.68 11 5 11 C4.67 11.66 4.34 12.32 4 13 C3.32942113 11.2097939 2.6636531 9.41778511 2 7.625 C1.62875 6.62726563 1.2575 5.62953125 0.875 4.6015625 C0 2 0 2 0 0 Z " fill="#FAE5E4" transform="translate(500,266)"/>
<path d="M0 0 C1.32 0.33 2.64 0.66 4 1 C3.57202798 6.70629354 1.15654048 10.41078616 -2 15 C-2.66 14.34 -3.32 13.68 -4 13 C-3.34 11.96875 -2.68 10.9375 -2 9.875 C-0.02717274 6.46423174 0.38827665 3.9798357 0 0 Z " fill="#F7D3D1" transform="translate(539,244)"/>
<path d="M0 0 C0.66 0 1.32 0 2 0 C3.35803676 1.71659432 4.49830258 3.53184882 5.68359375 5.37109375 C7.00013286 7.29953716 7.00013286 7.29953716 10 8 C9.67 8.99 9.34 9.98 9 11 C5.17035345 9.43977363 2.67809511 7.12444429 0 4 C0 2.68 0 1.36 0 0 Z " fill="#FAE7E6" transform="translate(542,293)"/>
<path d="M0 0 C0.33 0.66 0.66 1.32 1 2 C-3.67201205 3.20568053 -8.21496292 3.09382426 -13 3 C-13 2.34 -13 1.68 -13 1 C-11.58622218 0.63447197 -10.16879424 0.28304505 -8.75 -0.0625 C-7.96109375 -0.25972656 -7.1721875 -0.45695313 -6.359375 -0.66015625 C-3.86185292 -1.01989867 -2.34449197 -0.9077126 0 0 Z " fill="#F9DFDE" transform="translate(362,253)"/>
<path d="M0 0 C2.31 0 4.62 0 7 0 C6.67 1.32 6.34 2.64 6 4 C4.02 4 2.04 4 0 4 C0 2.68 0 1.36 0 0 Z " fill="#F8DAD9" transform="translate(266,140)"/>
<path d="M0 0 C0.66 0 1.32 0 2 0 C2.4125 0.886875 2.825 1.77375 3.25 2.6875 C4.90127288 5.81312366 6.71331259 8.31905614 9 11 C6.53955077 10.61095461 5.27840279 10.28572918 3.515625 8.4765625 C3.09796875 7.86554688 2.6803125 7.25453125 2.25 6.625 C1.82203125 6.01914062 1.3940625 5.41328125 0.953125 4.7890625 C0 3 0 3 0 0 Z " fill="#F9E2E1" transform="translate(598,298)"/>
<path d="M0 0 C0.99 0.33 1.98 0.66 3 1 C3 2.65 3 4.3 3 6 C1.68 6.33 0.36 6.66 -1 7 C-1.04254356 5.00045254 -1.04080783 2.99958364 -1 1 C-0.67 0.67 -0.34 0.34 0 0 Z " fill="#F9E1E0" transform="translate(190,326)"/>
<path d="M0 0 C1.32 0.33 2.64 0.66 4 1 C4.6875 3.25 4.6875 3.25 5 6 C3.5625 8.3125 3.5625 8.3125 2 10 C2.04125 9.0925 2.0825 8.185 2.125 7.25 C2.00468444 4.1217954 1.6085292 2.61385994 0 0 Z " fill="#FBEAE9" transform="translate(711,232)"/>
<path d="M0 0 C0.99 0 1.98 0 3 0 C3.33 2.64 3.66 5.28 4 8 C3.01 7.67 2.02 7.34 1 7 C0.67 4.69 0.34 2.38 0 0 Z " fill="#F9DEDC" transform="translate(463,299)"/>
<path d="M0 0 C3 2 3 2 3.6875 3.625 C4.14471421 7.099828 4.05840231 10.49586168 4 14 C2.30566082 10.9530371 1.50532888 8.17178534 0.875 4.75 C0.70742188 3.85796875 0.53984375 2.9659375 0.3671875 2.046875 C0.18542969 1.03367187 0.18542969 1.03367187 0 0 Z " fill="#F6D0CE" transform="translate(403,276)"/>
<path d="M0 0 C2.475 0.495 2.475 0.495 5 1 C5.33 2.65 5.66 4.3 6 6 C1.125 3.375 1.125 3.375 0 0 Z " fill="#FBEAE9" transform="translate(351,224)"/>
<path d="M0 0 C-0.33 0.99 -0.66 1.98 -1 3 C-3.31 3.33 -5.62 3.66 -8 4 C-4.5 0 -4.5 0 0 0 Z " fill="#FBE8E7" transform="translate(427,214)"/>
<path d="M0 0 C1.65 0 3.3 0 5 0 C5.33 0.66 5.66 1.32 6 2 C5.67 2.66 5.34 3.32 5 4 C2.03 3.505 2.03 3.505 -1 3 C-0.67 2.01 -0.34 1.02 0 0 Z " fill="#DF534C" transform="translate(783,364)"/>
<path d="M0 0 C2.02907167 3.3146667 2.12742133 5.4315979 1.625 9.25 C1.51414062 10.14203125 1.40328125 11.0340625 1.2890625 11.953125 C1.19367188 12.62859375 1.09828125 13.3040625 1 14 C0.67 14 0.34 14 0 14 C-0.19456705 12.04235617 -0.38044247 10.08384679 -0.5625 8.125 C-0.66691406 7.03445313 -0.77132813 5.94390625 -0.87890625 4.8203125 C-1 2 -1 2 0 0 Z " fill="#F4C7C5" transform="translate(430,266)"/>
<path d="M0 0 C2.79872437 2.52788007 4.45773019 4.20411134 5 8 C3.0625 7.375 3.0625 7.375 1 6 C0.25 2.875 0.25 2.875 0 0 Z " fill="#FBE8E7" transform="translate(384,302)"/>
<path d="M0 0 C2.475 0.495 2.475 0.495 5 1 C4.67 1.99 4.34 2.98 4 4 C2.68 4 1.36 4 0 4 C0 2.68 0 1.36 0 0 Z " fill="#F6CECC" transform="translate(734,378)"/>
<path d="M0 0 C2 2 2 2 2.125 5.125 C2.08375 6.07375 2.0425 7.0225 2 8 C1.01 8.33 0.02 8.66 -1 9 C-0.67 6.03 -0.34 3.06 0 0 Z " fill="#F4C7C5" transform="translate(176,346)"/>
<path d="M0 0 C1.25541557 3.76624671 0.37061958 5.37188934 -1 9 C-1.66 8.67 -2.32 8.34 -3 8 C-2.74438677 5.6568787 -2.40729228 3.32156597 -2 1 C-1.34 0.67 -0.68 0.34 0 0 Z " fill="#FAE6E5" transform="translate(605,266)"/>
</svg>
