<?xml version="1.0" encoding="iso-8859-1"?>
<!-- Uploaded to: SVG Repo, www.svgrepo.com, Generator: SVG Repo Mixer Tools -->
<!DOCTYPE svg PUBLIC "-//W3C//DTD SVG 1.1//EN" "http://www.w3.org/Graphics/SVG/1.1/DTD/svg11.dtd">
<svg height="800px" width="800px" version="1.1" id="Capa_1" xmlns="http://www.w3.org/2000/svg" xmlns:xlink="http://www.w3.org/1999/xlink" 
	 viewBox="0 0 475.07 475.07" xml:space="preserve">
<g>
	<linearGradient id="SVGID_1_" gradientUnits="userSpaceOnUse" x1="233.5437" y1="386.3" x2="223.3237" y2="386.3">
		<stop  offset="0" style="stop-color:#2F5E72;stop-opacity:0.643"/>
		<stop  offset="0.134" style="stop-color:#2E6B85;stop-opacity:0.5573"/>
		<stop  offset="0.5314" style="stop-color:#2B8DB7;stop-opacity:0.3031"/>
		<stop  offset="0.8325" style="stop-color:#2AA3D6;stop-opacity:0.1106"/>
		<stop  offset="1" style="stop-color:#29ABE2;stop-opacity:0.0034"/>
	</linearGradient>
	<path style="fill:url(#SVGID_1_);" d="M233.544,316.91v138.78l-10.22-18.32V317.09c1.18-0.12,2.37-0.18,3.57-0.18H233.544z"/>
	<linearGradient id="SVGID_2_" gradientUnits="userSpaceOnUse" x1="241.5437" y1="386.28" x2="251.7737" y2="386.28">
		<stop  offset="0" style="stop-color:#2F5E72;stop-opacity:0.643"/>
		<stop  offset="0.134" style="stop-color:#2E6B85;stop-opacity:0.5573"/>
		<stop  offset="0.5314" style="stop-color:#2B8DB7;stop-opacity:0.3031"/>
		<stop  offset="0.8325" style="stop-color:#2AA3D6;stop-opacity:0.1106"/>
		<stop  offset="1" style="stop-color:#29ABE2;stop-opacity:0.0034"/>
	</linearGradient>
	<path style="fill:url(#SVGID_2_);" d="M251.774,316.87v120.5l-10.23,18.32V316.91h8.47
		C250.604,316.91,251.184,316.89,251.774,316.87z"/>
	<linearGradient id="SVGID_3_" gradientUnits="userSpaceOnUse" x1="237.5388" y1="187.9319" x2="237.5388" y2="358.4">
		<stop  offset="0" style="stop-color:#FFAAAC"/>
		<stop  offset="0.0917" style="stop-color:#ED1C24"/>
		<stop  offset="0.3774" style="stop-color:#EB1C24"/>
		<stop  offset="0.5368" style="stop-color:#E31B22"/>
		<stop  offset="0.6651" style="stop-color:#D51920"/>
		<stop  offset="0.7769" style="stop-color:#C1171D"/>
		<stop  offset="0.8779" style="stop-color:#A81419"/>
		<stop  offset="0.9698" style="stop-color:#891015"/>
		<stop  offset="1" style="stop-color:#7D0F13"/>
	</linearGradient>
	<path style="fill:url(#SVGID_3_);" d="M326.394,205.77c23.72,23.71,23.72,62.29,0,86.01l-66.62,66.62v-42.6
		c7.81-1.8,14.98-5.73,20.78-11.54c1.57-1.56,1.57-4.1,0-5.66c-1.56-1.56-4.09-1.56-5.65,0c-6.65,6.65-15.49,10.31-24.89,10.31
		h-23.12c-11.53,0-22.38,4.49-30.54,12.65l-1.81,1.81c-1.56,1.57-1.56,4.1,0,5.66c0.78,0.78,1.8,1.17,2.83,1.17
		c1.02,0,2.05-0.39,2.83-1.17l1.81-1.81c3.82-3.82,8.36-6.64,13.31-8.36v39.52l-66.61-66.6c-11.49-11.49-17.82-26.76-17.82-43.01
		c0-16.24,6.33-31.51,17.82-43c16.8-16.8,41.66-22.24,63.85-14.15c0.05,0.24,0.11,0.48,0.17,0.72c1.68,7.54,2.54,15.32,2.58,23.12
		c-7.1,1.96-13.61,5.72-18.96,11.07l-1.81,1.81c-1.56,1.57-1.56,4.1,0,5.66c0.78,0.78,1.8,1.17,2.83,1.17
		c1.02,0,2.05-0.39,2.83-1.17l1.81-1.81c6.65-6.65,15.48-10.31,24.88-10.31h23.12c11.54,0,22.39-4.49,30.54-12.65
		c1.57-1.56,1.57-4.09,0-5.66c-1.56-1.56-4.09-1.56-5.65,0c-4.27,4.27-9.43,7.29-15.07,8.92c0.22-6.8,1.06-13.57,2.53-20.16
		c0.05-0.23,0.11-0.45,0.16-0.68c6.68-2.44,13.69-3.69,20.87-3.69C299.634,187.96,314.904,194.29,326.394,205.77z"/>
	<linearGradient id="SVGID_4_" gradientUnits="userSpaceOnUse" x1="233.5437" y1="193.48" x2="215.1237" y2="193.48">
		<stop  offset="0" style="stop-color:#2F5E72;stop-opacity:0.643"/>
		<stop  offset="0.134" style="stop-color:#2E6B85;stop-opacity:0.5573"/>
		<stop  offset="0.5314" style="stop-color:#2B8DB7;stop-opacity:0.3031"/>
		<stop  offset="0.8325" style="stop-color:#2AA3D6;stop-opacity:0.1106"/>
		<stop  offset="1" style="stop-color:#29ABE2;stop-opacity:0.0034"/>
	</linearGradient>
	<path style="fill:url(#SVGID_4_);" d="M233.544,180.23v33.65h-6.65c-1.2,0-2.4,0.06-3.6,0.16c-0.13-7.91-1.05-15.78-2.75-23.43
		c-1.34-6.03-3.16-11.95-5.42-17.69C223.654,175.03,230.454,178.49,233.544,180.23z"/>
	<linearGradient id="SVGID_5_" gradientUnits="userSpaceOnUse" x1="241.5437" y1="193.205" x2="260.1338" y2="193.205">
		<stop  offset="0" style="stop-color:#2F5E72;stop-opacity:0.643"/>
		<stop  offset="0.134" style="stop-color:#2E6B85;stop-opacity:0.5573"/>
		<stop  offset="0.5314" style="stop-color:#2B8DB7;stop-opacity:0.3031"/>
		<stop  offset="0.8325" style="stop-color:#2AA3D6;stop-opacity:0.1106"/>
		<stop  offset="1" style="stop-color:#29ABE2;stop-opacity:0.0034"/>
	</linearGradient>
	<path style="fill:url(#SVGID_5_);" d="M260.134,172.53c-2.34,5.86-4.22,11.92-5.58,18.07c-1.69,7.59-2.61,15.4-2.75,23.24
		c-0.6,0.03-1.19,0.04-1.79,0.04h-8.47V179.4C245.324,177.4,252.014,174.3,260.134,172.53z"/>
	<linearGradient id="SVGID_6_" gradientUnits="userSpaceOnUse" x1="237.5538" y1="128.076" x2="237.5538" y2="172.87">
		<stop  offset="0" style="stop-color:#00943B"/>
		<stop  offset="0.2179" style="stop-color:#00913A"/>
		<stop  offset="0.3812" style="stop-color:#008736"/>
		<stop  offset="0.5268" style="stop-color:#007730"/>
		<stop  offset="0.662" style="stop-color:#006026"/>
		<stop  offset="0.79" style="stop-color:#00431B"/>
		<stop  offset="0.9109" style="stop-color:#001F0D"/>
		<stop  offset="1" style="stop-color:#000000"/>
	</linearGradient>
	<path style="fill:url(#SVGID_6_);" d="M322.554,139.1c1.59,5.26-0.27,11.03-4.97,15.44c-3.01,2.83-8.11,3.29-11.36,1.02
		c-3.5-2.44-3.94-7.54-1.21-14c0.52-1.24,0.39-2.65-0.35-3.77c-0.74-1.12-1.99-1.79-3.33-1.79c-25.04,0-41.3,9.16-51.02,14.63
		l-0.56,0.31c-1.11,0.63-1.86,1.75-2.01,3.02c-0.15,1.27,0.32,2.54,1.26,3.41l8.24,7.61c-9.21,2.17-16.59,5.76-20.45,7.89
		c-3.7-2.04-10.6-5.41-19.25-7.6l8.55-7.9c0.94-0.87,1.41-2.14,1.26-3.41c-0.15-1.27-0.9-2.39-2.01-3.02l-0.57-0.31
		c-9.71-5.47-25.97-14.63-51.01-14.63c-1.41,0-2.71,0.74-3.44,1.95c-0.72,1.21-0.75,2.71-0.08,3.95c3.08,5.68,2.88,10.26-0.54,12.9
		c-3.49,2.68-9.18,2.56-12.18-0.26c-4.7-4.41-6.56-10.18-4.97-15.44c1.64-5.42,6.57-9.18,13.52-10.34
		c17.6-2.93,46.62,3.33,68.74,24.03c1.54,1.44,3.93,1.44,5.47,0c22.12-20.7,51.15-26.97,68.75-24.03
		C315.984,129.92,320.914,133.68,322.554,139.1z"/>
	<linearGradient id="SVGID_7_" gradientUnits="userSpaceOnUse" x1="237.5538" y1="144.49" x2="237.5538" y2="119.26">
		<stop  offset="0" style="stop-color:#2F5E72;stop-opacity:0.643"/>
		<stop  offset="0.134" style="stop-color:#2E6B85;stop-opacity:0.5573"/>
		<stop  offset="0.5314" style="stop-color:#2B8DB7;stop-opacity:0.3031"/>
		<stop  offset="0.8325" style="stop-color:#2AA3D6;stop-opacity:0.1106"/>
		<stop  offset="1" style="stop-color:#29ABE2;stop-opacity:0.0034"/>
	</linearGradient>
	<path style="fill:url(#SVGID_7_);" d="M237.554,119.26l13.19,15.52c-4.52,2.8-8.95,6.02-13.2,9.71c-4.24-3.69-8.66-6.91-13.18-9.7
		L237.554,119.26z"/>
	<linearGradient id="SVGID_8_" gradientUnits="userSpaceOnUse" x1="237.5538" y1="64.8" x2="237.5538" y2="123.05">
		<stop  offset="0" style="stop-color:#FCA221"/>
		<stop  offset="0.2433" style="stop-color:#F9A021"/>
		<stop  offset="0.3962" style="stop-color:#F19822"/>
		<stop  offset="0.5241" style="stop-color:#E28A23"/>
		<stop  offset="0.6383" style="stop-color:#CD7824"/>
		<stop  offset="0.7433" style="stop-color:#B35F26"/>
		<stop  offset="0.8416" style="stop-color:#924128"/>
		<stop  offset="0.9329" style="stop-color:#6B1E2B"/>
		<stop  offset="1" style="stop-color:#4A002D"/>
	</linearGradient>
	<path style="fill:url(#SVGID_8_);" d="M251.274,64.8v58.25l-10.67-12.56c-0.76-0.9-1.88-1.41-3.05-1.41
		c-1.17,0-2.29,0.51-3.05,1.41l-10.67,12.56V64.8H251.274z"/>
	<linearGradient id="SVGID_9_" gradientUnits="userSpaceOnUse" x1="221.4962" y1="31.9275" x2="253.6113" y2="64.0425">
		<stop  offset="0" style="stop-color:#73C493"/>
		<stop  offset="0.2946" style="stop-color:#00943B"/>
		<stop  offset="0.4483" style="stop-color:#00913A"/>
		<stop  offset="0.5635" style="stop-color:#008736"/>
		<stop  offset="0.6662" style="stop-color:#007730"/>
		<stop  offset="0.7615" style="stop-color:#006026"/>
		<stop  offset="0.8519" style="stop-color:#00431B"/>
		<stop  offset="0.9372" style="stop-color:#001F0D"/>
		<stop  offset="1" style="stop-color:#000000"/>
	</linearGradient>
	<path style="fill:url(#SVGID_9_);" d="M265.104,46.42v3.13c0,4-3.25,7.25-7.25,7.25h-40.6c-4,0-7.25-3.25-7.25-7.25v-3.13
		c0-4,3.25-7.25,7.25-7.25h40.6C261.854,39.17,265.104,42.42,265.104,46.42z"/>
	<linearGradient id="SVGID_10_" gradientUnits="userSpaceOnUse" x1="226.9691" y1="12.3084" x2="248.1372" y2="33.4766">
		<stop  offset="0" style="stop-color:#FED7A0"/>
		<stop  offset="0.0383" style="stop-color:#FECE8B"/>
		<stop  offset="0.1191" style="stop-color:#FDBE65"/>
		<stop  offset="0.1994" style="stop-color:#FDB247"/>
		<stop  offset="0.2783" style="stop-color:#FCA932"/>
		<stop  offset="0.355" style="stop-color:#FCA425"/>
		<stop  offset="0.4269" style="stop-color:#FCA221"/>
		<stop  offset="0.5663" style="stop-color:#F9A021"/>
		<stop  offset="0.6539" style="stop-color:#F19822"/>
		<stop  offset="0.7272" style="stop-color:#E28A23"/>
		<stop  offset="0.7927" style="stop-color:#CD7824"/>
		<stop  offset="0.8529" style="stop-color:#B35F26"/>
		<stop  offset="0.9092" style="stop-color:#924128"/>
		<stop  offset="0.9615" style="stop-color:#6B1E2B"/>
		<stop  offset="1" style="stop-color:#4A002D"/>
	</linearGradient>
	<path style="fill:url(#SVGID_10_);" d="M252.724,23.18c0,2.88-0.79,5.6-2.28,7.99h-25.78c-1.49-2.39-2.29-5.11-2.29-7.99
		c0-8.37,6.81-15.18,15.19-15.18C245.924,8,252.724,14.81,252.724,23.18z"/>
	<path d="M332.054,200.11c26.83,26.83,26.83,70.49,0,97.32l-72.28,72.29v68.7c0,0.68-0.18,1.35-0.51,1.94l-18.22,32.66
		c-0.72,1.29-2.07,2.05-3.5,2.05c-0.33,0-0.67-0.04-1-0.13c-1.09-0.28-1.97-0.99-2.49-1.92l-18.22-32.66
		c-0.34-0.59-0.51-1.26-0.51-1.94v-68.73l-72.27-72.26c-13-12.99-20.16-30.28-20.16-48.66s7.16-35.66,20.16-48.66
		c17.69-17.68,43.27-24.24,66.97-17.69c-1.39-4.31-3.04-8.53-4.95-12.63c-0.66-1.4-0.44-3.06,0.55-4.25l10.98-10.3
		c-8.52-4.61-20.26-9.98-36.83-11.05c2.64,9.85-3.08,15.32-5.19,16.94c-6.58,5.07-16.69,4.74-22.53-0.76
		c-6.87-6.43-9.61-15.47-7.15-23.59c2.52-8.31,9.94-14.26,19.86-15.91c13.77-2.3,32.72,0.15,51.07,9.19V64.73
		c-7.75-0.72-13.83-7.25-13.83-15.18v-3.13c0-7.93,6.09-14.46,13.84-15.18c-0.95-2.56-1.47-5.29-1.47-8.06
		c0-12.78,10.4-23.18,23.19-23.18c12.77,0,23.16,10.4,23.16,23.18c0,2.77-0.51,5.5-1.46,8.06c7.75,0.72,13.84,7.25,13.84,15.18v3.13
		c0,7.93-6.08,14.46-13.83,15.18v65.33c18.35-9.04,37.3-11.49,51.08-9.19c9.91,1.65,17.33,7.6,19.85,15.91
		c2.46,8.12-0.28,17.16-7.15,23.6c-5.81,5.45-15.01,6.2-21.4,1.74c-2.19-1.52-8.3-6.9-5.87-17.96c-16.81,1-28.7,6.43-37.3,11.08
		l9.41,8.7l1.58,1.6c0.99,1.19,1.2,2.85,0.55,4.25c-1.92,4.11-3.57,8.34-4.97,12.66c5.95-1.64,12.08-2.49,18.34-2.49
		C301.764,179.96,319.054,187.12,332.054,200.11z M326.394,291.78c23.72-23.72,23.72-62.3,0-86.01
		c-11.49-11.48-26.76-17.81-43-17.81c-7.18,0-14.19,1.25-20.87,3.69c-0.05,0.23-0.11,0.45-0.16,0.68
		c-1.47,6.59-2.31,13.36-2.53,20.16c5.64-1.63,10.8-4.65,15.07-8.92c1.56-1.56,4.09-1.56,5.65,0c1.57,1.57,1.57,4.1,0,5.66
		c-8.15,8.16-19,12.65-30.54,12.65h-23.12c-9.4,0-18.23,3.66-24.88,10.31l-1.81,1.81c-0.78,0.78-1.81,1.17-2.83,1.17
		c-1.03,0-2.05-0.39-2.83-1.17c-1.56-1.56-1.56-4.09,0-5.66l1.81-1.81c5.35-5.35,11.86-9.11,18.96-11.07
		c-0.04-7.8-0.9-15.58-2.58-23.12c-0.06-0.24-0.12-0.48-0.17-0.72c-22.19-8.09-47.05-2.65-63.85,14.15
		c-11.49,11.49-17.82,26.76-17.82,43c0,16.25,6.33,31.52,17.82,43.01l66.61,66.6v-39.52c-4.95,1.72-9.49,4.54-13.31,8.36l-1.81,1.81
		c-0.78,0.78-1.81,1.17-2.83,1.17c-1.03,0-2.05-0.39-2.83-1.17c-1.56-1.56-1.56-4.09,0-5.66l1.81-1.81
		c8.16-8.16,19.01-12.65,30.54-12.65h23.12c9.4,0,18.24-3.66,24.89-10.31c1.56-1.56,4.09-1.56,5.65,0c1.57,1.56,1.57,4.1,0,5.66
		c-5.8,5.81-12.97,9.74-20.78,11.54v42.6L326.394,291.78z M317.584,154.54c4.7-4.41,6.56-10.18,4.97-15.44
		c-1.64-5.42-6.57-9.18-13.52-10.34c-17.6-2.94-46.63,3.33-68.75,24.03c-1.54,1.44-3.93,1.44-5.47,0
		c-22.12-20.7-51.14-26.96-68.74-24.03c-6.95,1.16-11.88,4.92-13.52,10.34c-1.59,5.26,0.27,11.03,4.97,15.44
		c3,2.82,8.69,2.94,12.18,0.26c3.42-2.64,3.62-7.22,0.54-12.9c-0.67-1.24-0.64-2.74,0.08-3.95c0.73-1.21,2.03-1.95,3.44-1.95
		c25.04,0,41.3,9.16,51.01,14.63l0.57,0.31c1.11,0.63,1.86,1.75,2.01,3.02c0.15,1.27-0.32,2.54-1.26,3.41l-8.55,7.9
		c8.65,2.19,15.55,5.56,19.25,7.6c3.86-2.13,11.24-5.72,20.45-7.89l-8.24-7.61c-0.94-0.87-1.41-2.14-1.26-3.41
		c0.15-1.27,0.9-2.39,2.01-3.02l0.56-0.31c9.72-5.47,25.98-14.63,51.02-14.63c1.34,0,2.59,0.67,3.33,1.79
		c0.74,1.12,0.87,2.53,0.35,3.77c-2.73,6.46-2.29,11.56,1.21,14C309.474,157.83,314.574,157.37,317.584,154.54z M265.104,49.55
		v-3.13c0-4-3.25-7.25-7.25-7.25h-40.6c-4,0-7.25,3.25-7.25,7.25v3.13c0,4,3.25,7.25,7.25,7.25h40.6
		C261.854,56.8,265.104,53.55,265.104,49.55z M254.554,190.6c1.36-6.15,3.24-12.21,5.58-18.07c-8.12,1.77-14.81,4.87-18.59,6.87
		v34.48h8.47c0.6,0,1.19-0.01,1.79-0.04C251.944,206,252.864,198.19,254.554,190.6z M251.774,437.37v-120.5
		c-0.59,0.02-1.17,0.04-1.76,0.04h-8.47v138.78L251.774,437.37z M251.274,123.05V64.8h-27.44v58.25l10.67-12.56
		c0.76-0.9,1.88-1.41,3.05-1.41c1.17,0,2.29,0.51,3.05,1.41L251.274,123.05z M250.444,31.17c1.49-2.39,2.28-5.11,2.28-7.99
		c0-8.37-6.8-15.18-15.16-15.18c-8.38,0-15.19,6.81-15.19,15.18c0,2.88,0.8,5.6,2.29,7.99H250.444z M250.744,134.78l-13.19-15.52
		l-13.19,15.53c4.52,2.79,8.94,6.01,13.18,9.7C241.794,140.8,246.224,137.58,250.744,134.78z M233.544,455.69V316.91h-6.65
		c-1.2,0-2.39,0.06-3.57,0.18v120.28L233.544,455.69z M233.544,213.88v-33.65c-3.09-1.74-9.89-5.2-18.42-7.31
		c2.26,5.74,4.08,11.66,5.42,17.69c1.7,7.65,2.62,15.52,2.75,23.43c1.2-0.1,2.4-0.16,3.6-0.16H233.544z"/>
</g>
</svg>