<?xml version="1.0" encoding="UTF-8"?>
<svg version="1.1" xmlns="http://www.w3.org/2000/svg" width="370" height="240">
<path d="M0 0 C0.7076067 -0.00241442 1.4152134 -0.00482883 2.14426273 -0.00731641 C4.52114932 -0.01296324 6.89776833 -0.00428301 9.27464294 0.00431824 C10.97625298 0.00324561 12.67786266 0.00130721 14.37947083 -0.00143433 C19.00534895 -0.00628849 23.63113086 0.00137989 28.25699735 0.01151872 C33.09140495 0.02028889 37.92580945 0.01854198 42.76022339 0.01815796 C50.87849034 0.019095 58.99671996 0.02778484 67.11497498 0.04142761 C76.51091119 0.05715884 85.90680651 0.06242556 95.30275494 0.06169206 C104.33001561 0.06108243 113.35726292 0.06618155 122.38451958 0.07448387 C126.23177634 0.07802116 130.07902838 0.07984775 133.9262867 0.08037758 C138.45292669 0.08137962 142.97953213 0.08746489 147.50616074 0.09754372 C149.17109274 0.10047283 150.83602873 0.10169326 152.50096321 0.10111618 C154.76630428 0.10062799 157.03154752 0.10625643 159.296875 0.11352539 C160.56689645 0.11520123 161.8369179 0.11687708 163.14542484 0.11860371 C166.08494568 0.24723816 166.08494568 0.24723816 168.08494568 1.24723816 C168.10827219 24.17751539 168.12592363 47.10779068 168.13675785 70.03807735 C168.14192134 80.68421766 168.14896503 91.33035062 168.16038513 101.97648621 C168.17033037 111.25210737 168.17679872 120.52772321 168.17903417 129.80334955 C168.18034155 134.71791497 168.18342913 139.63246514 168.19067574 144.54702568 C168.19743342 149.16718164 168.19956316 153.78731599 168.19805336 158.40747643 C168.1983298 160.10830553 168.20033641 161.80913532 168.20415115 163.50996017 C168.20908449 165.82178153 168.20794532 168.13351997 168.2052002 170.44534302 C168.20658288 172.39078711 168.20658288 172.39078711 168.20799351 174.3755331 C168.08494568 177.24723816 168.08494568 177.24723816 167.08494568 178.24723816 C164.82167113 178.3465138 162.55523037 178.37356258 160.28977966 178.3742218 C159.57092559 178.37578179 158.85207151 178.37734178 158.11143398 178.37894905 C155.6846154 178.38296154 153.25785856 178.37976845 150.83103943 178.37663269 C149.09854597 178.37798662 147.3660528 178.37976651 145.63356018 178.38194275 C140.91468735 178.38651806 136.19583628 178.38472712 131.47696304 178.38156366 C126.54998463 178.37904056 121.62300814 178.38137746 116.69602966 178.38294983 C108.42039148 178.38477167 100.1447622 178.38236483 91.86912537 178.37760925 C82.28689707 178.37216661 72.70469005 178.37392925 63.12246227 178.37943566 C54.91102764 178.38396637 46.69959943 178.38461754 38.48816395 178.38199699 C33.57697005 178.38043398 28.66578616 178.38024109 23.7545929 178.38353348 C19.13852309 178.38641159 14.52248084 178.38443762 9.90641403 178.37863922 C8.20719829 178.3773113 6.50798025 178.37770628 4.80876541 178.37990189 C2.49918232 178.38261213 0.18968898 178.37923383 -2.11988831 178.3742218 C-3.41555222 178.37384478 -4.71121613 178.37346775 -6.04614258 178.3730793 C-8.91505432 178.24723816 -8.91505432 178.24723816 -9.91505432 177.24723816 C-10.01871444 174.99898202 -10.05029424 172.74740372 -10.05549622 170.49676514 C-10.05846734 169.78270018 -10.06143846 169.06863522 -10.06449962 168.33293194 C-10.07322319 165.92227564 -10.07469792 163.51166879 -10.07618713 161.10099792 C-10.08081268 159.37997836 -10.08583698 157.65895983 -10.0912323 155.9379425 C-10.10438264 151.25000081 -10.11080623 146.56207345 -10.11524296 141.87411618 C-10.11816909 138.94887106 -10.12227298 136.0236299 -10.12674713 133.09838676 C-10.14042822 123.95633447 -10.15009221 114.81429118 -10.15394902 105.67222935 C-10.15843321 95.09957828 -10.17599525 84.52705628 -10.20494962 73.95444447 C-10.22652441 65.79479757 -10.23665103 57.6351871 -10.23799014 49.47551197 C-10.23904108 44.59609745 -10.24500998 39.71680414 -10.26280975 34.83741951 C-10.27921829 30.25001909 -10.28148135 25.66283195 -10.27267075 21.07541275 C-10.27189651 19.3878987 -10.27629354 17.70037352 -10.286129 16.01288795 C-10.2987324 13.71656506 -10.29303614 11.42101093 -10.282547 9.12469482 C-10.28401356 7.83732705 -10.28548012 6.54995928 -10.28699112 5.22358036 C-10.16425198 4.24138743 -10.04151283 3.25919451 -9.91505432 2.24723816 C-6.22095262 -0.21549631 -4.40970059 -0.00189095 0 0 Z M27.08494568 22.24723816 C26.21225037 22.98200378 25.33955505 23.71676941 24.44041443 24.47380066 C11.99226907 35.33560066 3.47057904 47.19872205 -1.85255432 62.87223816 C-2.1471051 63.73035095 -2.44165588 64.58846375 -2.74513245 65.47257996 C-9.41615952 86.27200255 -5.90713666 108.6700493 3.14744568 128.12223816 C13.95349525 149.04015852 32.2385713 164.2358259 54.64744568 171.49723816 C74.6572635 177.71685032 99.37769959 175.36406062 118.08494568 166.24723816 C122.28022301 163.82034988 126.19177368 161.13048785 130.08494568 158.24723816 C131.02338318 157.56790222 131.96182068 156.88856628 132.92869568 156.18864441 C140.40562701 150.46543152 145.74109717 143.90015702 151.08494568 136.24723816 C151.66115662 135.44801941 152.23736755 134.64880066 152.83103943 133.82536316 C157.95424741 126.10728361 160.50569869 117.07487971 163.08494568 108.24723816 C163.26903992 107.63179138 163.45313416 107.0163446 163.64280701 106.38224792 C166.8434609 90.92685407 165.20068926 72.75073184 159.08494568 58.24723816 C158.58865662 57.04583191 158.09236755 55.84442566 157.58103943 54.60661316 C147.68057756 32.94487972 129.86755455 17.48288616 107.96385193 8.50114441 C81.24377139 -0.84913279 48.76796061 3.93411095 27.08494568 22.24723816 Z " fill="#060300" transform="translate(104.91505432128906,3.7527618408203125)"/>
<path d="M0 0 C63.03 0 126.06 0 191 0 C191 79.2 191 158.4 191 240 C127.97 240 64.94 240 0 240 C0 160.8 0 81.6 0 0 Z M3 2 C3 79.88 3 157.76 3 238 C64.05 238 125.1 238 188 238 C188 160.12 188 82.24 188 2 C126.95 2 65.9 2 3 2 Z " fill="#070300" transform="translate(89,0)"/>
<path d="M0 0 C0.97324219 0.53496094 1.94648438 1.06992187 2.94921875 1.62109375 C3.62597656 2.07613281 4.30273438 2.53117187 5 3 C5 3.66 5 4.32 5 5 C6.10214844 5.37125 6.10214844 5.37125 7.2265625 5.75 C20.76803632 11.85319947 28.4061124 29.49473251 34.03515625 42.3671875 C41.50441301 62.26018288 38.38993841 85.21405832 29.90917969 104.13525391 C27.48161523 109.11423815 24.3086186 113.57732321 21 118 C20.51917969 118.65355469 20.03835937 119.30710938 19.54296875 119.98046875 C7.53743429 135.0998306 -12.08647132 145.31373071 -31 148 C-32.01320313 148.14695313 -33.02640625 148.29390625 -34.0703125 148.4453125 C-48.80725899 150.05235771 -63.61526467 147.29764357 -77 141 C-77.94101563 140.55785156 -78.88203125 140.11570313 -79.8515625 139.66015625 C-99.51503445 129.66225009 -112.78657314 112.45577803 -119.8125 91.84375 C-126.34901059 71.38689279 -123.49152816 49.02581094 -114 30 C-111.58382053 26.1007185 -108.91837235 22.53517121 -106 19 C-105.43410156 18.29488281 -104.86820313 17.58976562 -104.28515625 16.86328125 C-102.5900723 14.83316895 -100.8295878 12.90963227 -99 11 C-98.319375 10.28199219 -97.63875 9.56398438 -96.9375 8.82421875 C-70.36339571 -17.16633258 -30.88214452 -17.50827052 0 0 Z M-100 17 C-113.65222443 33.13709429 -120.77742253 53.6546726 -119.23632812 74.83984375 C-118.17653754 84.52685518 -115.70375611 94.43421256 -111 103 C-110.58105469 103.78246094 -110.16210938 104.56492187 -109.73046875 105.37109375 C-98.64803142 124.94090732 -81.60706975 137.0691482 -60.1015625 143.25390625 C-55.72651254 144.3063427 -51.49027592 144.8258409 -47 145 C-46.28714844 145.03996094 -45.57429688 145.07992187 -44.83984375 145.12109375 C-23.76854027 145.77120656 -4.38472628 137.39135493 10.79101562 123.18212891 C25.38311807 109.08378025 33.79596732 89.6747621 34.3125 69.3125 C34.07632027 50.46106372 27.83803524 32.01209016 15 18 C14.17628906 17.09636719 13.35257813 16.19273438 12.50390625 15.26171875 C-0.91584067 1.19477836 -18.51532391 -7.54940173 -38.11328125 -8.16796875 C-62.2694396 -8.43520176 -83.11542426 -0.85915443 -100 17 Z " fill="#0D0600" transform="translate(227,25)"/>
<path d="M0 0 C4.8584593 2.60312245 7.73417184 6.093334 10.11328125 10.96484375 C11.35327946 16.9393806 10.86676272 22.22152234 8.05078125 27.65234375 C4.27573993 32.05655862 1.02403455 34.99362304 -4.90625 35.515625 C-11.19586116 35.66594275 -15.36481089 35.75801445 -20.19921875 31.27734375 C-24.65505117 26.72411608 -26.03759622 23.7420874 -26.44921875 17.46484375 C-26.35462027 11.80995668 -24.46047487 7.73263927 -20.76171875 3.46484375 C-14.84545724 -1.58562339 -7.45012913 -2.44808861 0 0 Z M-19.57421875 12.21484375 C-20.91877767 16.65188818 -20.59207798 19.96940954 -18.44921875 24.02734375 C-16.02256128 27.75293997 -16.02256128 27.75293997 -12.19921875 29.27734375 C-7.35843709 29.74580649 -5.16532207 29.77828621 -0.82421875 27.52734375 C3.16913165 24.10447198 3.69454051 22.61597712 4.11328125 17.33984375 C4.00085558 13.55953053 3.26497472 11.25137035 0.80078125 8.27734375 C-2.63143222 5.43350973 -5.72813984 4.68628217 -10.203125 4.85546875 C-14.48525576 5.76049834 -17.09014664 8.71456033 -19.57421875 12.21484375 Z " fill="#080400" transform="translate(155.19921875,194.72265625)"/>
<path d="M0 0 C3.07710038 1.34974421 4.95588248 2.78437805 7.12890625 5.3359375 C7.68900391 5.98820313 8.24910156 6.64046875 8.82617188 7.3125 C9.6856543 8.3334375 9.6856543 8.3334375 10.5625 9.375 C11.4277832 10.38433594 11.4277832 10.38433594 12.31054688 11.4140625 C14.98588499 14.54917614 17.5237165 17.69828867 20 21 C20.33 14.4 20.66 7.8 21 1 C22.65 0.67 24.3 0.34 26 0 C27 1 27 1 27.11352539 4.23461914 C27.11336631 5.66814126 27.10767407 7.10166912 27.09765625 8.53515625 C27.0962413 9.28840683 27.09482635 10.04165741 27.09336853 10.81773376 C27.08775376 13.2326956 27.07519883 15.64756601 27.0625 18.0625 C27.0574869 19.69596221 27.05292366 21.32942586 27.04882812 22.96289062 C27.03777954 26.97529585 27.02050506 30.98763241 27 35 C26.01 35.495 26.01 35.495 25 36 C21.14612003 32.19607773 17.4249251 28.28916527 13.75 24.3125 C13.20859375 23.73177734 12.6671875 23.15105469 12.109375 22.55273438 C8.11915391 18.23830782 8.11915391 18.23830782 7 16 C6.95101562 17.27617187 6.90203125 18.55234375 6.8515625 19.8671875 C6.77653809 21.53648072 6.70099012 23.20575046 6.625 24.875 C6.5940625 25.71675781 6.563125 26.55851562 6.53125 27.42578125 C6.49257812 28.23144531 6.45390625 29.03710938 6.4140625 29.8671875 C6.36693115 30.98262939 6.36693115 30.98262939 6.31884766 32.12060547 C6 34 6 34 4 36 C1.375 35.625 1.375 35.625 -1 35 C-1.0246519 30.17619198 -1.04283693 25.35242033 -1.05493164 20.52856445 C-1.05997174 18.88630536 -1.06680378 17.24405077 -1.07543945 15.60180664 C-1.08751926 13.24624521 -1.09323139 10.89074291 -1.09765625 8.53515625 C-1.10281754 7.79660904 -1.10797882 7.05806183 -1.11329651 6.2971344 C-1.1134925 4.53101912 -1.06194719 2.76502854 -1 1 C-0.67 0.67 -0.34 0.34 0 0 Z " fill="#080400" transform="translate(244,194)"/>
<path d="M0 0 C4.09964471 2.08709185 6.28541564 3.76396805 8 8 C8.73651586 12.71027588 8.42246633 16.17015542 6.25 20.4375 C3.6641825 23.38245882 1.73125545 24.66718934 -2.11328125 25.40625 C-6.48780285 25.59273049 -9.42888486 25.22058777 -13 22.5625 C-16.23306013 19.39695156 -16.99834705 16.56523937 -17.1328125 12.10546875 C-16.84397045 7.52647274 -15.51967958 5.57038003 -12.4375 2.1875 C-8.56964264 -0.80086901 -4.69436922 -0.91536001 0 0 Z " fill="#060300" transform="translate(205,97)"/>
<path d="M0 0 C3.37593285 2.17560117 5.81143182 4.1101405 7 8 C7.46225901 12.77667642 7.49973779 15.01903323 5.3125 19.3125 C2.87844881 22.14126219 1.49050691 23.68136405 -2 25 C-6.88084135 25.29338391 -10.05848747 24.74119071 -13.9375 21.6875 C-17.99281587 16.40330054 -17.99281587 16.40330054 -18.01171875 12.7109375 C-17.90472656 11.94007812 -17.79773438 11.16921875 -17.6875 10.375 C-17.58824219 9.59898438 -17.48898438 8.82296875 -17.38671875 8.0234375 C-17 6 -17 6 -16 4 C-15.34 4 -14.68 4 -14 4 C-13.67 3.01 -13.34 2.02 -13 1 C-8.38158188 -1.19924672 -4.92467432 -1.25355346 0 0 Z " fill="#070400" transform="translate(206,65)"/>
<path d="M0 0 C3.75212276 2.01502889 5.63644095 3.45466142 8 7 C8.65237324 11.37433428 9.03401151 16.01269906 6.94921875 20.01953125 C4.56029553 22.9158364 2.565062 24.8310287 -1.20703125 25.23828125 C-8.2087195 25.43772964 -8.2087195 25.43772964 -11.9375 23.375 C-15.34613362 19.44990674 -17.33800838 16.21639558 -17 10.9375 C-16.27485165 6.72358239 -14.32313437 4.69015639 -11 2 C-7.29519659 -0.46986894 -4.29780299 -0.67432448 0 0 Z " fill="#060300" transform="translate(172,97)"/>
<path d="M0 0 C2.89831642 2.32276422 3.98193585 4.21829091 4.765625 7.8671875 C5.03515809 12.1215823 5.22125752 15.54506962 2.640625 19.0859375 C-0.50690766 21.8111597 -3.39437743 23.87960249 -7.59765625 24.26171875 C-11.54346276 23.95819517 -13.58773601 23.27948935 -16.84765625 21.01171875 C-19.66171688 17.25963791 -20.82922065 14.08098366 -20.91015625 9.38671875 C-19.34708458 4.42166756 -17.05060684 1.38112047 -12.53515625 -1.42578125 C-7.9663055 -2.38205234 -4.10411923 -2.19522656 0 0 Z " fill="#060300" transform="translate(175.84765625,65.98828125)"/>
<path d="M0 0 C22.5218474 -0.04666576 45.04368685 -0.08196218 67.56557274 -0.10362434 C78.0222472 -0.1139486 88.47889166 -0.12803083 98.93554688 -0.15087891 C108.0467387 -0.17077766 117.15790881 -0.18370806 126.26912177 -0.18817699 C131.09599025 -0.19079035 135.92279661 -0.19695659 140.74964523 -0.21146011 C145.28856505 -0.22498857 149.82739686 -0.22923229 154.36633492 -0.22621536 C156.03610906 -0.22676766 157.70588601 -0.23077322 159.37564278 -0.23841095 C161.64778559 -0.24829827 163.91959204 -0.2459919 166.19174194 -0.24050903 C168.1026188 -0.24327441 168.1026188 -0.24327441 170.05209923 -0.24609566 C173 0 173 0 175 2 C135.895 2.495 135.895 2.495 96 3 C96 3.66 96 4.32 96 5 C89.73 5 83.46 5 77 5 C77.33 4.34 77.66 3.68 78 3 C52.26 2.67 26.52 2.34 0 2 C0 1.34 0 0.68 0 0 Z " fill="#140A03" transform="translate(98,4)"/>
<path d="M0 0 C2.23046875 -0.34375 2.23046875 -0.34375 5 0 C7.23828125 2.40625 7.23828125 2.40625 9.3125 5.5 C10.00988281 6.5209375 10.70726562 7.541875 11.42578125 8.59375 C11.94527344 9.3878125 12.46476563 10.181875 13 11 C13.67095703 9.80890625 13.67095703 9.80890625 14.35546875 8.59375 C14.96003906 7.5728125 15.56460938 6.551875 16.1875 5.5 C17.07501953 3.96859375 17.07501953 3.96859375 17.98046875 2.40625 C20 0 20 0 22.73828125 -0.34375 C23.48464844 -0.2303125 24.23101562 -0.116875 25 0 C25.33 0.99 25.66 1.98 26 3 C25.01303705 4.60013994 24.01252721 6.19389878 22.93725586 7.73608398 C16.71404186 16.69403872 15.67127813 24.25736917 16 35 C14.34385343 35.38218767 12.67542976 35.71395102 11 36 C10.67 35.67 10.34 35.34 10 35 C10.0191743 33.34461892 10.03926813 31.68924345 10.06396484 30.03393555 C10.05704616 20.13214618 6.71619773 14.16874746 1.0546875 6.23046875 C0.37664062 5.16441406 -0.30140625 4.09835938 -1 3 C-0.67 2.01 -0.34 1.02 0 0 Z " fill="#080500" transform="translate(206,194)"/>
<path d="M0 0 C1.65 0 3.3 0 5 0 C7.21473075 4.4294615 6.22991139 10.4485461 6.25 15.3125 C6.270625 16.54935547 6.29125 17.78621094 6.3125 19.06054688 C6.31765625 20.25357422 6.3228125 21.44660156 6.328125 22.67578125 C6.34214355 24.3141394 6.34214355 24.3141394 6.35644531 25.9855957 C5.84016772 30.35167753 4.0651132 32.9348868 1 36 C-1.0234375 36.265625 -1.0234375 36.265625 -3.375 36.25 C-4.14585938 36.25515625 -4.91671875 36.2603125 -5.7109375 36.265625 C-8.23750206 35.97244003 -9.85375957 35.35151282 -12 34 C-12.8125 32 -12.8125 32 -13 30 C-12.67 29.34 -12.34 28.68 -12 28 C-8.7 28.33 -5.4 28.66 -2 29 C-1.97494385 28.19256348 -1.9498877 27.38512695 -1.92407227 26.55322266 C-1.80834513 22.91031083 -1.68551365 19.26767274 -1.5625 15.625 C-1.52318359 14.35398438 -1.48386719 13.08296875 -1.44335938 11.7734375 C-1.38051758 9.95585937 -1.38051758 9.95585937 -1.31640625 8.1015625 C-1.27974854 6.98088379 -1.24309082 5.86020508 -1.20532227 4.70556641 C-1 2 -1 2 0 0 Z " fill="#090500" transform="translate(111,194)"/>
<path d="M0 0 C1.65 0.33 3.3 0.66 5 1 C5 10.24 5 19.48 5 29 C8.63 29 12.26 29 16 29 C16.66 29.66 17.32 30.32 18 31 C17.46428571 34.53571429 17.46428571 34.53571429 16 36 C13.3226862 36.09981214 10.67695825 36.13879875 8 36.125 C6.87464844 36.13080078 6.87464844 36.13080078 5.7265625 36.13671875 C0.12661053 36.12661053 0.12661053 36.12661053 -1 35 C-1.10087212 32.49075847 -1.13972032 30.00963616 -1.1328125 27.5 C-1.13376923 26.74912109 -1.13472595 25.99824219 -1.13571167 25.22460938 C-1.13639338 23.63411373 -1.13453972 22.04361533 -1.13037109 20.453125 C-1.12502267 18.01035345 -1.13031634 15.56776579 -1.13671875 13.125 C-1.13605797 11.58333293 -1.1347768 10.04166597 -1.1328125 8.5 C-1.13483673 7.76458984 -1.13686096 7.02917969 -1.13894653 6.27148438 C-1.11495161 1.11495161 -1.11495161 1.11495161 0 0 Z " fill="#080400" transform="translate(179,194)"/>
<path d="M0 0 C2.35981813 0.93578995 4.69631264 1.93347808 7 3 C7 4.32 7 5.64 7 7 C6.01 7.495 6.01 7.495 5 8 C5 9.32 5 10.64 5 12 C2.83125748 11.49396008 1.00032373 11.00016187 -1 10 C-1 10.66 -1 11.32 -1 12 C0.32 12.33 1.64 12.66 3 13 C3 13.66 3 14.32 3 15 C4.24716797 14.44119141 4.24716797 14.44119141 5.51953125 13.87109375 C6.60621094 13.39800781 7.69289062 12.92492188 8.8125 12.4375 C9.89144531 11.96183594 10.97039062 11.48617187 12.08203125 10.99609375 C15 10 15 10 18 11 C16.07289294 21.55808656 16.07289294 21.55808656 14 26 C12.68 25.67 11.36 25.34 10 25 C10 23.35 10 21.7 10 20 C7.50907189 18.75453595 6.58919267 19.2232422 4 20 C3.34 19.01 2.68 18.02 2 17 C0.33678518 16.64984951 -1.33034549 16.31802943 -3 16 C-5.3125 14.4375 -5.3125 14.4375 -7 13 C-6.34206835 11.32986582 -5.67276716 9.6642135 -5 8 C-4.75894531 7.38769531 -4.51789063 6.77539062 -4.26953125 6.14453125 C-2.22574386 1.11287193 -2.22574386 1.11287193 0 0 Z " fill="#090500" transform="translate(207,36)"/>
<path d="M0 0 C0.99 0 1.98 0 3 0 C3.86580287 1.93232821 4.71729941 3.87107194 5.5625 5.8125 C6.03816406 6.89144531 6.51382813 7.97039063 7.00390625 9.08203125 C8 12 8 12 7 15 C6.01 15 5.02 15 4 15 C3.67 14.34 3.34 13.68 3 13 C2.01 14.485 2.01 14.485 1 16 C-0.32 15.67 -1.64 15.34 -3 15 C-3.99 16.485 -3.99 16.485 -5 18 C-5.99 18 -6.98 18 -8 18 C-9.41634833 15.16730334 -9.3463005 12.52533562 -9.5625 9.375 C-9.64628906 8.18648437 -9.73007813 6.99796875 -9.81640625 5.7734375 C-9.87699219 4.85820313 -9.93757812 3.94296875 -10 3 C-6 3 -6 3 -3.25 5.5 C-2.13625 6.7375 -2.13625 6.7375 -1 8 C-1.020625 7.05125 -1.04125 6.1025 -1.0625 5.125 C-1 2 -1 2 0 0 Z " fill="#0A0500" transform="translate(173,32)"/>
<path d="M0 0 C2 0.25 2 0.25 4 1 C4.33 1.99 4.66 2.98 5 4 C5.66 3.01 6.32 2.02 7 1 C7.99 1.33 8.98 1.66 10 2 C10.33 2.99 10.66 3.98 11 5 C11.66 4.01 12.32 3.02 13 2 C14.32 2 15.64 2 17 2 C16.48686537 7.13134625 14.94265013 11.74837792 12 16 C11.01 16.33 10.02 16.66 9 17 C8.67 15.02 8.34 13.04 8 11 C7.34 11 6.68 11 6 11 C5.67 12.32 5.34 13.64 5 15 C3.68 15 2.36 15 1 15 C0.63911385 12.68853911 0.28645809 10.37579171 -0.0625 8.0625 C-0.25972656 6.77472656 -0.45695313 5.48695312 -0.66015625 4.16015625 C-0.82837891 2.59587891 -0.82837891 2.59587891 -1 1 C-0.67 0.67 -0.34 0.34 0 0 Z " fill="#0A0500" transform="translate(184,31)"/>
<path d="M0 0 C1.32 0 2.64 0 4 0 C4.86883706 1.57533086 5.71959068 3.16064509 6.5625 4.75 C7.03816406 5.63171875 7.51382813 6.5134375 8.00390625 7.421875 C9.07998186 10.20701188 9.06528748 11.26980214 8 14 C5.525 13.505 5.525 13.505 3 13 C3.33 14.98 3.66 16.96 4 19 C0.2397015 18.41892368 -2.53035032 17.34800504 -5.8125 15.4375 C-6.60269531 14.98246094 -7.39289063 14.52742188 -8.20703125 14.05859375 C-8.79871094 13.70925781 -9.39039063 13.35992187 -10 13 C-9.67 11.68 -9.34 10.36 -9 9 C-7.35 9.33 -5.7 9.66 -4 10 C-4.33 8.35 -4.66 6.7 -5 5 C-3.35 5 -1.7 5 0 5 C0 3.35 0 1.7 0 0 Z " fill="#090500" transform="translate(147,43)"/>
<path d="M0 0 C3.54648681 0.08566393 4.3508454 0.21015228 7.1875 2.5625 C8.8681765 5.92385301 9.25569292 7.73217907 8.625 11.4375 C6.71079729 14.06066667 5.26247948 15.18586336 2.25 16.375 C-1.43801527 16.46280989 -3.35017266 15.52126995 -6.375 13.4375 C-7.75 10.25 -7.75 10.25 -8.375 7.4375 C-7.385 7.1075 -6.395 6.7775 -5.375 6.4375 C-5.684375 5.509375 -5.684375 5.509375 -6 4.5625 C-6.185625 3.510625 -6.185625 3.510625 -6.375 2.4375 C-3.99374088 0.05624088 -3.26792462 0.09228359 0 0 Z M1.625 5.4375 C1.625 6.4275 1.625 7.4175 1.625 8.4375 C-0.025 8.1075 -1.675 7.7775 -3.375 7.4375 C-2.715 8.7575 -2.055 10.0775 -1.375 11.4375 C0.275 11.1075 1.925 10.7775 3.625 10.4375 C3.625 8.7875 3.625 7.1375 3.625 5.4375 C2.965 5.4375 2.305 5.4375 1.625 5.4375 Z " fill="#090501" transform="translate(153.375,127.5625)"/>
<path d="M0 0 C3.01253053 1.26843391 4.47078169 2.31998905 6.375 5 C6.93916593 8.9491615 7.02743688 11.0464384 4.75 14.375 C1.79046447 16.39994536 -0.0301801 17 -3.625 17 C-6.5 15.625 -6.5 15.625 -8.625 13 C-9.396469 9.83291675 -9.44681796 7.15994794 -8.625 4 C-5.74143108 1.18349083 -4.06536099 0 0 0 Z M-3.625 5 C-4.62717064 8.58327753 -4.62717064 8.58327753 -3.625 12 C-1.975 11.67 -0.325 11.34 1.375 11 C1.705 10.01 2.035 9.02 2.375 8 C1.715 7.01 1.055 6.02 0.375 5 C-0.945 5 -2.265 5 -3.625 5 Z " fill="#090400" transform="translate(218.625,125)"/>
<path d="M0 0 C1.32 0 2.64 0 4 0 C5.75 2.5 5.75 2.5 7 5 C7.33 4.01 7.66 3.02 8 2 C9.65 2.33 11.3 2.66 13 3 C12.01 7.29 11.02 11.58 10 16 C8.68 16 7.36 16 6 16 C4.25 13.5 4.25 13.5 3 11 C1.68 12.32 0.36 13.64 -1 15 C-1.66 14.67 -2.32 14.34 -3 14 C-2.68872484 12.41642541 -2.37592711 10.83315007 -2.0625 9.25 C-1.80146484 7.92742187 -1.80146484 7.92742187 -1.53515625 6.578125 C-1.07631512 4.36764947 -0.56663926 2.18487932 0 0 Z " fill="#0B0500" transform="translate(165,135)"/>
<path d="M0 0 C2.4375 1.5 2.4375 1.5 4 4 C4.61014545 6.8089715 4.65360928 9.19636021 4 12 C1.9375 14.5625 1.9375 14.5625 -1 16 C-4.46758942 15.94021398 -6.88826749 15.60965977 -9.9375 13.9375 C-11.69366901 10.73507415 -11.62026592 7.50309274 -11 4 C-8.16250305 -0.53999512 -5.10870514 -0.72981502 0 0 Z M-4 4 C-4.99 4.66 -5.98 5.32 -7 6 C-6.67 7.65 -6.34 9.3 -6 11 C-5.01 11.33 -4.02 11.66 -3 12 C-2.01 11.34 -1.02 10.68 0 10 C-0.33 8.35 -0.66 6.7 -1 5 C-1.99 4.67 -2.98 4.34 -4 4 Z " fill="#090400" transform="translate(135,91)"/>
<path d="M0 0 C2.45234885 0.98093954 3.7809268 1.68703828 5.3125 3.875 C6.1301827 6.40238291 5.97884168 7.55289581 5 10 C4.34 10.66 3.68 11.32 3 12 C1.68 12 0.36 12 -1 12 C-1.66 13.32 -2.32 14.64 -3 16 C-4.32 15.67 -5.64 15.34 -7 15 C-7 13.68 -7 12.36 -7 11 C-8.32 10.34 -9.64 9.68 -11 9 C-9.77122115 5.31366345 -8.85395804 5.10504797 -5.5 3.375 C-2.55480881 1.95980348 -2.55480881 1.95980348 0 0 Z " fill="#0A0500" transform="translate(231,56)"/>
<path d="M0 0 C0.99 0.33 1.98 0.66 3 1 C3.33820166 2.5823006 3.67035939 4.16589375 4 5.75 C4.185625 6.63171875 4.37125 7.5134375 4.5625 8.421875 C5 11 5 11 5 15 C3.68 15 2.36 15 1 15 C0.67 13.68 0.34 12.36 0 11 C-0.99 11 -1.98 11 -3 11 C-2.7215625 11.928125 -2.7215625 11.928125 -2.4375 12.875 C-2 15 -2 15 -3 17 C-4.32 16.67 -5.64 16.34 -7 16 C-7.66 11.71 -8.32 7.42 -9 3 C-8.01 2.34 -7.02 1.68 -6 1 C-5.34 1.33 -4.68 1.66 -4 2 C-3.66666667 3.33333333 -3.33333333 4.66666667 -3 6 C-2.34 6.33 -1.68 6.66 -1 7 C-1.020625 6.030625 -1.04125 5.06125 -1.0625 4.0625 C-1 1 -1 1 0 0 Z " fill="#0A0500" transform="translate(194,136)"/>
<path d="M0 0 C2.3125 0.1875 2.3125 0.1875 5 1 C7.0327024 3.5233547 7.89293977 5.37293295 8.4375 8.5625 C7.83006561 11.9467773 6.78325932 13.00176254 4 15 C0.5625 16.0625 0.5625 16.0625 -3 16 C-5.9375 14 -5.9375 14 -8 11 C-8.3125 7.1875 -8.3125 7.1875 -8 4 C-6.68 4 -5.36 4 -4 4 C-3.34 5.98 -2.68 7.96 -2 10 C-0.68 10 0.64 10 2 10 C2.25030977 7.58380177 2.25030977 7.58380177 2 5 C1.01 4.34 0.02 3.68 -1 3 C-0.67 2.01 -0.34 1.02 0 0 Z " fill="#090500" transform="translate(137,108)"/>
<path d="M0 0 C2.5 1.5625 2.5 1.5625 4 4 C4.57804541 8.04631787 4.66053174 10.07997365 2.25 13.4375 C0 15 0 15 -4 15 C-4 11 -4 11 -2.5 9.25 C-2.005 8.8375 -1.51 8.425 -1 8 C-1.33 7.01 -1.66 6.02 -2 5 C-3.32 5 -4.64 5 -6 5 C-6.33 7.31 -6.66 9.62 -7 12 C-7.99 12.33 -8.98 12.66 -10 13 C-12 11 -12 11 -12.08203125 8.90625 C-11.99308594 8.1121875 -11.90414062 7.318125 -11.8125 6.5 C-11.73644531 5.7059375 -11.66039062 4.911875 -11.58203125 4.09375 C-10.12026038 -1.16470091 -4.48355526 -0.7126778 0 0 Z " fill="#0A0500" transform="translate(238,103)"/>
<path d="M0 0 C2.34260643 0.2602896 4.67724823 0.59952556 7 1 C8.32 1 9.64 1 11 1 C11.66 1.66 12.32 2.32 13 3 C12.44444444 7.55555556 12.44444444 7.55555556 11 9 C9.33382885 9.04063832 7.66611905 9.042721 6 9 C5.938125 9.61875 5.87625 10.2375 5.8125 10.875 C5 13 5 13 2.4375 14.25 C1.633125 14.4975 0.82875 14.745 0 15 C-0.144375 14.21625 -0.28875 13.4325 -0.4375 12.625 C-0.87798925 10.03578982 -0.87798925 10.03578982 -2 8 C-2.1875 5 -2.1875 5 -2 2 C-1.34 1.34 -0.68 0.68 0 0 Z " fill="#090500" transform="translate(231,79)"/>
<path d="M0 0 C1.32 0 2.64 0 4 0 C4.33 0.99 4.66 1.98 5 3 C5.78375 2.95875 6.5675 2.9175 7.375 2.875 C10 3 10 3 12 5 C12.25 8 12.25 8 12 11 C10 13 10 13 7.375 13.125 C6.59125 13.08375 5.8075 13.0425 5 13 C5 11.68 5 10.36 5 9 C4.13375 9.3403125 4.13375 9.3403125 3.25 9.6875 C1 10 1 10 -1.25 8.5625 C-1.8275 8.046875 -2.405 7.53125 -3 7 C-2.25 2.25 -2.25 2.25 0 0 Z " fill="#0A0500" transform="translate(133,60)"/>
<path d="M0 0 C4.22489602 0.53280216 6.54080716 1.87678199 9.8125 4.5625 C10.60269531 5.20316406 11.39289063 5.84382813 12.20703125 6.50390625 C12.79871094 6.99761719 13.39039063 7.49132812 14 8 C13.67 8.66 13.34 9.32 13 10 C7.25 9.25 7.25 9.25 5 7 C1.40320934 7.32326553 1.40320934 7.32326553 -2 8 C-2.33 7.01 -2.66 6.02 -3 5 C-1.5625 2.3125 -1.5625 2.3125 0 0 Z " fill="#090400" transform="translate(222,116)"/>
<path d="M0 0 C1.875 0 1.875 0 4 1 C5.03485877 3.31808364 6.0355414 5.65175298 7 8 C7.99 8.33 8.98 8.66 10 9 C10 10.32 10 11.64 10 13 C7.42786866 14.61949011 6.32330841 15.04408751 3.25 14.625 C2.13625 14.315625 2.13625 14.315625 1 14 C1.29197266 13.15695313 1.29197266 13.15695313 1.58984375 12.296875 C2.09395636 9.47384438 1.54545539 7.92363865 0.5625 5.25 C0.27503906 4.45078125 -0.01242188 3.6515625 -0.30859375 2.828125 C-0.53675781 2.22484375 -0.76492187 1.6215625 -1 1 C-0.67 0.67 -0.34 0.34 0 0 Z " fill="#0A0500" transform="translate(201,134)"/>
<path d="M0 0 C0.99 0.33 1.98 0.66 3 1 C3.02715383 2.74991334 3.04646551 4.49994945 3.0625 6.25 C3.07410156 7.22453125 3.08570313 8.1990625 3.09765625 9.203125 C3.01195577 11.65758678 2.70706066 13.66168914 2 16 C0.68 16 -0.64 16 -2 16 C-2 11.05 -2 6.1 -2 1 C-1.34 0.67 -0.68 0.34 0 0 Z " fill="#0A0601" transform="translate(181,137)"/>
<path d="M0 0 C3.58770251 1.42893505 4.96510596 3.01508697 6.8125 6.375 C7.25207031 7.14585938 7.69164062 7.91671875 8.14453125 8.7109375 C9.11623296 11.31101605 8.95272312 12.43992191 8 15 C6.17578125 14.80078125 6.17578125 14.80078125 4 14 C2.48046875 11.85546875 2.48046875 11.85546875 1.1875 9.1875 C0.74792969 8.31480469 0.30835938 7.44210938 -0.14453125 6.54296875 C-1.06404749 3.80961224 -1.0076835 2.65212405 0 0 Z " fill="#0B0601" transform="translate(155,38)"/>
<path d="M0 0 C0.66 0 1.32 0 2 0 C1.67 0.99 1.34 1.98 1 3 C0.84730819 5.43780377 0.74317303 7.85283901 0.68359375 10.29296875 C0.66281265 10.99899734 0.64203156 11.70502594 0.62062073 12.43244934 C0.55532509 14.68403551 0.49633353 16.93573662 0.4375 19.1875 C0.39429575 20.7155066 0.35068084 22.24350164 0.30664062 23.77148438 C0.19966426 27.51420562 0.09834078 31.2570423 0 35 C-0.33 35 -0.66 35 -1 35 C-1.0246519 30.17619198 -1.04283693 25.35242033 -1.05493164 20.52856445 C-1.05997174 18.88630536 -1.06680378 17.24405077 -1.07543945 15.60180664 C-1.08751926 13.24624521 -1.09323139 10.89074291 -1.09765625 8.53515625 C-1.10281754 7.79660904 -1.10797882 7.05806183 -1.11329651 6.2971344 C-1.1134925 4.53101912 -1.06194719 2.76502854 -1 1 C-0.67 0.67 -0.34 0.34 0 0 Z " fill="#150901" transform="translate(244,194)"/>
<path d="M0 0 C0.99 0.33 1.98 0.66 3 1 C2.67 2.65 2.34 4.3 2 6 C0.68 5.34 -0.64 4.68 -2 4 C-2 3.01 -2 2.02 -2 1 C-1.34 0.67 -0.68 0.34 0 0 Z " fill="#0D0601" transform="translate(136,83)"/>
</svg>
