<?xml version="1.0" encoding="UTF-8"?>
<svg version="1.1" xmlns="http://www.w3.org/2000/svg" width="1536" height="864">
<path d="M0 0 C197.01 0 394.02 0 597 0 C597 195.03 597 390.06 597 591 C399.99 591 202.98 591 0 591 C0 395.97 0 200.94 0 0 Z " fill="#650190" transform="translate(470,5)"/>
<path d="M0 0 C14.19 0 28.38 0 43 0 C52.07317073 11.34146341 52.07317073 11.34146341 55.9375 16.375 C56.56398438 17.19097656 56.56398438 17.19097656 57.203125 18.0234375 C60.74138824 22.64135206 64.22729311 27.29781075 67.7109375 31.95703125 C70.16252592 35.21605408 72.63788453 38.45556732 75.125 41.6875 C75.54185059 42.22995361 75.95870117 42.77240723 76.38818359 43.33129883 C78.30360174 45.81877139 80.23308089 48.29301598 82.1875 50.75 C82.826875 51.554375 83.46625 52.35875 84.125 53.1875 C84.68445313 53.88230469 85.24390625 54.57710937 85.8203125 55.29296875 C87 57 87 57 87 59 C87.66 59 88.32 59 89 59 C90.55859375 60.9140625 90.55859375 60.9140625 92.4375 63.625 C96.15293351 68.87271084 100.0448221 73.93756679 104.05444336 78.96337891 C113 90.22523966 113 90.22523966 113 93 C113.66 93 114.32 93 115 93 C116.5078125 94.6796875 116.5078125 94.6796875 118.125 96.875 C118.66382813 97.59429688 119.20265625 98.31359375 119.7578125 99.0546875 C121 101 121 101 121 103 C121.66 103 122.32 103 123 103 C124.4375 104.828125 124.4375 104.828125 126 107.25 C126.515625 108.03890625 127.03125 108.8278125 127.5625 109.640625 C128.82983586 111.72070886 129.9519458 113.80311715 131 116 C131.66 116 132.32 116 133 116 C133.99 117.485 133.99 117.485 135 119 C135.495 60.095 135.495 60.095 136 0 C150.85 0 165.7 0 181 0 C181 66.33 181 132.66 181 201 C167.8 201 154.6 201 141 201 C135 193 135 193 135 191 C134.34 191 133.68 191 133 191 C129 185.58823529 129 185.58823529 129 183 C128.34 183 127.68 183 127 183 C125.4921875 181.3203125 125.4921875 181.3203125 123.875 179.125 C123.33617187 178.40570312 122.79734375 177.68640625 122.2421875 176.9453125 C121 175 121 175 121 173 C120.34 173 119.68 173 119 173 C117.5625 171.171875 117.5625 171.171875 116 168.75 C115.484375 167.96109375 114.96875 167.1721875 114.4375 166.359375 C113.17016414 164.27929114 112.0480542 162.19688285 111 160 C110.34 160 109.68 160 109 160 C107.24542604 157.78307209 105.60993237 155.56830261 104 153.25 C103.32324219 152.29867187 103.32324219 152.29867187 102.6328125 151.328125 C100.51036571 148.31399938 98.50345251 145.38276815 97 142 C96.34 142 95.68 142 95 142 C93.46103055 140.01037614 92.03558794 138.01588527 90.625 135.9375 C86.90900263 130.59167922 83.03787186 125.43190661 78.9375 120.375 C75.1495832 115.68914346 71.39153324 110.98847154 67.75 106.1875 C67.02296875 105.23230469 66.2959375 104.27710938 65.546875 103.29296875 C64 101 64 101 64 99 C63.34 99 62.68 99 62 99 C60.67138672 97.56298828 60.67138672 97.56298828 59.1796875 95.5703125 C58.64472656 94.85746094 58.10976563 94.14460937 57.55859375 93.41015625 C57.00300781 92.65605469 56.44742188 91.90195312 55.875 91.125 C55.31167969 90.37863281 54.74835937 89.63226562 54.16796875 88.86328125 C50 83.26225787 50 83.26225787 50 81 C49.34 81 48.68 81 48 81 C47.67 79.68 47.34 78.36 47 77 C46.34 77 45.68 77 45 77 C45 117.92 45 158.84 45 201 C30.15 201 15.3 201 0 201 C0 134.67 0 68.34 0 0 Z " fill="#64018F" transform="translate(469,653)"/>
<path d="M0 0 C15.18 0 30.36 0 46 0 C46.0093457 3.77912842 46.01869141 7.55825684 46.02832031 11.4519043 C46.06215921 23.96892909 46.11754787 36.48578182 46.18390274 49.00267315 C46.22359332 56.58812977 46.25603619 64.17348415 46.27099609 71.7590332 C46.28406471 78.37602796 46.31116082 84.9927968 46.35461307 91.60966426 C46.37711187 95.10838475 46.39291773 98.60682782 46.39188385 102.10562706 C46.39098969 106.02597024 46.42143524 109.94575333 46.45410156 113.8659668 C46.4490712 115.006772 46.44404083 116.14757721 46.43885803 117.32295227 C46.58041057 128.37696046 49.06750824 138.25513764 55.73046875 147.1953125 C57 149 57 149 58 152 C58.99 152.33 59.98 152.66 61 153 C61 153.66 61 154.32 61 155 C61.680625 155.268125 62.36125 155.53625 63.0625 155.8125 C65.11187145 156.64096931 67.13218849 157.54345047 69.125 158.5 C82.02491087 164.01254326 96.69313394 163.03105958 109.546875 158.00390625 C118.52986765 153.52789784 123.96831648 146.05680338 127.9921875 137.06640625 C130.77743208 128.59192177 131.30179067 120.35347242 131.31884766 111.48193359 C131.32889328 110.27103058 131.3389389 109.06012756 131.34928894 107.81253052 C131.37470929 104.52396313 131.39166809 101.23548856 131.40471697 97.94685316 C131.42045092 94.49818092 131.44720783 91.04959371 131.4727478 87.60098267 C131.51935527 81.08480997 131.55618604 74.56862094 131.58942068 68.05236781 C131.62777027 60.62779871 131.67714636 53.20331539 131.72740483 45.77881885 C131.83045619 30.51926857 131.91834772 15.25968206 132 0 C146.85 0 161.7 0 177 0 C177.04526636 16.59499484 177.08205846 33.18993643 177.10362434 49.78497601 C177.11390695 57.49152027 177.12790912 65.19802326 177.15087891 72.90454102 C177.17090565 79.62689376 177.18373831 86.3492166 177.18817699 93.07159835 C177.19076876 96.62618169 177.19679652 100.18067948 177.21146011 103.73523521 C177.22775326 107.71765197 177.22797379 111.69992301 177.22705078 115.68237305 C177.23424133 116.84187973 177.24143188 118.00138641 177.24884033 119.19602966 C177.22215037 129.90662266 175.84731278 140.35879547 172.75 150.625 C172.53384033 151.34373291 172.31768066 152.06246582 172.0949707 152.80297852 C166.27792113 171.29932972 152.92164951 186.20452282 135.84375 195.2109375 C121.15177468 202.39689846 104.46830912 204.39131981 88.3125 204.3125 C86.47993652 204.30404053 86.47993652 204.30404053 84.61035156 204.29541016 C60.65552704 203.97613894 39.8025526 198.43517246 22.125 181.5625 C4.74029628 163.19075267 -0.38162686 139.30838546 -0.22705078 114.66064453 C-0.22734283 113.41014313 -0.22763489 112.15964172 -0.22793579 110.87124634 C-0.22679367 107.49191813 -0.21686956 104.11284433 -0.20278788 100.73356104 C-0.19015535 97.18353708 -0.18910027 93.63350855 -0.18673706 90.08346558 C-0.18055864 83.38319897 -0.16419793 76.68299881 -0.14403808 69.98276126 C-0.12156475 62.34534827 -0.11065711 54.70793185 -0.10064721 47.07049394 C-0.07982779 31.38028443 -0.04319797 15.69016629 0 0 Z " fill="#64018F" transform="translate(890,653)"/>
<path d="M0 0 C7.36296901 -0.40762243 14.72301592 -0.68658403 22.09472656 -0.87890625 C24.59811041 -0.95909731 27.1007509 -1.06809727 29.6015625 -1.20703125 C49.80535247 -2.30086701 49.80535247 -2.30086701 55.08297729 1.50021362 C58.41577185 5.17681212 60.39192837 9.30402255 62.15132141 13.90557861 C63.53321812 17.31590858 65.43696256 20.40587715 67.3125 23.5625 C67.95574219 24.70460938 68.59898437 25.84671875 69.26171875 27.0234375 C70.93048556 29.88096628 72.72741078 32.50013314 74.71850586 35.1340332 C76.23686471 37.3448956 77.47282538 39.63687724 78.734375 42.00390625 C81.88794571 47.84133618 85.22816482 53.55157089 88.625 59.25 C92.12806835 65.14225782 95.6220086 71.03496152 99 77 C99.66 77 100.32 77 101 77 C102.51024693 74.73462961 103.89458092 72.48099438 105.25 70.125 C105.65476562 69.43607666 106.05953125 68.74715332 106.4765625 68.03735352 C107.65674618 66.02817537 108.82866344 64.01434393 110 62 C113.32408554 56.36035002 116.75201152 50.80606287 120.3125 45.3125 C123.81187093 39.90938324 127.17763788 34.44100029 130.47045898 28.90991211 C134.02726382 22.93655176 137.65104481 17.00522307 141.28271484 11.07714844 C141.94327881 9.99868652 141.94327881 9.99868652 142.6171875 8.8984375 C143.00503418 8.26599121 143.39288086 7.63354492 143.79248047 6.98193359 C145.08063558 4.93852412 145.08063558 4.93852412 146.25584412 2.41160583 C148 0 148 0 150.33488464 -0.60127258 C151.25199722 -0.59016953 152.1691098 -0.57906647 153.11401367 -0.56762695 C154.15486618 -0.5672493 155.19571869 -0.56687164 156.26811218 -0.56648254 C157.39006485 -0.54067612 158.51201752 -0.51486969 159.66796875 -0.48828125 C161.39289299 -0.47766914 161.39289299 -0.47766914 163.15266418 -0.46684265 C166.8315999 -0.43881662 170.509023 -0.37605848 174.1875 -0.3125 C176.67901451 -0.28742795 179.17055283 -0.26461289 181.66210938 -0.24414062 C187.77525714 -0.18896289 193.88752053 -0.10525343 200 0 C197.44762286 11.01019765 188.66185544 21.03986537 182.33154297 30.16943359 C178.9838157 35.01132968 175.818664 39.83133348 173 45 C171.375 47.9375 171.375 47.9375 170 50 C169.34 50 168.68 50 168 50 C167.63648438 51.28390625 167.63648438 51.28390625 167.265625 52.59375 C165.88800069 56.30143025 163.99843086 59.28770069 161.75 62.5 C157.24946905 69.08879088 152.90662976 75.76691853 148.625 82.5 C147.73312988 83.89702148 147.73312988 83.89702148 146.82324219 85.32226562 C143.75458537 90.15065701 140.78662312 95.00329647 138 100 C137.34 100 136.68 100 136 100 C135.76397568 100.69878265 135.52795135 101.39756531 135.28477478 102.11752319 C134.04652541 104.89561719 132.51686771 107.03926867 130.67853451 109.44478416 C123.89035597 118.65108411 123.73544303 126.9698854 123.90234375 138.0859375 C123.89667724 139.88198467 123.88704859 141.67802324 123.87367249 143.47402954 C123.84927009 148.15330109 123.87792711 152.83072732 123.91845703 157.50982666 C123.95593942 163.14936467 123.92607666 168.78891739 123.90778351 174.42849731 C123.88753032 182.95342968 123.95166633 191.47394141 124 200 C108.82 200 93.64 200 78 200 C78.00902344 194.48539063 78.01804687 188.97078125 78.02734375 183.2890625 C78.01749711 179.77984276 78.0055919 176.27086866 77.98632812 172.76171875 C77.95599529 167.20080286 77.93298011 161.64057615 77.95532227 156.07958984 C77.97287168 151.59223778 77.95611871 147.10616585 77.91632271 142.61896896 C77.90708196 140.91352923 77.9098675 139.20797744 77.92530632 137.50258255 C78.01061369 127.05880252 77.18969876 120.09989767 70 112 C68.86830952 110.30977414 67.76117715 108.60265858 66.6875 106.875 C66.11128906 105.96105469 65.53507813 105.04710937 64.94140625 104.10546875 C63.09362019 101.14975463 61.24782037 98.19281235 59.40283203 95.23535156 C50.28051752 80.48386733 50.28051752 80.48386733 40.5625 66.125 C36.10752207 59.85464465 32.09494179 53.29655801 28.07226562 46.74365234 C27.1257567 45.2044978 26.16547512 43.67383112 25.203125 42.14453125 C24 40 24 40 24 38 C23.34 38 22.68 38 22 38 C20.51953125 35.76171875 20.51953125 35.76171875 18.8125 32.6875 C15.81808171 27.38436005 12.63726397 22.2631036 9.28515625 17.1796875 C8 15 8 15 8 13 C7.34 13 6.68 13 6 13 C6 12.01 6 11.02 6 10 C5.34 10 4.68 10 4 10 C0 3.375 0 3.375 0 0 Z " fill="#64018F" transform="translate(672,654)"/>
<path d="M0 0 C4.24581892 3.49492082 5.61451392 7.40248932 7.375 12.4375 C7.82117676 13.6917981 7.82117676 13.6917981 8.27636719 14.97143555 C14.14379161 31.76467765 18.3527369 48.24660227 20 66 C20.12632812 67.09441406 20.25265625 68.18882812 20.3828125 69.31640625 C19.82598177 73.2199033 17.95043205 74.45968198 15 77 C13.97946728 77.95187809 12.96265766 78.90776032 11.94921875 79.8671875 C10.86309937 80.87100507 9.77582505 81.87357421 8.6875 82.875 C8.11354492 83.40528809 7.53958984 83.93557617 6.94824219 84.48193359 C3.93165622 87.25974191 0.88259827 89.97773386 -2.25 92.625 C-23.53095207 111.19018203 -38.17973116 137.86751624 -40.22265625 166.07421875 C-40.65727895 181.13484017 -37.2376015 194.72435216 -31.42578125 208.5 C-30 212 -30 212 -30 214 C-34.84357399 212.41652389 -38.49082971 209.67017729 -42.5 206.625 C-43.2027002 206.09189209 -43.90540039 205.55878418 -44.62939453 205.00952148 C-62.59906724 191.18185224 -79.29379665 174.46241128 -83 151 C-85.57004263 121.11135604 -69.26016596 95.30159203 -51 73 C-48.22233614 69.80033279 -45.33075019 66.71732921 -42.41796875 63.640625 C-39.72043943 60.69469638 -37.37594438 57.6200731 -35.12109375 54.328125 C-34.75113281 53.88984375 -34.38117187 53.4515625 -34 53 C-33.34 53 -32.68 53 -32 53 C-31.7628125 52.45988281 -31.525625 51.91976562 -31.28125 51.36328125 C-29.65305817 48.36006157 -27.62624771 45.86213122 -25.5 43.1875 C-15.10992566 29.85515415 -6.07608045 15.85856997 0 0 Z " fill="#FDFCFD" transform="translate(780,98)"/>
<path d="M0 0 C0.66 0 1.32 0 2 0 C0.65259306 39.61157303 -5.75741043 80.32196053 -35.875 108.875 C-58.42445559 128.04559395 -87.17405571 133.6818226 -116 133 C-115.59019787 112.99420524 -106.12400678 95.42111355 -94 80 C-93.49082031 79.33742188 -92.98164062 78.67484375 -92.45703125 77.9921875 C-91.36324389 76.61292485 -90.1910789 75.2961741 -89 74 C-88.34 74 -87.68 74 -87 74 C-87 73.34 -87 72.68 -87 72 C-78.07269284 63.52164833 -67.87688993 57.22004924 -56.75 52.125 C-44.00223893 46.2839294 -32.46385546 39.4222772 -22 30 C-21.14792969 29.24203125 -20.29585937 28.4840625 -19.41796875 27.703125 C-10.98390933 19.77433181 -5.01964691 10.38547637 0 0 Z " fill="#FDFCFE" transform="translate(889,182)"/>
<path d="M0 0 C0.66 0 1.32 0 2 0 C6.50611193 8.55894633 9.84653583 17.08893981 12.375 26.4375 C12.62523926 27.35998535 12.87547852 28.2824707 13.13330078 29.23291016 C15.42394871 38.03733939 16.19760089 46.35280485 16.25 55.4375 C16.270625 56.32759766 16.29125 57.21769531 16.3125 58.13476562 C16.35105457 64.73241566 16.14526287 71.57910844 11.4621582 76.67260742 C5.783825 81.2386208 -1.02604234 84.13447447 -7.5625 87.25 C-22.90300914 94.76297637 -35.90679253 102.92424305 -48 115 C-49.20076172 116.18335938 -49.20076172 116.18335938 -50.42578125 117.390625 C-63.04285255 130.55247486 -70.58579042 147.57886326 -75.140625 165.0390625 C-75.87751791 167.57799353 -76.72053682 169.69921095 -78 172 C-87.80435026 152.04114412 -90.03618277 129.18517741 -83.33203125 107.87695312 C-77.66536844 91.43163805 -68.06028994 78.32095904 -56 66 C-55.18789063 65.13761719 -54.37578125 64.27523437 -53.5390625 63.38671875 C-49.16833064 58.83917735 -44.61371106 54.83260144 -39.5625 51.0625 C-21.84773196 37.74217318 -9.73252838 19.72497592 0 0 Z " fill="#FDFCFD" transform="translate(839,135)"/>
<path d="M0 0 C3 1 3 1 4.19506836 2.85083008 C4.76173218 4.04808716 4.76173218 4.04808716 5.33984375 5.26953125 C5.76152832 6.15286133 6.18321289 7.03619141 6.61767578 7.94628906 C7.05321777 8.89213867 7.48875977 9.83798828 7.9375 10.8125 C8.38335449 11.76995117 8.82920898 12.72740234 9.28857422 13.71386719 C18.9402018 34.72474536 18.9402018 34.72474536 17 43 C15.74562498 45.59037033 14.29613389 47.93284522 12.71875 50.33984375 C1.90771262 67.07238114 -4.26935645 88.40937618 -0.20703125 108.265625 C5.9656035 134.96303046 22.38851417 152.16477935 44.61401367 166.95947266 C45.07138916 167.30284668 45.52876465 167.6462207 46 168 C46 168.33 46 168.66 46 169 C20.91030758 170.49739544 -2.94753177 163.4220343 -22.203125 147.13671875 C-33.61550377 136.61729328 -39.33110035 121.86273059 -40.19140625 106.60546875 C-40.54115087 85.45757724 -32.98382665 70.23137774 -22.32421875 52.57421875 C-12.76653901 36.68323613 -2.24152994 18.6794162 0 0 Z " fill="#FDFBFD" transform="translate(687,145)"/>
<path d="M0 0 C16.5 0 33 0 50 0 C49.39743188 7.23081745 48.77438894 14.37396867 47.8359375 21.5546875 C47.7232251 22.43390869 47.6105127 23.31312988 47.49438477 24.21899414 C47.12378322 27.10466106 46.74939419 29.98982292 46.375 32.875 C46.10996228 34.93372736 45.84515648 36.99248459 45.58056641 39.05126953 C44.12681341 50.34805409 42.65695912 61.64274981 41.1875 72.9375 C40.7337354 76.42663947 40.28001315 79.91578443 39.82635498 83.40493774 C39.52552181 85.71777323 39.22445584 88.03057844 38.92315674 90.34335327 C37.21794434 103.43743791 35.54790469 116.53370385 33.99273682 129.64648438 C33.34420237 135.09958773 32.67681368 140.550342 32 146 C31.80760742 147.55533447 31.80760742 147.55533447 31.61132812 149.14208984 C31.26181148 151.88977962 30.88728823 154.63241571 30.5 157.375 C30.40557617 158.13127686 30.31115234 158.88755371 30.21386719 159.66674805 C29.74166044 162.80467429 29.32265215 164.6620783 27.1015625 166.98828125 C24.08652368 168.43975905 22.15980104 167.89298725 19 167 C16.5235839 164.5235839 16.60939857 163.43794764 16.24145508 160.00537109 C16.12379288 158.94837509 16.00613068 157.89137909 15.88490295 156.80235291 C15.76433029 155.63781082 15.64375763 154.47326874 15.51953125 153.2734375 C15.38594711 152.05141129 15.25236298 150.82938507 15.11473083 149.57032776 C14.74895132 146.20935767 14.39096234 142.8477238 14.03627014 139.48557663 C13.66101022 135.94616423 13.27591127 132.40782396 12.89160156 128.86938477 C12.32963099 123.6869867 11.77093524 118.50425355 11.21619606 113.32107639 C10.26857128 104.46760133 9.30311625 95.61620795 8.32582664 86.76596069 C7.93503985 83.2270065 7.54509426 79.68795959 7.1550293 76.14892578 C7.0791562 75.46056767 7.0032831 74.77220955 6.92511082 74.0629921 C6.77407617 72.69269437 6.62305313 71.32239536 6.47204208 69.95209503 C6.25428025 67.9763348 6.03639732 66.00058792 5.81851196 64.02484131 C4.33581994 50.55749451 2.87814884 37.08737809 1.50002289 23.60888863 C1.30290173 21.6876458 1.10210079 19.76678162 0.90118408 17.84593201 C0.78265076 16.67289017 0.66411743 15.49984833 0.54199219 14.29125977 C0.43699402 13.26686295 0.33199585 12.24246613 0.22381592 11.18702698 C-0.03747075 7.46643518 0 3.72975522 0 0 Z " fill="#FDFCFD" transform="translate(731,363)"/>
<path d="M0 0 C28.38 0 56.76 0 86 0 C86 8.58 86 17.16 86 26 C57.62 26 29.24 26 0 26 C0 17.42 0 8.84 0 0 Z " fill="#F9F5FA" transform="translate(712,326)"/>
</svg>
