{
  "accessors": [
    {
      "bufferView": 2,
      "componentType": 5126,
      "count": 65532,
      "max": [
        0.39220261573791504,
        1.871837854385376,
        1.0625702142715454
      ],
      "min": [
        -0.4217069745063782,
        -0.4499219059944153,
        -1.061307430267334
      ],
      "type": "VEC3"
    },
    {
      "bufferView": 2,
      "byteOffset": 786384,
      "componentType": 5126,
      "count": 65532,
      "max": [
        1.0,
        1.0,
        1.0
      ],
      "min": [
        -1.0,
        -1.0,
        -1.0
      ],
      "type": "VEC3"
    },
    {
      "bufferView": 3,
      "componentType": 5126,
      "count": 65532,
      "max": [
        1.0,
        1.0,
        1.0,
        1.0
      ],
      "min": [
        -1.0,
        -1.0,
        -1.0,
        -1.0
      ],
      "type": "VEC4"
    },
    {
      "bufferView": 1,
      "componentType": 5126,
      "count": 65532,
      "max": [
        0.9946491122245789,
        0.9955090880393982
      ],
      "min": [
        0.004450722131878138,
        0.004449942149221897
      ],
      "type": "VEC2"
    },
    {
      "bufferView": 1,
      "byteOffset": 524256,
      "componentType": 5126,
      "count": 65532,
      "max": [
        0.9946491122245789,
        0.9955090880393982
      ],
      "min": [
        0.004450722131878138,
        0.004449942149221897
      ],
      "type": "VEC2"
    },
    {
      "bufferView": 1,
      "byteOffset": 1048512,
      "componentType": 5126,
      "count": 65532,
      "max": [
        0.9946491122245789,
        0.9955090880393982
      ],
      "min": [
        0.004450722131878138,
        0.004449942149221897
      ],
      "type": "VEC2"
    },
    {
      "bufferView": 1,
      "byteOffset": 1572768,
      "componentType": 5126,
      "count": 65532,
      "max": [
        0.9946491122245789,
        0.9955090880393982
      ],
      "min": [
        0.004450722131878138,
        0.004449942149221897
      ],
      "type": "VEC2"
    },
    {
      "bufferView": 0,
      "componentType": 5125,
      "count": 324003,
      "type": "SCALAR"
    },
    {
      "bufferView": 2,
      "byteOffset": 1572768,
      "componentType": 5126,
      "count": 63669,
      "max": [
        0.3339957892894745,
        1.8637561798095703,
        1.0067065954208374
      ],
      "min": [
        -0.36350017786026,
        -0.3917151093482971,
        -1.005444049835205
      ],
      "type": "VEC3"
    },
    {
      "bufferView": 2,
      "byteOffset": 2336796,
      "componentType": 5126,
      "count": 63669,
      "max": [
        1.0,
        1.0,
        1.0
      ],
      "min": [
        -1.0,
        -1.0,
        -1.0
      ],
      "type": "VEC3"
    },
    {
      "bufferView": 3,
      "byteOffset": 1048512,
      "componentType": 5126,
      "count": 63669,
      "max": [
        1.0,
        1.0,
        1.0,
        1.0
      ],
      "min": [
        -1.0,
        -0.9999983310699463,
        -1.0,
        -1.0
      ],
      "type": "VEC4"
    },
    {
      "bufferView": 1,
      "byteOffset": 2097024,
      "componentType": 5126,
      "count": 63669,
      "max": [
        0.9940510392189026,
        0.9529621005058289
      ],
      "min": [
        0.004458412062376738,
        0.004456696566194296
      ],
      "type": "VEC2"
    },
    {
      "bufferView": 1,
      "byteOffset": 2606376,
      "componentType": 5126,
      "count": 63669,
      "max": [
        0.9940510392189026,
        0.9529621005058289
      ],
      "min": [
        0.004458412062376738,
        0.004456696566194296
      ],
      "type": "VEC2"
    },
    {
      "bufferView": 1,
      "byteOffset": 3115728,
      "componentType": 5126,
      "count": 63669,
      "max": [
        0.9940510392189026,
        0.9529621005058289
      ],
      "min": [
        0.004458412062376738,
        0.004456696566194296
      ],
      "type": "VEC2"
    },
    {
      "bufferView": 1,
      "byteOffset": 3625080,
      "componentType": 5126,
      "count": 63669,
      "max": [
        0.9940510392189026,
        0.9529621005058289
      ],
      "min": [
        0.004458412062376738,
        0.004456696566194296
      ],
      "type": "VEC2"
    },
    {
      "bufferView": 0,
      "byteOffset": 1296012,
      "componentType": 5125,
      "count": 350877,
      "type": "SCALAR"
    },
    {
      "bufferView": 2,
      "byteOffset": 3100824,
      "componentType": 5126,
      "count": 2190,
      "max": [
        1.0004172325134277,
        0.43590816855430603,
        1.7826899290084839
      ],
      "min": [
        -1.403731107711792,
        -0.05484946817159653,
        -0.04531531408429146
      ],
      "type": "VEC3"
    },
    {
      "bufferView": 2,
      "byteOffset": 3127104,
      "componentType": 5126,
      "count": 2190,
      "max": [
        0.8560879826545715,
        0.9988575577735901,
        0.9987264275550842
      ],
      "min": [
        -0.8563016653060913,
        -0.9978470802307129,
        -0.9985485672950745
      ],
      "type": "VEC3"
    },
    {
      "bufferView": 1,
      "byteOffset": 4134432,
      "componentType": 5126,
      "count": 2190,
      "max": [
        1.0,
        1.0
      ],
      "min": [
        0.0,
        0.0
      ],
      "type": "VEC2"
    },
    {
      "bufferView": 0,
      "byteOffset": 2699520,
      "componentType": 5125,
      "count": 12096,
      "type": "SCALAR"
    }
  ],
  "asset": {
    "extras": {
      "author": "yanix (https://sketchfab.com/yanix)",
      "license": "CC-BY-4.0 (http://creativecommons.org/licenses/by/4.0/)",
      "source": "https://sketchfab.com/3d-models/koss-porta-pro-2708f98b7bef49b2ad95db3f9b48bdca",
      "title": "KOSS Porta Pro"
    },
    "generator": "Sketchfab-12.64.0",
    "version": "2.0"
  },
  "bufferViews": [
    {
      "buffer": 0,
      "byteLength": 2747904,
      "name": "floatBufferViews",
      "target": 34963
    },
    {
      "buffer": 0,
      "byteLength": 4151952,
      "byteOffset": 2747904,
      "byteStride": 8,
      "name": "floatBufferViews",
      "target": 34962
    },
    {
      "buffer": 0,
      "byteLength": 3153384,
      "byteOffset": 6899856,
      "byteStride": 12,
      "name": "floatBufferViews",
      "target": 34962
    },
    {
      "buffer": 0,
      "byteLength": 2067216,
      "byteOffset": 10053240,
      "byteStride": 16,
      "name": "floatBufferViews",
      "target": 34962
    }
  ],
  "buffers": [
    {
      "byteLength": 12120456,
      "uri": "scene.bin"
    }
  ],
  "images": [
    {
      "uri": "textures/koss_porta_pro_baseColor.png"
    },
    {
      "uri": "textures/koss_porta_pro_metallicRoughness.png"
    },
    {
      "uri": "textures/koss_porta_pro_normal.png"
    }
  ],
  "materials": [
    {
      "doubleSided": true,
      "name": "koss_porta_pro",
      "normalTexture": {
        "index": 2
      },
      "pbrMetallicRoughness": {
        "baseColorTexture": {
          "index": 0
        },
        "metallicRoughnessTexture": {
          "index": 1,
          "texCoord": 1
        }
      }
    },
    {
      "doubleSided": true,
      "name": "wire",
      "pbrMetallicRoughness": {
        "baseColorFactor": [
          0.0,
          0.0,
          0.0,
          1.0
        ],
        "metallicFactor": 0.0,
        "roughnessFactor": 0.4
      }
    }
  ],
  "meshes": [
    {
      "name": "Object_0",
      "primitives": [
        {
          "attributes": {
            "NORMAL": 1,
            "POSITION": 0,
            "TANGENT": 2,
            "TEXCOORD_0": 3,
            "TEXCOORD_1": 4,
            "TEXCOORD_2": 5,
            "TEXCOORD_3": 6
          },
          "indices": 7,
          "material": 0,
          "mode": 4
        }
      ]
    },
    {
      "name": "Object_1",
      "primitives": [
        {
          "attributes": {
            "NORMAL": 9,
            "POSITION": 8,
            "TANGENT": 10,
            "TEXCOORD_0": 11,
            "TEXCOORD_1": 12,
            "TEXCOORD_2": 13,
            "TEXCOORD_3": 14
          },
          "indices": 15,
          "material": 0,
          "mode": 4
        }
      ]
    },
    {
      "name": "Object_2",
      "primitives": [
        {
          "attributes": {
            "NORMAL": 17,
            "POSITION": 16,
            "TEXCOORD_0": 18
          },
          "indices": 19,
          "material": 1,
          "mode": 4
        }
      ]
    }
  ],
  "nodes": [
    {
      "children": [
        1
      ],
      "matrix": [
        1.0,
        0.0,
        0.0,
        0.0,
        0.0,
        2.220446049250313e-16,
        -1.0,
        0.0,
        0.0,
        1.0,
        2.220446049250313e-16,
        0.0,
        0.0,
        0.0,
        0.0,
        1.0
      ],
      "name": "Sketchfab_model"
    },
    {
      "children": [
        2
      ],
      "name": "root"
    },
    {
      "children": [
        3
      ],
      "matrix": [
        1.0,
        0.0,
        0.0,
        0.0,
        0.0,
        2.220446049250313e-16,
        1.0,
        0.0,
        0.0,
        -1.0,
        2.220446049250313e-16,
        0.0,
        0.0,
        0.0,
        0.0,
        1.0
      ],
      "name": "GLTF_SceneRootNode"
    },
    {
      "children": [
        4,
        5,
        6
      ],
      "matrix": [
        8.429369480200677e-08,
        0.0,
        0.9999999999999966,
        0.0,
        -0.0,
        1.0,
        0.0,
        0.0,
        -0.9999999999999966,
        -0.0,
        8.429369480200677e-08,
        0.0,
        0.0,
        0.0,
        0.0,
        1.0
      ],
      "name": "Cylinder.002_2"
    },
    {
      "mesh": 0,
      "name": "Object_4"
    },
    {
      "mesh": 1,
      "name": "Object_5"
    },
    {
      "children": [
        7
      ],
      "matrix": [
        -0.09658215563456718,
        0.9953250158681737,
        0.0,
        0.0,
        -0.9953250158681737,
        -0.09658215563456718,
        0.0,
        0.0,
        0.0,
        0.0,
        1.0,
        0.0,
        0.3216472268104553,
        -1.272481083869934,
        -0.8658173084259033,
        1.0
      ],
      "name": "BezierCurve.001_1"
    },
    {
      "mesh": 2,
      "name": "Object_7"
    }
  ],
  "samplers": [
    {
      "magFilter": 9729,
      "minFilter": 9987,
      "wrapS": 10497,
      "wrapT": 10497
    }
  ],
  "scene": 0,
  "scenes": [
    {
      "name": "Sketchfab_Scene",
      "nodes": [
        0
      ]
    }
  ],
  "textures": [
    {
      "sampler": 0,
      "source": 0
    },
    {
      "sampler": 0,
      "source": 1
    },
    {
      "sampler": 0,
      "source": 2
    }
  ]
}
